<?xml version="1.0" encoding="UTF-8" standalone="no"?>
<!-- Created with Inkscape (http://www.inkscape.org/) -->

<svg
   xmlns:dc="http://purl.org/dc/elements/1.1/"
   xmlns:cc="http://creativecommons.org/ns#"
   xmlns:rdf="http://www.w3.org/1999/02/22-rdf-syntax-ns#"
   xmlns:svg="http://www.w3.org/2000/svg"
   xmlns="http://www.w3.org/2000/svg"
   xmlns:xlink="http://www.w3.org/1999/xlink"
   xmlns:sodipodi="http://sodipodi.sourceforge.net/DTD/sodipodi-0.dtd"
   xmlns:inkscape="http://www.inkscape.org/namespaces/inkscape"
   width="744.09448"
   height="1052.3622"
   id="svg2"
   version="1.1"
   inkscape:version="0.48.2 r9819"
   sodipodi:docname="clock.svg">
  <defs
     id="defs4">
    <linearGradient
       id="linearGradient4368">
      <stop
         style="stop-color:#f9ff00;stop-opacity:1;"
         offset="0"
         id="stop4370" />
      <stop
         id="stop4376"
         offset="0.90046781"
         style="stop-color:#ffffff;stop-opacity:1;" />
      <stop
         style="stop-color:#fffa00;stop-opacity:1;"
         offset="1"
         id="stop4372" />
    </linearGradient>
    <linearGradient
       id="linearGradient3916">
      <stop
         style="stop-color:#008000;stop-opacity:1;"
         offset="0"
         id="stop3918" />
      <stop
         style="stop-color:#ffffff;stop-opacity:1;"
         offset="1"
         id="stop3920" />
    </linearGradient>
    <linearGradient
       id="linearGradient3891">
      <stop
         style="stop-color:#008002;stop-opacity:1;"
         offset="0"
         id="stop3893" />
      <stop
         style="stop-color:#feff00;stop-opacity:1;"
         offset="1"
         id="stop3895" />
    </linearGradient>
    <linearGradient
       inkscape:collect="always"
       xlink:href="#linearGradient3891"
       id="linearGradient3001"
       gradientUnits="userSpaceOnUse"
       gradientTransform="matrix(0.29865331,0,0,0.29865331,145.18568,542.05816)"
       x1="13.754464"
       y1="604.88617"
       x2="-202.78572"
       y2="600.60046" />
    <linearGradient
       inkscape:collect="always"
       xlink:href="#linearGradient3916"
       id="linearGradient4370"
       gradientUnits="userSpaceOnUse"
       x1="433.00894"
       y1="108.5067"
       x2="237.29465"
       y2="382.07812" />
    <radialGradient
       inkscape:collect="always"
       xlink:href="#linearGradient4368"
       id="radialGradient4374"
       cx="951.09375"
       cy="494.375"
       fx="951.09375"
       fy="494.375"
       r="53.95475"
       gradientUnits="userSpaceOnUse" />
    <radialGradient
       inkscape:collect="always"
       xlink:href="#linearGradient4368"
       id="radialGradient4524"
       gradientUnits="userSpaceOnUse"
       cx="951.09375"
       cy="494.375"
       fx="951.09375"
       fy="494.375"
       r="53.95475" />
    <radialGradient
       inkscape:collect="always"
       xlink:href="#linearGradient4368"
       id="radialGradient3063"
       gradientUnits="userSpaceOnUse"
       cx="951.09375"
       cy="494.375"
       fx="951.09375"
       fy="494.375"
       r="53.95475" />
    <radialGradient
       inkscape:collect="always"
       xlink:href="#linearGradient4368"
       id="radialGradient3122"
       gradientUnits="userSpaceOnUse"
       cx="951.09375"
       cy="494.375"
       fx="951.09375"
       fy="494.375"
       r="53.95475"
       gradientTransform="matrix(1.6792425,0,0,1.6792425,-1167.5563,-737.62558)" />
  </defs>
  <sodipodi:namedview
     id="base"
     pagecolor="#ffffff"
     bordercolor="#666666"
     borderopacity="1.0"
     inkscape:pageopacity="0.0"
     inkscape:pageshadow="2"
     inkscape:zoom="0.70000001"
     inkscape:cx="652.47396"
     inkscape:cy="596.88776"
     inkscape:document-units="px"
     inkscape:current-layer="g4308"
     showgrid="false"
     showguides="true"
     inkscape:guide-bbox="true"
     inkscape:window-width="1920"
     inkscape:window-height="1028"
     inkscape:window-x="-8"
     inkscape:window-y="-8"
     inkscape:window-maximized="1"
     fit-margin-top="0"
     fit-margin-left="0"
     fit-margin-right="0"
     fit-margin-bottom="0"
     inkscape:snap-nodes="false" />
  <metadata
     id="metadata7">
    <rdf:RDF>
      <cc:Work
         rdf:about="">
        <dc:format>image/svg+xml</dc:format>
        <dc:type
           rdf:resource="http://purl.org/dc/dcmitype/StillImage" />
        <dc:title />
      </cc:Work>
    </rdf:RDF>
  </metadata>
  <g
     inkscape:label="Layer 1"
     inkscape:groupmode="layer"
     id="layer1"
     transform="translate(-34.295135,279.12318)">
    <g
       transform="translate(-1.5958687,158.06566)"
       style="font-size:23.02064896px;font-style:normal;font-variant:normal;font-weight:normal;font-stretch:normal;text-align:start;line-height:125%;letter-spacing:0px;word-spacing:0px;writing-mode:lr-tb;text-anchor:start;fill:#ffff00;fill-opacity:1;stroke:none;font-family:AlMohanad;-inkscape-font-specification:AlMohanad"
       id="text3899-9-9-71-3" />
    <g
       id="g4308"
       transform="matrix(0.59550661,0,0,0.59550661,148.15408,-49.862269)">
      <path
         inkscape:connector-curvature="0"
         style="fill:#ffffff;fill-opacity:1;fill-rule:nonzero;stroke:#000000;stroke-width:0.83962125;stroke-miterlimit:4;stroke-opacity:1;stroke-dasharray:none"
         d="m 426.35969,-230.17949 c -121.58696,0 -220.19067,96.82835 -220.19067,216.307427 0,119.479083 98.60371,216.359903 220.19067,216.359903 121.5869,0 220.13811,-96.88082 220.13811,-216.359903 0,-119.479077 -98.55121,-216.307427 -220.13811,-216.307427 z m 2.41391,202.97844 c 8.19232,0 14.79833,6.658482 14.79833,14.850801 0,8.1923189 -6.60601,14.8508009 -14.79833,14.8508009 -8.19232,0 -14.8508,-6.658482 -14.8508,-14.8508009 0,-8.192319 6.65848,-14.850801 14.8508,-14.850801 z m 0,113.19144 c 3.15385,0 5.71992,2.566067 5.71992,5.71992 0,3.153852 -2.56607,5.719919 -5.71992,5.719919 -3.15385,0 -5.71992,-2.566067 -5.71992,-5.719919 0,-3.153853 2.56607,-5.71992 5.71992,-5.71992 z"
         id="path3052" />
      <path
         style="font-size:medium;font-style:normal;font-variant:normal;font-weight:normal;font-stretch:normal;text-indent:0;text-align:start;text-decoration:none;line-height:normal;letter-spacing:normal;word-spacing:normal;text-transform:none;direction:ltr;block-progression:tb;writing-mode:lr-tb;text-anchor:start;baseline-shift:baseline;color:#000000;fill:#000000;fill-opacity:1;fill-rule:nonzero;stroke:none;stroke-width:0.597;marker:none;visibility:visible;display:inline;overflow:visible;enable-background:accumulate;font-family:Sans;-inkscape-font-specification:Sans"
         d="m 429.56075,-217.7426 c -113.628,0 -205.7597,92.13168 -205.7597,205.75969 0,113.628 92.1317,205.75968 205.7597,205.75968 113.628,0 205.7596,-92.13168 205.7596,-205.75968 0,-113.62801 -92.1316,-205.75969 -205.7596,-205.75969 z m 0,1.04953 c 113.0863,0 204.7101,91.62384 204.7101,204.71016 0,113.08631 -91.6238,204.71015 -204.7101,204.71015 -113.0864,0 -204.7102,-91.62384 -204.7102,-204.71015 0,-113.08632 91.6238,-204.71016 204.7102,-204.71016 z m 0,14.22108 c -105.1965,0 -190.4891,85.29261 -190.4891,190.48908 0,92.01122 65.2232,168.75614 151.9714,186.55334 0.017,0.003 0.036,-0.003 0.053,0 11.6872,5.49499 24.6938,8.60612 38.4652,8.60612 13.7713,0 26.778,-3.11113 38.4651,-8.60612 0.034,-0.007 0.072,0.007 0.105,0 86.7233,-17.81653 151.9189,-94.55987 151.9189,-186.55334 0,-105.19647 -85.2925,-190.48908 -190.489,-190.48908 z m 0,1.04953 c 104.6548,0 189.4394,84.78474 189.4394,189.43955 0,91.55527 -64.87,167.92495 -151.1842,185.60877 -0.054,-0.003 -0.048,-0.0516 -0.1574,0 -11.5697,5.44726 -24.4592,8.50116 -38.0978,8.50116 -13.6387,0 -26.5282,-3.0539 -38.0978,-8.50116 l -0.053,0 -0.053,0 c -0.2176,-0.0444 -0.237,-0.0379 -0.053,0 -86.3143,-17.68382 -151.1843,-94.0535 -151.1843,-185.60877 0,-104.65481 84.7848,-189.43955 189.4396,-189.43955 z"
         id="path3835"
         inkscape:connector-curvature="0" />
      <text
         sodipodi:linespacing="125%"
         id="text3899-9-9-0-4-5-2-3-0"
         y="142.82988"
         x="507.50555"
         style="font-size:44.49687958px;font-style:normal;font-variant:normal;font-weight:normal;font-stretch:normal;text-align:start;line-height:125%;letter-spacing:0px;word-spacing:0px;writing-mode:lr-tb;text-anchor:start;fill:#000000;fill-opacity:1;stroke:none;font-family:AlMohanad;-inkscape-font-specification:AlMohanad"
         xml:space="preserve"><tspan
           style="font-size:44.49687958px;font-style:normal;font-variant:normal;font-weight:normal;font-stretch:normal;text-align:start;line-height:125%;writing-mode:lr-tb;text-anchor:start;fill:#000000;font-family:AlMohanad;-inkscape-font-specification:AlMohanad"
           y="142.82988"
           x="507.50555"
           id="tspan3901-0-3-8-3-3-8-8-0"
           sodipodi:role="line">5</tspan></text>
      <text
         sodipodi:linespacing="125%"
         id="text3899-9-9-0-4-5-2-3-0-4"
         y="142.82988"
         x="323.47833"
         style="font-size:44.49687958px;font-style:normal;font-variant:normal;font-weight:normal;font-stretch:normal;text-align:start;line-height:125%;letter-spacing:0px;word-spacing:0px;writing-mode:lr-tb;text-anchor:start;fill:#000000;fill-opacity:1;stroke:none;font-family:AlMohanad;-inkscape-font-specification:AlMohanad"
         xml:space="preserve"><tspan
           style="font-size:44.49687958px;font-style:normal;font-variant:normal;font-weight:normal;font-stretch:normal;text-align:start;line-height:125%;writing-mode:lr-tb;text-anchor:start;fill:#000000;font-family:AlMohanad;-inkscape-font-specification:AlMohanad"
           y="142.82988"
           x="323.47833"
           id="tspan3901-0-3-8-3-3-8-8-0-1"
           sodipodi:role="line">7</tspan></text>
      <path
         inkscape:connector-curvature="0"
         style="fill:url(#radialGradient3122);fill-opacity:1;fill-rule:nonzero;stroke:#000000;stroke-width:1.00250781;stroke-miterlimit:4;stroke-opacity:1;stroke-dasharray:none"
         d="m 429.56075,2.4480755 c -49.77092,0 -90.10186,40.3309385 -90.10186,90.1018555 0,49.770919 40.33094,90.101859 90.10186,90.101859 49.77091,0 90.10185,-40.33094 90.10185,-90.101859 0,-49.770917 -40.33094,-90.1018555 -90.10185,-90.1018555 z m 0,10.6002185 c 43.9157,0 79.50163,35.585936 79.50163,79.501637 0,43.915699 -35.58593,79.501639 -79.50163,79.501639 -43.9157,0 -79.50164,-35.58594 -79.50164,-79.501639 0,-43.915701 35.58594,-79.501637 79.50164,-79.501637 z"
         id="path3856" />
      <path
         inkscape:connector-curvature="0"
         id="path4184-5"
         d="m 371.36315,-43.60856 c -1.4349,-0.44031 -2.3597,-1.59937 -2.6396,-3.30831 -0.067,-0.40909 -0.1171,-4.84935 -0.1174,-10.41925 l -0.001,-9.70631 17.3306,0 c 13.7831,0 17.3303,-0.0314 17.3298,-0.1531 0,-0.0842 -0.088,-0.31845 -0.1944,-0.52054 -0.7563,-1.43511 -1.6547,-3.9323 -2.1388,-5.945 -0.771,-3.20567 -0.8959,-7.74934 -0.2979,-10.83439 0.068,-0.35111 0.04,-0.38072 -0.6387,-0.6667 -0.3905,-0.16459 -1.4265,-0.6133 -2.3022,-0.99713 -0.8757,-0.38384 -2.6669,-1.1675 -3.9805,-1.74148 -1.3136,-0.57396 -3.5457,-1.55042 -4.9603,-2.16988 -4.2238,-1.84963 -20.7577,-9.07631 -23.3626,-10.21139 -1.3304,-0.57972 -3.5075,-1.52791 -4.8378,-2.10709 -4.7495,-2.06754 -8.3037,-3.61749 -8.6653,-3.77881 -0.2021,-0.0901 -0.6155,-0.27442 -0.9186,-0.40953 -0.3031,-0.1351 -1.1298,-0.49232 -1.8371,-0.79379 -0.7074,-0.30151 -1.5341,-0.66225 -1.8372,-0.80168 -0.3032,-0.13944 -1.4054,-0.62166 -2.4495,-1.07157 -1.0442,-0.44995 -2.5821,-1.11273 -3.4177,-1.47288 -1.78,-0.76717 -2.3815,-1.15331 -2.5935,-1.66507 -0.1781,-0.43018 -0.07,-0.68807 0.3892,-0.92399 0.6482,-0.33338 1.2028,-0.23125 5.132,0.94505 1.1789,0.3529 2.8599,0.8512 3.7356,1.10733 1.5758,0.46089 5.8673,1.73223 10.9617,3.24736 1.4483,0.43073 2.8262,0.84013 3.0619,0.90976 0.2358,0.0697 2.1097,0.62361 4.1643,1.23108 4.9756,1.47111 6.8829,2.03409 10.1656,3.00063 1.5156,0.44626 3.4722,1.02447 4.3479,1.28491 0.8757,0.26043 2.5292,0.74882 3.6744,1.08532 1.1451,0.33649 3.4875,1.02509 5.2053,1.53021 6.7092,1.97297 10.3164,3.02514 12.4314,3.62609 1.2126,0.34456 2.2711,0.64909 2.3523,0.67676 0.082,0.0277 0.6158,-0.56706 1.1878,-1.32165 1.6831,-2.2203 2.8289,-3.37704 5.3866,-5.43738 0.7857,-0.63288 3.0185,-1.98372 4.3996,-2.66165 9.4306,-4.62939 20.657,-3.33727 28.941,3.33103 1.9165,1.54271 3.9293,3.74792 5.3686,5.88156 0.1951,0.28924 0.3997,0.55369 0.4547,0.58768 0.055,0.034 0.8036,-0.15767 1.6638,-0.42591 0.86,-0.26824 2.032,-0.62378 2.6046,-0.79011 0.5727,-0.16632 1.9781,-0.58742 3.1232,-0.93576 1.1452,-0.34837 3.5427,-1.07665 5.3278,-1.61845 4.6054,-1.39775 5.8886,-1.78938 9.5532,-2.91556 1.7852,-0.54858 4.596,-1.41059 6.2463,-1.91557 1.6504,-0.50495 4.5165,-1.38702 6.3689,-1.96015 4.3418,-1.34331 5.9601,-1.84019 8.5122,-2.61349 1.1451,-0.34702 2.9363,-0.89834 3.9805,-1.2252 1.0441,-0.32687 2.5322,-0.78891 3.3068,-1.02676 0.7747,-0.23787 2.5935,-0.79802 4.0418,-1.24481 4.8342,-1.49132 6.6708,-2.02789 7.1863,-2.09951 0.9981,-0.13869 1.877,0.23358 1.877,0.79501 0,0.49969 -0.8348,1.21823 -2.1517,1.85192 -0.7084,0.34082 -1.3068,0.61968 -1.3301,0.61968 -0.023,0 -0.6136,0.26817 -1.3116,0.59595 -0.6981,0.32777 -1.5723,0.73439 -1.9428,0.90361 -0.3705,0.16922 -1.8035,0.83182 -3.1844,1.47246 -2.3826,1.10524 -2.9933,1.38636 -4.7154,2.17036 -0.4042,0.184 -1.2033,0.55629 -1.7759,0.82731 -0.5726,0.27101 -1.6474,0.76998 -2.3884,1.10883 -0.7409,0.33885 -1.8983,0.87497 -2.5719,1.19136 -0.6737,0.31641 -3.3468,1.55612 -5.9402,2.75491 -2.5934,1.1988 -5.1563,2.38411 -5.6952,2.63401 -1.2438,0.5768 -2.388,1.1056 -4.1303,1.90888 -0.7596,0.35027 -2.723,1.26221 -4.3631,2.02657 -1.6401,0.76435 -3.0028,1.38974 -3.0283,1.38974 -0.025,0 -0.6403,0.28176 -1.366,0.62613 -1.518,0.72022 -2.605,1.22586 -4.5041,2.09508 -0.741,0.33917 -1.8157,0.83672 -2.3883,1.10569 -0.97,0.45568 -4.7821,2.21422 -6.4128,2.95829 -0.666,0.30386 -0.7124,0.35139 -0.6441,0.65979 0.1696,0.76535 0.2263,4.6758 0.088,6.08877 -0.2943,3.01527 -1.1487,6.19485 -2.3481,8.73738 -0.3322,0.70436 -0.6041,1.32744 -0.6041,1.38464 0,0.0573 7.8953,0.11797 17.545,0.13503 l 17.5448,0.031 0,11.75782 0,11.75782 -57.1969,0.0221 c -51.0236,0.0199 -57.2628,0.002 -57.8074,-0.16514 z m 114.0557,-11.64543 -0.032,-10.86987 -57.6256,-0.0284 c -31.6941,-0.0154 -57.7496,0.005 -57.9012,0.0448 l -0.2756,0.0732 0,9.45825 c 0,10.21977 -0.01,10.081 0.6571,11.08621 0.1914,0.28937 0.5481,0.58342 0.951,0.78421 l 0.6446,0.32126 56.8062,0 56.8061,0 -0.032,-10.86987 z m -111.6835,8.61878 c -1.0273,-0.36713 -1.561,-0.99788 -1.8798,-2.22149 -0.159,-0.61077 -0.1882,-1.84018 -0.1882,-7.92338 l 0,-7.20043 8.1986,0 8.1986,0 0.038,6.96847 c 0.045,8.11566 -0.066,7.48519 1.3123,7.48198 0.4443,-9.2e-4 0.8777,-0.0462 0.9631,-0.10049 0.3513,-0.223 0.3958,-1.0821 0.3958,-7.64355 l 0,-6.70644 8.2095,0 8.2096,0 -0.034,7.68546 -0.034,7.68545 -0.3398,0.61238 c -0.3607,0.65001 -0.8889,1.08464 -1.6465,1.35495 -0.6693,0.23875 -30.7355,0.24551 -31.4029,0.007 z m 38.1213,9.3e-4 c -0.6714,-0.24299 -1.3706,-0.92005 -1.7135,-1.65934 -0.2857,-0.6161 -0.3218,-0.86137 -0.3643,-2.47848 -0.084,-3.20911 0.3076,-4.34043 1.7549,-5.06402 l 0.7348,-0.36744 8.3101,-0.0347 8.3101,-0.0347 -0.043,-2.06526 c -0.053,-2.53783 -0.074,-2.5807 -1.3289,-2.5807 -1.096,0 -1.2115,0.1338 -1.309,1.51536 l -0.074,1.05667 -8.2032,0 -8.2032,0 0.055,-1.7453 c 0.062,-1.96426 0.2125,-2.43122 1.0078,-3.12951 0.903,-0.79279 0.159,-0.75915 16.7884,-0.75915 16.7944,0 15.9045,-0.0438 16.74,0.82302 0.9371,0.97234 0.8926,0.53869 0.9318,9.06704 l 0.035,7.6242 -16.5082,-0.01 c -12.6408,-0.007 -16.6048,-0.0442 -16.9202,-0.15837 z m 17.0076,-4.99173 0,-2.09747 -1.0466,0.055 c -1.5196,0.0798 -1.5867,0.16605 -1.5867,2.04249 0,1.93169 0.1202,2.07556 1.7453,2.08978 l 0.888,0.007 0,-2.09747 z m 18.521,3.60724 0.034,-1.55217 2.3463,-1.7241 c 1.2905,-0.94825 4.7349,-3.48778 7.6544,-5.64338 l 5.3081,-3.91927 -7.685,-0.0315 -7.6849,-0.0316 0,-1.53005 0,-1.53004 17.6903,0 17.6903,0 0.038,1.34477 c 0.021,0.73962 0.011,1.45091 -0.023,1.58063 -0.033,0.12972 -1.3648,1.1918 -2.9581,2.36016 -1.5933,1.16838 -5.0272,3.69508 -7.6309,5.61491 l -4.734,3.49061 7.6684,0.0613 7.6684,0.0613 9e-4,1.34725 c 0,0.74098 0,1.41614 -0.01,1.50035 -0.01,0.12174 -3.6339,0.1531 -17.7094,0.1531 l -17.7016,0 0.034,-1.55218 z m -38.9747,-19.16705 c 0,-0.0591 -0.2211,-0.45758 -0.4912,-0.88534 -2.3129,-3.66224 -3.5327,-8.71971 -3.1923,-13.23589 l 0.1273,-1.68881 -0.5691,-1.056 c -0.6842,-1.26942 -0.6397,-1.2118 -0.7714,-0.99861 -0.5058,0.81828 -0.7735,5.80164 -0.4452,8.28513 0.2376,1.79871 0.7455,3.85086 1.3602,5.4974 0.4925,1.31896 1.6841,3.74761 1.9878,4.05135 0.1382,0.13806 0.42,0.18002 1.0901,0.16229 0.4971,-0.0133 0.9038,-0.0723 0.9038,-0.13152 z m 36.8136,0.0501 c 0.4549,-0.31248 1.9103,-2.94787 2.634,-4.76933 0.523,-1.31691 1.0563,-3.46216 1.2748,-5.12866 0.1844,-1.40684 0.2561,-4.33858 0.106,-4.33858 -0.096,0 -0.7879,0.3169 -8.5557,3.91887 -3.3681,1.56183 -7.4742,3.46292 -9.1246,4.22466 l -3.0006,1.38499 -9.203,0.88633 c -5.0617,0.48749 -9.3517,0.84906 -9.5332,0.80348 -0.5922,-0.14863 -0.9218,-0.60122 -0.9187,-1.26149 0,-0.80075 0.212,-1.21482 2.4065,-4.78374 1.0491,-1.70602 1.8727,-3.13658 1.8302,-3.17905 -0.043,-0.0425 -1.7715,-0.80389 -3.8424,-1.69202 -3.6146,-1.55019 -3.7694,-1.60444 -3.8709,-1.35646 -0.2065,0.50479 -0.1441,4.57521 0.092,6.01475 0.294,1.79067 0.9107,3.89778 1.5984,5.46114 0.7617,1.73146 1.9941,3.75978 2.3234,3.82371 0.4714,0.0915 35.6501,0.0831 35.7835,-0.009 z m 3.7537,-1.31521 c 1.9309,-3.69823 2.7898,-7.19741 2.7895,-11.36399 0,-1.86563 -0.205,-3.7387 -0.4584,-4.19144 -0.075,-0.13421 -0.2699,0.12891 -0.7348,0.99226 l -0.6326,1.17491 -0.054,2.34619 c -0.098,4.22934 -1.0252,7.60746 -3.0491,11.10331 -0.4566,0.78853 -0.6294,1.19384 -0.5362,1.25757 0.076,0.0517 0.5504,0.0793 1.055,0.0613 l 0.9173,-0.0329 0.7034,-1.34726 z m -30.2405,-6.77895 c 4.8982,-2.21277 8.9417,-4.05911 8.9857,-4.103 0.044,-0.0439 -2.9806,-0.0798 -6.721,-0.0798 l -6.8007,0 -2.0019,3.33751 c -1.1012,1.83564 -2.101,3.54152 -2.2219,3.79088 -0.1861,0.38378 -0.3038,1.07758 -0.1829,1.07758 0.02,0 4.0445,-1.81044 8.9427,-4.0232 z m 16.7526,-7.07256 c 3.5973,-1.38729 10.2333,-3.94533 14.7466,-5.68454 4.5133,-1.7392 11.3751,-4.38529 15.2485,-5.88024 7.6948,-2.96989 13.5332,-5.22086 23.7605,-9.1609 3.6713,-1.41434 9.1277,-3.51883 12.1252,-4.67667 2.9977,-1.15785 6.8833,-2.65477 8.6347,-3.3265 1.7515,-0.67174 3.2329,-1.26902 3.2922,-1.32727 0.2003,-0.19672 -0.7851,-0.27662 -1.5529,-0.1259 -0.4177,0.082 -1.3106,0.33378 -1.9842,0.55952 -1.1791,0.39511 -5.8067,1.81752 -28.476,8.75259 -5.7595,1.76198 -13.2276,4.04824 -16.5957,5.08059 -3.3681,1.03235 -7.7773,2.38113 -9.7981,2.9973 -2.021,0.61616 -3.8498,1.17545 -4.0641,1.24288 -0.3243,0.10195 -1.3353,1.16306 -1.8957,1.98946 -0.051,0.075 -0.6641,0.0196 -1.6551,-0.14962 l -1.5742,-0.26879 -7.0408,2.154 c -3.8725,1.18469 -7.6609,2.34575 -8.4188,2.58012 l -1.3778,0.42612 0,3.67009 c 0,2.01856 0.02,3.67012 0.043,3.67012 0.023,0 2.9858,-1.13507 6.5831,-2.52235 z m -7.2737,-4.78022 c -0.034,-0.0342 -5.1212,-1.54393 -16.0543,-4.76472 l -2.8011,-0.82517 -1.5701,0.33081 -1.5702,0.33082 -0.4666,-0.52836 c -1.5293,-1.7317 -1.3072,-1.60039 -4.0797,-2.41206 -1.3809,-0.40429 -7.0302,-2.06817 -12.5539,-3.69753 -5.5237,-1.62936 -10.2912,-3.03176 -10.5943,-3.11645 -0.3031,-0.0848 -3.1967,-0.93627 -6.4301,-1.89235 -3.2334,-0.95608 -8.9653,-2.64836 -12.7376,-3.76063 -3.7723,-1.11228 -9.0082,-2.65654 -11.6354,-3.43171 -6.6083,-1.94986 -7.2319,-2.12145 -7.7101,-2.12145 -0.7098,0 -0.5874,0.18882 0.3364,0.51913 0.4854,0.17353 5.5673,2.02418 11.293,4.11255 5.7258,2.08838 14.4891,5.28444 19.4739,7.10237 4.9848,1.81793 13.1694,4.80283 18.1879,6.63314 5.0185,1.83029 11.6047,4.23192 14.636,5.33697 3.0314,1.10504 9.7278,3.54661 14.881,5.4257 l 9.3695,3.41653 0.033,-3.30902 c 0.018,-1.81994 0.015,-3.32681 -0.01,-3.34857 z m 4.3674,-1.7737 c 7.6621,-2.33701 12.3763,-3.79422 12.4218,-3.83976 0.1759,-0.17586 -1.6927,-2.29974 -3.1551,-3.58611 -4.4726,-3.93422 -10.5225,-5.95713 -16.2718,-5.44082 -6.0818,0.54617 -11.2,3.18315 -15.1836,7.82264 l -0.6487,0.75559 0.4038,0.1148 c 0.5945,0.169 12.0639,3.54989 15.4073,4.54167 1.5831,0.46958 2.8985,0.85738 2.9232,0.86175 0.025,0.005 1.8712,-0.54901 4.1031,-1.22976 z m 16.9428,-4.73551 c 0.1796,-0.26237 0.1641,-0.31763 -0.2737,-0.97983 -0.8313,-1.25697 -2.2086,-2.88003 -3.5654,-4.20153 -4.9488,-4.82006 -11.4688,-7.46198 -18.4153,-7.46198 -8.3494,0 -16.2378,3.95996 -21.204,10.64444 -0.53,0.71341 -0.9638,1.32905 -0.964,1.3681 0,0.10475 1.3535,1.58261 1.4489,1.58151 0.045,-4.9e-4 0.2145,-0.23476 0.3769,-0.52052 0.4372,-0.76935 1.6541,-2.33719 2.5718,-3.31343 3.2009,-3.40509 7.404,-5.8815 11.8915,-7.00616 3.7436,-0.93825 8.1808,-0.94098 11.8645,-0.007 5.7452,1.45619 10.7084,4.87655 14.1007,9.71739 l 1.041,1.48562 0.4683,-0.51414 c 0.2577,-0.28277 0.554,-0.63926 0.6588,-0.79218 z"
         style="fill:#008000;fill-opacity:1" />
      <path
         inkscape:connector-curvature="0"
         style="font-size:medium;font-style:normal;font-variant:normal;font-weight:normal;font-stretch:normal;text-indent:0;text-align:start;text-decoration:none;line-height:normal;letter-spacing:normal;word-spacing:normal;text-transform:none;direction:ltr;block-progression:tb;writing-mode:lr-tb;text-anchor:start;baseline-shift:baseline;color:#000000;fill:#ff0000;fill-opacity:1;stroke:none;stroke-width:1.5;marker:none;visibility:visible;display:inline;overflow:visible;enable-background:accumulate;font-family:Sans;-inkscape-font-specification:Sans"
         d="m 448.03241,-215.85345 -1.3119,14.16861 c 0.82071,0.0734 1.64871,0.12628 2.46638,0.2099 l 1.31191,-14.1686 c -0.81655,-0.083 -1.64703,-0.13669 -2.46639,-0.20991 z m -41.71868,0.47229 c -0.822,0.0929 -1.64737,0.15986 -2.46638,0.26238 l 1.78419,14.16861 c 0.81086,-0.10143 1.65239,-0.17112 2.46639,-0.26238 l -1.7842,-14.16861 z m 64.65084,2.8862 -2.8862,13.9587 c 0.81019,0.16658 1.60752,0.34799 2.41391,0.52476 l 2.93868,-13.9587 c -0.819,-0.17879 -1.64376,-0.3558 -2.46639,-0.52476 z m -86.27108,0.73466 c -0.81116,0.18128 -1.60643,0.38636 -2.41392,0.57724 l 3.30601,13.85375 c 0.80659,-0.19062 1.60339,-0.3969 2.41391,-0.57724 l -3.306,-13.85375 z m 106.94675,4.6704 -4.35553,13.59137 c 0.80172,0.25477 1.61684,0.46961 2.41391,0.73466 l 4.35553,-13.53889 c -0.80283,-0.26626 -1.60671,-0.53059 -2.41391,-0.78714 z m -127.465,1.04952 c -0.78995,0.26581 -1.57583,0.51199 -2.36143,0.78715 l 4.72287,13.48642 c 0.7822,-0.27423 1.57461,-0.52289 2.36143,-0.78715 l -4.72287,-13.48642 z m 145.41191,5.56249 -5.56249,13.11909 c 0.76605,0.3256 1.4956,0.66174 2.25648,0.99705 l 5.56257,-13.11909 c -0.76011,-0.33396 -1.49174,-0.67208 -2.25656,-0.99705 z m -166.61234,2.8862 c -0.75056,0.35058 -1.51094,0.69014 -2.25649,1.04953 l 6.19221,12.90918 c 0.74662,-0.36015 1.50447,-0.69889 2.25648,-1.04953 l -6.1922,-12.90918 z m 206.75664,19.88853 -8.4486,11.49232 c 0.69655,0.50552 1.40972,0.95465 2.09905,1.46933 l 8.39621,-11.49231 c -0.66901,-0.49848 -1.37126,-0.97888 -2.04666,-1.46934 z m -243.12274,1.9941 c -0.67947,0.51083 -1.32123,1.05524 -1.9941,1.57429 l 8.60612,11.28241 c 0.67423,-0.52083 1.3652,-1.00986 2.04657,-1.52181 l -8.65859,-11.33489 z m 259.91517,11.54479 -9.60309,10.54775 c 0.6225,0.56034 1.22165,1.16331 1.83659,1.73171 l 9.60325,-10.54774 c -0.61645,-0.56894 -1.21325,-1.1703 -1.83675,-1.73172 z m -275.50064,1.46934 c -0.62538,0.57518 -1.27098,1.14889 -1.88915,1.73172 l 9.7606,10.44279 c 0.60743,-0.57328 1.22173,-1.1664 1.83667,-1.73172 l -9.70812,-10.44279 z m 290.14162,13.11908 -10.60022,9.55069 c 0.54508,0.60018 1.08932,1.22956 1.62668,1.83668 l 10.60039,-9.5507 c -0.5434,-0.61268 -1.07623,-1.23058 -1.62685,-1.83667 z m -305.77957,2.8862 c -0.54738,0.62596 -1.08692,1.25649 -1.62676,1.88915 l 10.8626,9.28831 c 0.53875,-0.6317 1.07995,-1.26462 1.62676,-1.88915 l -10.8626,-9.28831 z m 319.10856,13.43394 -11.38745,8.55364 c 0.49336,0.67094 0.98471,1.36897 1.46934,2.04658 l 11.4924,-8.55364 c -0.50294,-0.70105 -1.0628,-1.3522 -1.57429,-2.04658 z m -331.6504,2.36144 c -0.48113,0.67347 -0.94372,1.36705 -1.41686,2.04657 l 11.70222,8.18631 c 0.47756,-0.68621 0.98301,-1.367 1.46934,-2.04658 l -11.7547,-8.1863 z m 353.74301,35.473994 -13.11925,5.667443 c 0.34274,0.765281 0.66431,1.538371 0.99714,2.308958 l 13.11908,-5.667443 c -0.33249,-0.769798 -0.65541,-1.544097 -0.99697,-2.308958 z m -374.89097,1.889147 c -0.33397,0.768623 -0.67227,1.535466 -0.99705,2.308959 l 13.17156,5.614967 c 0.32445,-0.773745 0.66273,-1.540436 0.99705,-2.308958 l -13.17156,-5.614968 z m 382.49996,17.894428 -13.64385,4.303059 c 0.26348,0.803602 0.53417,1.605625 0.78723,2.413911 l 13.64385,-4.303059 c -0.25323,-0.808656 -0.52426,-1.609604 -0.78723,-2.413911 z m -389.89912,1.941624 c -0.25333,0.80241 -0.49099,1.607254 -0.73467,2.413912 l 13.64385,4.198106 c 0.24386,-0.808421 0.48039,-1.610075 0.73466,-2.413911 l -13.64384,-4.198107 z m 395.35666,18.261763 -13.95871,2.938674 c 0.17783,0.821637 0.35751,1.640838 0.52477,2.466387 l 13.9587,-2.938674 c -0.16793,-0.825197 -0.3471,-1.644835 -0.52476,-2.466387 z m -400.49934,1.574289 c -0.1715,0.824996 -0.36322,1.637782 -0.52476,2.466388 l 13.9587,2.833722 c 0.16037,-0.825768 0.3537,-1.644466 0.52476,-2.466388 l -13.9587,-2.833722 z m 403.85782,19.258813 -14.16861,1.469337 c 0.0924,0.838815 0.18052,1.676791 0.26247,2.518864 l 14.16844,-1.521814 c -0.0806,-0.823752 -0.17212,-1.64554 -0.2623,-2.466387 z m -407.0064,0.944574 c -0.088,0.836615 -0.1845,1.679276 -0.26238,2.518864 l 14.16861,1.364384 c 0.0779,-0.840847 0.1736,-1.681224 0.26238,-2.518864 l -14.16861,-1.364384 z M 239.9113,5.7016079 225.74269,7.1184687 c 0.0774,0.837623 0.12241,1.6841963 0.2099,2.5188638 l 14.22109,-1.4168609 c -0.0885,-0.8393693 -0.1848,-1.6762702 -0.26238,-2.5188637 z m 379.29881,0 c -0.0772,0.8424256 -0.1738,1.6796623 -0.2623,2.5188637 l 14.16861,1.4693372 c 0.089,-0.8538612 0.18304,-1.7143722 0.26247,-2.5713401 L 619.21011,5.7016079 z m -376.51757,19.4162411 -13.9587,2.886198 c 0.16372,0.82738 0.35104,1.642635 0.52476,2.466388 l 13.95871,-2.886198 c -0.17371,-0.822241 -0.36171,-1.640268 -0.52477,-2.466388 z m 373.5789,0.682193 c -0.16625,0.828924 -0.34727,1.641392 -0.5246,2.466387 l 13.95854,2.886198 c 0.17649,-0.822325 0.35835,-1.640435 0.52493,-2.466387 l -13.95887,-2.886198 z m -368.80355,18.104333 -13.64385,4.250582 c 0.24872,0.810705 0.52868,1.607539 0.78715,2.413911 l 13.59137,-4.250582 c -0.25674,-0.799353 -0.48824,-1.609991 -0.73467,-2.413911 z m 363.97573,0.787145 c -0.24417,0.784945 -0.48044,1.580889 -0.7345,2.361434 l 13.59128,4.303059 c 0.25474,-0.783937 0.48916,-1.573383 0.73467,-2.361434 L 611.44362,44.69152 z m -357.15381,17.946904 -13.11908,5.614967 c 0.33523,0.786524 0.6523,1.579999 0.99705,2.361435 l 13.0666,-5.667444 c -0.33657,-0.761687 -0.61772,-1.542065 -0.94457,-2.308958 z m 350.38444,0.419811 c -0.3303,0.769882 -0.65692,1.544365 -0.99713,2.308958 l 13.06669,5.71992 c 0.34021,-0.765752 0.66599,-1.538287 0.99697,-2.308959 l -13.06653,-5.719919 z m -331.65039,33.479897 -11.70222,8.186308 c 0.48925,0.70429 0.97151,1.40124 1.46934,2.09905 l 11.70222,-8.186305 c -0.48962,-0.685114 -0.98864,-1.407222 -1.46934,-2.099053 z m 312.44406,0.892097 c -0.49336,0.701538 -0.96691,1.404519 -1.46934,2.099054 l 11.64974,8.291257 c 0.49068,-0.6791 0.9869,-1.36126 1.46934,-2.04657 l -11.64974,-8.343741 z m -300.32203,14.693371 -10.8626,9.34079 c 0.55002,0.63952 1.12148,1.25652 1.67924,1.88915 l 10.8626,-9.28831 c -0.56891,-0.64364 -1.11896,-1.29028 -1.67924,-1.94163 z m 287.15055,1.9941 c -0.55835,0.63128 -1.11283,1.26538 -1.67924,1.88915 l 10.60005,9.55069 c 0.56708,-0.62471 1.12006,-1.25743 1.67924,-1.88915 l -10.60005,-9.55069 z m -273.2968,12.54184 -9.86555,10.33784 c 0.63605,0.59983 1.29794,1.19246 1.94163,1.7842 l 9.81307,-10.44279 c -0.6212,-0.56984 -1.27557,-1.10132 -1.88915,-1.67925 z m 259.18059,1.7842 c -0.63006,0.57731 -1.25137,1.16282 -1.88915,1.73172 l 9.55069,10.60022 c 0.62821,-0.5609 1.268,-1.11076 1.88915,-1.67925 l -9.55069,-10.65269 z m -244.9595,10.28536 -8.71107,11.43984 c 0.66409,0.51301 1.32356,1.01683 1.9941,1.52181 l 8.71107,-11.43984 c -0.66814,-0.50239 -1.33285,-1.01087 -1.9941,-1.52181 z m 229.95127,2.15153 c -0.68278,0.50809 -1.35683,1.02271 -2.04666,1.52181 l 8.39621,11.54479 c 0.68866,-0.49881 1.36455,-1.01468 2.04666,-1.52181 L 543.172,140.88063 z m -195.10699,19.25881 -6.13973,12.96165 c 0.76936,0.36487 1.53436,0.74648 2.30896,1.10201 l 6.08725,-12.96166 c -0.76347,-0.34943 -1.49849,-0.74283 -2.25648,-1.102 z m 159.79042,1.52182 c -0.75046,0.33875 -1.50089,0.66778 -2.25648,0.99705 l 5.66744,13.11908 c 0.77615,-0.3382 1.53785,-0.64955 2.30896,-0.99705 l -5.71992,-13.11908 z m -140.21675,6.45458 -4.61792,13.59137 c 0.78612,0.26991 1.57102,0.52658 2.36144,0.78715 l 4.61791,-13.5389 c -0.79169,-0.26036 -1.57437,-0.56919 -2.36143,-0.83962 z m 121.64013,0.78715 c -0.80508,0.26544 -1.60412,0.5322 -2.41391,0.78714 l 4.40801,13.59137 c 0.81047,-0.25593 1.60784,-0.52144 2.41391,-0.78714 l -4.40801,-13.59137 z m -102.6437,4.67039 -3.14858,14.01118 c 0.82575,0.18991 1.63684,0.34488 2.46639,0.52476 l 3.14858,-13.9587 c -0.8259,-0.17859 -1.64454,-0.38799 -2.46639,-0.57724 z m 83.22746,0.62972 c -0.57765,0.12443 -1.15213,0.24817 -1.73172,0.36733 -0.042,0.008 -0.063,-0.008 -0.10496,0 -0.1903,0.0895 -0.38622,0.17424 -0.57723,0.26238 l 2.93867,13.85375 c 0.82409,-0.16674 1.64593,-0.34809 2.46639,-0.52476 l -2.99115,-13.9587 z m -63.75874,5.82487 -1.31191,11.22993 c 0.82122,0.0991 1.64221,0.22559 2.46639,0.31486 l 1.31191,-10.91507 c -0.82559,-0.19738 -1.64973,-0.40984 -2.46639,-0.62972 z m 43.60783,0.83962 c -0.83304,0.18986 -1.67725,0.35808 -2.51887,0.52476 l 1.04953,10.49527 c 0.83803,-0.0759 1.68378,-0.12393 2.51886,-0.20991 l -1.04952,-10.81012 z"
         id="path3925" />
      <path
         inkscape:transform-center-y="5.2927507"
         inkscape:transform-center-x="-5.2253232"
         sodipodi:nodetypes="cccc"
         inkscape:connector-curvature="0"
         id="path3932-5-74-3"
         d="m 240.03425,-15.83285 7.5275,2.91037 -7.4645,3.06853 z"
         style="fill:#000000;fill-opacity:1;stroke:#000000;stroke-width:1px;stroke-linecap:butt;stroke-linejoin:miter;stroke-opacity:1" />
      <path
         inkscape:transform-center-y="11.296373"
         inkscape:transform-center-x="-2.7264098"
         sodipodi:nodetypes="cccc"
         inkscape:connector-curvature="0"
         id="path3932-5-74-3-3"
         d="m 264.87785,-105.91012 5.058,6.28879 -7.9978,-1.08207 z"
         style="fill:#000000;fill-opacity:1;stroke:#000000;stroke-width:1px;stroke-linecap:butt;stroke-linejoin:miter;stroke-opacity:1" />
      <path
         inkscape:transform-center-y="-2.2890499"
         inkscape:transform-center-x="-0.79485242"
         sodipodi:nodetypes="cccc"
         inkscape:connector-curvature="0"
         id="path3932-5-74-3-6"
         d="m 262.61705,77.58365 8.0015,-1.05302 -5.081,6.27044 z"
         style="fill:#000000;fill-opacity:1;stroke:#000000;stroke-width:1px;stroke-linecap:butt;stroke-linejoin:miter;stroke-opacity:1" />
      <path
         inkscape:transform-center-y="-2.4776827"
         inkscape:transform-center-x="1.4110867"
         sodipodi:nodetypes="cccc"
         inkscape:connector-curvature="0"
         id="path3932-5-74-3-60"
         d="m 329.53725,149.03055 6.4415,-4.86217 -1.3277,7.96064 z"
         style="fill:#000000;fill-opacity:1;stroke:#000000;stroke-width:1px;stroke-linecap:butt;stroke-linejoin:miter;stroke-opacity:1" />
      <path
         inkscape:transform-center-y="2.6616526"
         inkscape:transform-center-x="1.1668065"
         sodipodi:nodetypes="cccc"
         inkscape:connector-curvature="0"
         id="path3932-5-74-3-2"
         d="m 334.49175,-175.98772 1.3749,7.95254 -6.4702,-4.82385 z"
         style="fill:#000000;fill-opacity:1;stroke:#000000;stroke-width:1px;stroke-linecap:butt;stroke-linejoin:miter;stroke-opacity:1" />
      <path
         inkscape:transform-center-y="3.623823"
         inkscape:transform-center-x="3.5819888"
         sodipodi:nodetypes="cccc"
         inkscape:connector-curvature="0"
         id="path3932-5-74-3-2-4"
         d="m 430.98535,-201.49654 -2.8597,7.5469 -3.1187,-7.4436 z"
         style="fill:#000000;fill-opacity:1;stroke:#000000;stroke-width:1px;stroke-linecap:butt;stroke-linejoin:miter;stroke-opacity:1" />
      <path
         inkscape:transform-center-y="0.79332045"
         inkscape:transform-center-x="4.157665"
         sodipodi:nodetypes="cccc"
         inkscape:connector-curvature="0"
         id="path3932-5-74-3-2-6"
         d="m 527.54615,-174.21126 -6.387,4.9336 1.2389,-7.97484 z"
         style="fill:#000000;fill-opacity:1;stroke:#000000;stroke-width:1px;stroke-linecap:butt;stroke-linejoin:miter;stroke-opacity:1" />
      <path
         inkscape:transform-center-y="-2.001276"
         inkscape:transform-center-x="4.4659886"
         sodipodi:nodetypes="cccc"
         inkscape:connector-curvature="0"
         id="path3932-5-74-3-2-42"
         d="m 595.73525,-103.36527 -7.9629,1.31304 4.874,-6.43251 z"
         style="fill:#000000;fill-opacity:1;stroke:#000000;stroke-width:1px;stroke-linecap:butt;stroke-linejoin:miter;stroke-opacity:1" />
      <path
         inkscape:transform-center-y="-1.9098075"
         inkscape:transform-center-x="2.4900949"
         sodipodi:nodetypes="cccc"
         inkscape:connector-curvature="0"
         id="path3932-5-74-3-2-2"
         d="m 619.12365,-9.88501 -7.4829,-3.02329 7.5098,-2.95585 z"
         style="fill:#000000;fill-opacity:1;stroke:#000000;stroke-width:1px;stroke-linecap:butt;stroke-linejoin:miter;stroke-opacity:1" />
      <path
         inkscape:transform-center-y="-2.2386016"
         inkscape:transform-center-x="0.58541035"
         sodipodi:nodetypes="cccc"
         inkscape:connector-curvature="0"
         id="path3932-5-74-3-2-49"
         d="m 592.80105,84.38946 -5.0629,-6.28495 7.9984,1.076 z"
         style="fill:#000000;fill-opacity:1;stroke:#000000;stroke-width:1px;stroke-linecap:butt;stroke-linejoin:miter;stroke-opacity:1" />
      <path
         inkscape:transform-center-y="-2.6315646"
         inkscape:transform-center-x="-1.4532036"
         sodipodi:nodetypes="cccc"
         inkscape:connector-curvature="0"
         id="path3932-5-74-3-2-3"
         d="m 522.01825,153.15307 -1.2436,-7.97413 6.3898,4.92989 z"
         style="fill:#000000;fill-opacity:1;stroke:#000000;stroke-width:1px;stroke-linecap:butt;stroke-linejoin:miter;stroke-opacity:1" />
      <path
         inkscape:connector-curvature="0"
         style="font-size:medium;font-style:normal;font-variant:normal;font-weight:normal;font-stretch:normal;text-indent:0;text-align:start;text-decoration:none;line-height:normal;letter-spacing:normal;word-spacing:normal;text-transform:none;direction:ltr;block-progression:tb;writing-mode:lr-tb;text-anchor:start;baseline-shift:baseline;color:#000000;fill:#000000;fill-opacity:1;stroke:none;stroke-width:4;marker:none;visibility:visible;display:inline;overflow:visible;enable-background:accumulate;font-family:Sans;-inkscape-font-specification:Sans"
         d="m 429.56075,-217.21783 c -1.68353,0 -3.36391,0.0118 -5.03773,0.0524 l 0.0524,15.27061 c 1.66427,-0.043 3.31059,-0.0524 4.98525,-0.0524 0.58168,0 1.15127,-0.005 1.73172,0 l -0.0524,-15.27061 c -0.56006,-0.005 -1.11812,0 -1.67924,0 z m 100.80702,26.39559 -7.92401,13.11908 c 1.97177,1.10713 3.89753,2.23632 5.82496,3.41096 l 7.87145,-13.11908 c -1.9093,-1.16247 -3.8228,-2.30973 -5.7724,-3.41096 z m -203.55567,1.102 c -1.94146,1.12462 -3.81941,2.33017 -5.71992,3.51592 l 7.76649,13.11908 c 1.89442,-1.18676 3.78141,-2.34244 5.71992,-3.46344 l -7.76649,-13.17156 z m 279.38388,73.152 -13.38138,7.39917 c 1.15096,1.92941 2.27471,3.85198 3.35849,5.82487 l 13.32899,-7.39916 c -1.0759,-1.95599 -2.16891,-3.90842 -3.3061,-5.82488 z m -354.89732,2.78125 c -1.11858,1.9547 -2.1981,3.93547 -3.25353,5.92982 l 13.38146,7.34669 c 1.05626,-2.0024 2.1811,-3.97057 3.30601,-5.92983 l -13.43394,-7.34668 z m -26.92036,97.658445 c -0.0274,1.378894 -0.0524,2.760188 -0.0524,4.14563 0,0.859218 -0.0101,1.714624 0,2.5713404 l 15.32309,0.052392 c -0.0118,-0.8718288 -0.0524,-1.7491828 -0.0524,-2.6238168 0,-1.375064 0.0233,-2.725074 0.0524,-4.093153 l -15.27061,-0.05239 z m 395.09428,0 c 0.0302,1.385527 0.0521,2.752934 0.0521,4.14563 0,0.857136 -0.042,1.716891 -0.0521,2.5713404 l 15.27053,0.157345 c 0.0168,-0.9091754 0.0521,-1.8167724 0.0521,-2.7287694 0,-1.332831 -0.0269,-2.661414 -0.0521,-3.988201 l -15.27053,-0.157345 z m -357.52123,93.565293 -13.22403,7.714021 c 1.06491,1.978366 2.17875,3.938613 3.30601,5.877348 l 13.17156,-7.661543 c -1.13201,-1.947502 -2.18957,-3.939151 -3.25354,-5.929826 z m 334.37908,1.679243 c -1.08076,1.975058 -2.21022,3.89324 -3.35848,5.824872 l 13.27659,7.504115 c 1.13987,-1.924596 2.28041,-3.860477 3.35849,-5.824872 l -13.2766,-7.504115 z m -267.20938,70.160849 -7.87144,13.11908 c 1.90683,1.18691 3.82444,2.33803 5.77239,3.46344 l 7.87145,-13.11908 c -1.94384,-1.1192 -3.87272,-2.27818 -5.7724,-3.46344 z m 198.67547,1.31191 c -1.91115,1.15683 -3.8181,2.32039 -5.77257,3.41096 l 7.60915,13.22404 c 1.95834,-1.09589 3.90676,-2.20094 5.82479,-3.35849 l -7.66137,-13.27651 z m -102.80121,31.90561 -0.0524,10.70517 c 1.53512,0.0339 3.07466,0.0524 4.61792,0.0524 0.7014,0 1.39931,0.007 2.09905,0 l 0,-10.65269 c -0.70268,0.0168 -1.39229,0.0524 -2.09905,0.0524 -1.53765,0 -3.04754,-0.0811 -4.56544,-0.15735 z"
         id="path4071" />
      <path
         inkscape:connector-curvature="0"
         style="font-size:medium;font-style:normal;font-variant:normal;font-weight:normal;font-stretch:normal;text-indent:0;text-align:start;text-decoration:none;line-height:normal;letter-spacing:normal;word-spacing:normal;text-transform:none;direction:ltr;block-progression:tb;writing-mode:lr-tb;text-anchor:start;baseline-shift:baseline;color:#000000;fill:#800000;fill-opacity:1;stroke:none;stroke-width:1px;marker:none;visibility:visible;display:inline;overflow:visible;enable-background:accumulate;font-family:Sans;-inkscape-font-specification:Sans"
         d="m 445.88088,4.442176 -1.94162,9.393263 c 0.5612,0.10193 1.12217,0.201274 1.67924,0.314858 l 1.94163,-9.393263 c -0.55664,-0.1135168 -1.1189,-0.2117357 -1.67925,-0.314858 z m -34.89675,0.4198106 c -0.54319,0.1145244 -1.08728,0.2430704 -1.62677,0.3673343 l 2.04658,9.3932631 c 0.54686,-0.126783 1.07567,-0.251786 1.62676,-0.367335 l -2.04657,-9.3932624 z m 52.89614,4.9327749 -3.93573,8.7110705 c 0.52821,0.217076 1.05183,0.454218 1.57429,0.682192 l 3.93572,-8.71107 c -0.5256,-0.229939 -1.04348,-0.462094 -1.57428,-0.6821925 z M 393.0897,10.686859 c -0.50643,0.22569 -1.02041,0.447434 -1.52182,0.682192 l 3.98821,8.763547 c 0.50444,-0.237193 1.01167,-0.455293 1.52181,-0.682192 l -3.9882,-8.763547 z m 87.00575,7.818973 -5.71992,7.766497 c 0.46745,0.316637 0.90405,0.670857 1.36439,0.99705 l 5.66744,-7.766497 c -0.44618,-0.31694 -0.85972,-0.68812 -1.31191,-0.99705 z m -102.95856,1.364384 c -0.44429,0.320837 -0.87379,0.668322 -1.3119,0.997051 l 5.71992,7.661544 c 0.45442,-0.341474 0.90252,-0.665098 1.36438,-0.997051 l -5.7724,-7.661544 z m 117.02222,10.600219 c -1.37881,1.200406 -2.53914,2.227632 -4.30306,3.778295 -0.79855,0.701991 -1.94574,1.737412 -2.8862,2.57134 0.39469,0.406226 0.7684,0.844928 1.15448,1.259432 0.93247,-0.824625 2.08894,-1.870491 2.8862,-2.57134 1.76933,-1.555365 2.93929,-2.582205 4.30306,-3.778295 -0.38636,-0.417259 -0.76033,-0.849596 -1.15448,-1.259432 z m -130.40368,1.311908 c -0.37823,0.409299 -0.78385,0.790638 -1.15448,1.206956 l 7.18926,6.349635 c 0.3782,-0.424328 0.76745,-0.843282 1.15448,-1.259432 l -7.18926,-6.297159 z m 149.92487,29.911507 -9.13088,2.886198 c 0.19315,0.517056 0.34208,1.05223 0.52476,1.57429 l 9.18328,-2.886198 c -0.18321,-0.529868 -0.38438,-1.048989 -0.57716,-1.57429 z m -168.29158,0.104953 c -0.19191,0.525267 -0.39494,1.044472 -0.57724,1.574289 l 9.13088,2.991151 c 0.18275,-0.527584 0.38382,-1.051777 0.57724,-1.57429 l -9.13088,-2.99115 z m -4.51297,18.104333 c -0.0794,0.562345 -0.19345,1.11359 -0.26238,1.679242 l 9.55069,1.049527 c 0.0699,-0.564343 0.18089,-1.118594 0.26238,-1.679243 l -9.55069,-1.049526 z m 177.42247,0.157345 -9.55069,0.99705 c 0.0781,0.541455 0.14273,1.081869 0.2099,1.626766 l 9.55069,-0.944574 c -0.0672,-0.563705 -0.13098,-1.118812 -0.2099,-1.679242 z m -168.65892,16.110233 -9.55069,0.734668 c 0.0269,0.561354 0.0678,1.120643 0.10495,1.679243 l 9.55069,-0.734669 c -0.0366,-0.557424 -0.0798,-1.118745 -0.10495,-1.679242 z m 159.79042,1.41686 c -0.0349,0.558433 -0.11117,1.123968 -0.15735,1.679243 l 9.55061,0.997053 c 0.047,-0.55642 0.0672,-1.119974 0.10411,-1.679245 l -9.49737,-0.996967 z m -157.27156,15.375646 -9.18335,2.72877 c 0.14139,0.53068 0.3215,1.04756 0.47228,1.57429 l 9.18336,-2.72877 c -0.1508,-0.5282 -0.33215,-1.04168 -0.47229,-1.57429 z m 154.49031,1.04953 c -0.1518,0.54592 -0.30918,1.08561 -0.47228,1.62677 l 9.18335,2.83372 c 0.15617,-0.51912 0.27238,-1.05124 0.41981,-1.57429 l -9.13088,-2.8862 z m -140.11179,27.81245 -7.34669,6.19221 c 0.34781,0.44055 0.69368,0.87811 1.04953,1.31191 l 7.34668,-6.19221 c -0.35346,-0.43242 -0.70499,-0.87201 -1.04952,-1.31191 z m 124.05404,2.41391 c -0.38996,0.45983 -0.75442,0.91356 -1.15448,1.36439 l 7.18925,6.34963 c 0.38532,-0.4344 0.77754,-0.87001 1.15448,-1.3119 l -7.18925,-6.40212 z m -111.93201,10.02298 -5.82487,7.66155 c 0.43739,0.35816 0.86766,0.69954 1.3119,1.04952 l 5.82488,-7.66154 c -0.43456,-0.34378 -0.88473,-0.69699 -1.31191,-1.04953 z m 99.44264,1.88915 c -0.4342,0.33179 -0.87079,0.67401 -1.31191,0.99705 l 5.71992,7.71402 c 0.43316,-0.31738 0.83223,-0.67213 1.25943,-0.99705 l -5.66744,-7.71402 z m -84.69679,7.7665 -4.09316,8.65859 c 0.49857,0.25096 0.9655,0.54527 1.46934,0.78715 l 4.09315,-8.71107 c -0.49153,-0.23683 -0.98344,-0.48816 -1.46933,-0.73467 z m 69.3737,1.41686 c -0.50139,0.22916 -1.01495,0.46313 -1.52181,0.68219 l 3.88325,8.76355 c 0.51502,-0.22289 1.01184,-0.44999 1.52181,-0.6822 l -3.88325,-8.76354 z m -53.21099,4.67039 -1.9941,9.44574 c 0.51891,0.13081 1.05181,0.24566 1.57428,0.36733 l 1.99411,-9.44573 c -0.52944,-0.12477 -1.04898,-0.23219 -1.57429,-0.36734 z m 36.10371,0.8921 c -0.52214,0.1068 -1.0485,0.21827 -1.57429,0.31486 l 2.04658,9.39326 c 0.54326,-0.10159 1.08699,-0.20344 1.62676,-0.31486 l -2.04657,-9.39326 c -0.0168,0.003 -0.0358,-0.003 -0.0524,0 z"
         id="path4096" />
      <path
         inkscape:connector-curvature="0"
         style="font-size:medium;font-style:normal;font-variant:normal;font-weight:normal;font-stretch:normal;text-indent:0;text-align:start;text-decoration:none;line-height:normal;letter-spacing:normal;word-spacing:normal;text-transform:none;direction:ltr;block-progression:tb;writing-mode:lr-tb;text-anchor:start;baseline-shift:baseline;color:#000000;fill:#000000;fill-opacity:1;stroke:none;stroke-width:3;marker:none;visibility:visible;display:inline;overflow:visible;enable-background:accumulate;font-family:Sans;-inkscape-font-specification:Sans"
         d="m 429.56075,2.4480755 c -1.30803,0 -2.58882,0.049874 -3.88325,0.1049527 l 0.10495,10.6002178 c 1.25235,-0.05861 2.51143,-0.104952 3.7783,-0.104952 0.42244,0 0.83856,0.04584 1.25943,0.05239 L 430.71523,2.5004679 c -0.38788,-0.00504 -0.76545,-0.052392 -1.15448,-0.052392 z m 75.93324,41.6137285 -9.23583,5.247633 c 0.913,1.405777 1.79914,2.837802 2.62382,4.303058 l 9.23583,-5.247632 c -0.82876,-1.47095 -1.7163,-2.884872 -2.62382,-4.303059 z m -151.97144,0.209905 c -0.90412,1.421009 -1.79862,2.829423 -2.62382,4.303059 l 9.28831,5.195156 c 0.82448,-1.47194 1.65783,-2.943342 2.57134,-4.355535 l -9.23583,-5.14268 z m 4.25058,82.492791 -9.34079,5.0902 c 0.73089,1.50511 1.55065,3.00364 2.36144,4.46049 l 9.34078,-5.09021 c -0.81884,-1.46698 -1.63469,-2.9381 -2.36143,-4.46048 z m 142.63066,1.88914 c -0.76884,1.50571 -1.5538,3.01223 -2.41391,4.46049 l 9.0784,5.30011 c 0.86209,-1.45394 1.73772,-2.90289 2.51887,-4.40801 l -9.18336,-5.35259 z m -74.62134,43.29298 0,10.60021 c 1.25984,0.0522 2.5056,0.10496 3.7783,0.10496 0.42436,0 0.83646,-0.0467 1.25943,-0.0524 l 0,-10.60021 c -0.42087,0.007 -0.83699,0.0524 -1.25943,0.0524 -1.26687,0 -2.52595,-0.0463 -3.7783,-0.10495 z"
         id="path96" />
      <path
         inkscape:transform-center-y="-2.7543883"
         inkscape:transform-center-x="-0.39827362"
         sodipodi:nodetypes="cccc"
         inkscape:connector-curvature="0"
         id="path3932-5-74-3-60-9"
         d="m 358.22635,127.05168 5.5192,-0.59254 -3.5967,4.22816 z"
         style="fill:#000000;fill-opacity:1;stroke:#000000;stroke-width:0.68781453px;stroke-linecap:butt;stroke-linejoin:miter;stroke-opacity:1" />
      <path
         inkscape:transform-center-y="-1.8617587"
         inkscape:transform-center-x="1.5421877"
         sodipodi:nodetypes="cccc"
         inkscape:connector-curvature="0"
         id="path3932-5-74-3-60-9-5"
         d="m 426.24495,171.6772 2.1523,-5.11661 1.9595,5.19362 z"
         style="fill:#000000;fill-opacity:1;stroke:#000000;stroke-width:0.68781453px;stroke-linecap:butt;stroke-linejoin:miter;stroke-opacity:1" />
      <path
         inkscape:transform-center-y="1.5863687"
         inkscape:transform-center-x="-0.32979589"
         sodipodi:nodetypes="cccc"
         inkscape:connector-curvature="0"
         id="path3932-5-74-3-60-9-8"
         d="m 362.70815,49.94759 3.4099,4.38011 -5.4884,-0.83137 z"
         style="fill:#000000;fill-opacity:1;stroke:#000000;stroke-width:0.68781453px;stroke-linecap:butt;stroke-linejoin:miter;stroke-opacity:1" />
      <path
         inkscape:transform-center-y="1.8225432"
         sodipodi:nodetypes="cccc"
         inkscape:connector-curvature="0"
         id="path3932-5-74-3-60-9-2"
         d="m 430.33945,13.39265 -2.0138,5.17276 -2.0987,-5.13901 z"
         style="fill:#000000;fill-opacity:1;stroke:#000000;stroke-width:0.68781453px;stroke-linecap:butt;stroke-linejoin:miter;stroke-opacity:1"
         inkscape:transform-center-x="1.5118722" />
      <path
         inkscape:transform-center-y="1.7012656"
         inkscape:transform-center-x="0.36112948"
         sodipodi:nodetypes="cccc"
         inkscape:connector-curvature="0"
         id="path3932-5-74-3-60-9-9"
         d="m 498.39535,53.38818 -5.4704,0.94203 3.3207,-4.44815 z"
         style="fill:#000000;fill-opacity:1;stroke:#000000;stroke-width:0.68781453px;stroke-linecap:butt;stroke-linejoin:miter;stroke-opacity:1" />
      <path
         inkscape:transform-center-y="1.0109485"
         inkscape:transform-center-x="1.8012765"
         sodipodi:nodetypes="cccc"
         inkscape:connector-curvature="0"
         id="path3932-5-74-3-60-9-6"
         d="m 497.96165,132.54678 -3.5499,-4.26741 5.5124,0.65323 z"
         style="fill:#000000;fill-opacity:1;stroke:#000000;stroke-width:0.68781453px;stroke-linecap:butt;stroke-linejoin:miter;stroke-opacity:1" />
      <text
         sodipodi:linespacing="125%"
         id="text3899-9-9-0-4"
         y="-80.569359"
         x="267.91986"
         style="font-size:44.49687958px;font-style:normal;font-variant:normal;font-weight:normal;font-stretch:normal;text-align:start;line-height:125%;letter-spacing:0px;word-spacing:0px;writing-mode:lr-tb;text-anchor:start;fill:#000000;fill-opacity:1;stroke:none;font-family:AlMohanad;-inkscape-font-specification:AlMohanad"
         xml:space="preserve"><tspan
           style="font-size:44.49687958px;font-style:normal;font-variant:normal;font-weight:normal;font-stretch:normal;text-align:start;line-height:125%;writing-mode:lr-tb;text-anchor:start;fill:#000000;font-family:AlMohanad;-inkscape-font-specification:AlMohanad"
           y="-80.569359"
           x="267.91986"
           id="tspan3901-0-3-8-3"
           sodipodi:role="line"
           dx="0 -5.6974301">10</tspan></text>
      <text
         sodipodi:linespacing="125%"
         id="text3899-9-9-0-4-5"
         y="-137.54366"
         x="315.62518"
         style="font-size:44.49687958px;font-style:normal;font-variant:normal;font-weight:normal;font-stretch:normal;text-align:start;line-height:125%;letter-spacing:0px;word-spacing:0px;writing-mode:lr-tb;text-anchor:start;fill:#000000;fill-opacity:1;stroke:none;font-family:AlMohanad;-inkscape-font-specification:AlMohanad"
         xml:space="preserve"><tspan
           style="font-size:44.49687958px;font-style:normal;font-variant:normal;font-weight:normal;font-stretch:normal;text-align:start;line-height:125%;writing-mode:lr-tb;text-anchor:start;fill:#000000;font-family:AlMohanad;-inkscape-font-specification:AlMohanad"
           y="-137.54366"
           x="315.62518"
           id="tspan3901-0-3-8-3-3"
           sodipodi:role="line"
           dx="0 -7.4966187">11</tspan></text>
      <text
         sodipodi:linespacing="125%"
         id="text3899-9-9-0-4-5-2"
         y="-161.02606"
         x="405.54584"
         style="font-size:44.49687958px;font-style:normal;font-variant:normal;font-weight:normal;font-stretch:normal;text-align:start;line-height:125%;letter-spacing:0px;word-spacing:0px;writing-mode:lr-tb;text-anchor:start;fill:#000000;fill-opacity:1;stroke:none;font-family:AlMohanad;-inkscape-font-specification:AlMohanad"
         xml:space="preserve"><tspan
           style="font-size:44.49687958px;font-style:normal;font-variant:normal;font-weight:normal;font-stretch:normal;text-align:start;line-height:125%;writing-mode:lr-tb;text-anchor:start;fill:#000000;font-family:AlMohanad;-inkscape-font-specification:AlMohanad"
           y="-161.02606"
           x="405.54584"
           id="tspan3901-0-3-8-3-3-8"
           sodipodi:role="line"
           dx="0 -4.4979711">12</tspan></text>
      <text
         sodipodi:linespacing="125%"
         id="text3899-9-9-0-4-5-9"
         y="-137.54366"
         x="506.00067"
         style="font-size:44.49687958px;font-style:normal;font-variant:normal;font-weight:normal;font-stretch:normal;text-align:start;line-height:125%;letter-spacing:0px;word-spacing:0px;writing-mode:lr-tb;text-anchor:start;fill:#000000;fill-opacity:1;stroke:none;font-family:AlMohanad;-inkscape-font-specification:AlMohanad"
         xml:space="preserve"><tspan
           style="font-size:44.49687958px;font-style:normal;font-variant:normal;font-weight:normal;font-stretch:normal;text-align:start;line-height:125%;writing-mode:lr-tb;text-anchor:start;fill:#000000;font-family:AlMohanad;-inkscape-font-specification:AlMohanad"
           y="-137.54366"
           x="506.00067"
           id="tspan3901-0-3-8-3-3-6"
           sodipodi:role="line"
           dx="0">1</tspan></text>
      <text
         sodipodi:linespacing="125%"
         id="text3899-9-9-0-4-5-2-2"
         y="-79.555809"
         x="567.12518"
         style="font-size:44.49687958px;font-style:normal;font-variant:normal;font-weight:normal;font-stretch:normal;text-align:start;line-height:125%;letter-spacing:0px;word-spacing:0px;writing-mode:lr-tb;text-anchor:start;fill:#000000;fill-opacity:1;stroke:none;font-family:AlMohanad;-inkscape-font-specification:AlMohanad"
         xml:space="preserve"><tspan
           style="font-size:44.49687958px;font-style:normal;font-variant:normal;font-weight:normal;font-stretch:normal;text-align:start;line-height:125%;writing-mode:lr-tb;text-anchor:start;fill:#000000;font-family:AlMohanad;-inkscape-font-specification:AlMohanad"
           y="-79.555809"
           x="567.12518"
           id="tspan3901-0-3-8-3-3-8-7"
           sodipodi:role="line"
           dx="-4.4979711">2</tspan></text>
      <text
         sodipodi:linespacing="125%"
         id="text3899-9-9-0-4-5-2-3"
         y="3.2998149"
         x="589.91498"
         style="font-size:44.49687958px;font-style:normal;font-variant:normal;font-weight:normal;font-stretch:normal;text-align:start;line-height:125%;letter-spacing:0px;word-spacing:0px;writing-mode:lr-tb;text-anchor:start;fill:#000000;fill-opacity:1;stroke:none;font-family:AlMohanad;-inkscape-font-specification:AlMohanad"
         xml:space="preserve"><tspan
           style="font-size:44.49687958px;font-style:normal;font-variant:normal;font-weight:normal;font-stretch:normal;text-align:start;line-height:125%;writing-mode:lr-tb;text-anchor:start;fill:#000000;font-family:AlMohanad;-inkscape-font-specification:AlMohanad"
           y="3.2998149"
           x="589.91498"
           id="tspan3901-0-3-8-3-3-8-8"
           sodipodi:role="line">3</tspan></text>
      <text
         sodipodi:linespacing="125%"
         id="text3899-9-9-0-4-5-2-3-2"
         y="3.2998149"
         x="246.37215"
         style="font-size:44.49687958px;font-style:normal;font-variant:normal;font-weight:normal;font-stretch:normal;text-align:start;line-height:125%;letter-spacing:0px;word-spacing:0px;writing-mode:lr-tb;text-anchor:start;fill:#000000;fill-opacity:1;stroke:none;font-family:AlMohanad;-inkscape-font-specification:AlMohanad"
         xml:space="preserve"><tspan
           style="font-size:44.49687958px;font-style:normal;font-variant:normal;font-weight:normal;font-stretch:normal;text-align:start;line-height:125%;writing-mode:lr-tb;text-anchor:start;fill:#000000;font-family:AlMohanad;-inkscape-font-specification:AlMohanad"
           y="3.2998149"
           x="246.37215"
           id="tspan3901-0-3-8-3-3-8-8-4"
           sodipodi:role="line">9</tspan></text>
      <text
         sodipodi:linespacing="125%"
         id="text3899-9-9-0-4-5-2-3-7"
         y="86.455299"
         x="562.6806"
         style="font-size:44.49687958px;font-style:normal;font-variant:normal;font-weight:normal;font-stretch:normal;text-align:start;line-height:125%;letter-spacing:0px;word-spacing:0px;writing-mode:lr-tb;text-anchor:start;fill:#000000;fill-opacity:1;stroke:none;font-family:AlMohanad;-inkscape-font-specification:AlMohanad"
         xml:space="preserve"><tspan
           style="font-size:44.49687958px;font-style:normal;font-variant:normal;font-weight:normal;font-stretch:normal;text-align:start;line-height:125%;writing-mode:lr-tb;text-anchor:start;fill:#000000;font-family:AlMohanad;-inkscape-font-specification:AlMohanad"
           y="86.455299"
           x="562.6806"
           id="tspan3901-0-3-8-3-3-8-8-1"
           sodipodi:role="line">4</tspan></text>
      <text
         sodipodi:linespacing="125%"
         id="text3899-9-9-0-4-5-2-3-70"
         y="85.44175"
         x="270.31256"
         style="font-size:44.49687958px;font-style:normal;font-variant:normal;font-weight:normal;font-stretch:normal;text-align:start;line-height:125%;letter-spacing:0px;word-spacing:0px;writing-mode:lr-tb;text-anchor:start;fill:#000000;fill-opacity:1;stroke:none;font-family:AlMohanad;-inkscape-font-specification:AlMohanad"
         xml:space="preserve"><tspan
           style="font-size:44.49687958px;font-style:normal;font-variant:normal;font-weight:normal;font-stretch:normal;text-align:start;line-height:125%;writing-mode:lr-tb;text-anchor:start;fill:#000000;font-family:AlMohanad;-inkscape-font-specification:AlMohanad"
           y="85.44175"
           x="270.31256"
           id="tspan3901-0-3-8-3-3-8-8-9"
           sodipodi:role="line">8</tspan></text>
      <text
         sodipodi:linespacing="125%"
         id="text3899-9-9-0-4-5-2-4"
         y="39.883312"
         x="409.73834"
         style="font-size:33.08464432px;font-style:normal;font-variant:normal;font-weight:normal;font-stretch:normal;text-align:start;line-height:125%;letter-spacing:0px;word-spacing:0px;writing-mode:lr-tb;text-anchor:start;fill:#000000;fill-opacity:1;stroke:none;font-family:AlMohanad;-inkscape-font-specification:AlMohanad"
         xml:space="preserve"><tspan
           style="font-size:33.08464432px;font-style:normal;font-variant:normal;font-weight:normal;font-stretch:normal;text-align:start;line-height:125%;writing-mode:lr-tb;text-anchor:start;fill:#000000;font-family:AlMohanad;-inkscape-font-specification:AlMohanad"
           y="39.883312"
           x="409.73834"
           id="tspan3901-0-3-8-3-3-8-3"
           sodipodi:role="line">30</tspan></text>
      <text
         sodipodi:linespacing="125%"
         id="text3899-9-9-0-4-5-2-4-9"
         y="70.842384"
         x="363.60455"
         style="font-size:33.08464432px;font-style:normal;font-variant:normal;font-weight:normal;font-stretch:normal;text-align:start;line-height:125%;letter-spacing:0px;word-spacing:0px;writing-mode:lr-tb;text-anchor:start;fill:#000000;fill-opacity:1;stroke:none;font-family:AlMohanad;-inkscape-font-specification:AlMohanad"
         xml:space="preserve"><tspan
           style="font-size:33.08464432px;font-style:normal;font-variant:normal;font-weight:normal;font-stretch:normal;text-align:start;line-height:125%;writing-mode:lr-tb;text-anchor:start;fill:#000000;font-family:AlMohanad;-inkscape-font-specification:AlMohanad"
           y="70.842384"
           x="363.60455"
           id="tspan3901-0-3-8-3-3-8-3-4"
           sodipodi:role="line">25</tspan></text>
      <text
         sodipodi:linespacing="125%"
         id="text3899-9-9-0-4-5-2-4-6"
         y="70.842384"
         x="475.60394"
         style="font-size:33.08464432px;font-style:normal;font-variant:normal;font-weight:normal;font-stretch:normal;text-align:start;line-height:125%;letter-spacing:0px;word-spacing:0px;writing-mode:lr-tb;text-anchor:start;fill:#000000;fill-opacity:1;stroke:none;font-family:AlMohanad;-inkscape-font-specification:AlMohanad"
         xml:space="preserve"><tspan
           style="font-size:33.08464432px;font-style:normal;font-variant:normal;font-weight:normal;font-stretch:normal;text-align:start;line-height:125%;writing-mode:lr-tb;text-anchor:start;fill:#000000;font-family:AlMohanad;-inkscape-font-specification:AlMohanad"
           y="70.842384"
           x="475.60394"
           id="tspan3901-0-3-8-3-3-8-3-3"
           sodipodi:role="line">5</tspan></text>
      <text
         sodipodi:linespacing="125%"
         id="text3899-9-9-0-4-5-2-4-3"
         y="130.06566"
         x="461.57037"
         style="font-size:33.08464432px;font-style:normal;font-variant:normal;font-weight:normal;font-stretch:normal;text-align:start;line-height:125%;letter-spacing:0px;word-spacing:0px;writing-mode:lr-tb;text-anchor:start;fill:#000000;fill-opacity:1;stroke:none;font-family:AlMohanad;-inkscape-font-specification:AlMohanad"
         xml:space="preserve"><tspan
           style="font-size:33.08464432px;font-style:normal;font-variant:normal;font-weight:normal;font-stretch:normal;text-align:start;line-height:125%;writing-mode:lr-tb;text-anchor:start;fill:#000000;font-family:AlMohanad;-inkscape-font-specification:AlMohanad"
           y="130.06566"
           x="461.57037"
           id="tspan3901-0-3-8-3-3-8-3-34"
           sodipodi:role="line"
           dx="0 -3.598377">10</tspan></text>
      <text
         sodipodi:linespacing="125%"
         id="text3899-9-9-0-4-5-2-4-1"
         y="162.75093"
         x="409.78363"
         style="font-size:33.08464432px;font-style:normal;font-variant:normal;font-weight:normal;font-stretch:normal;text-align:start;line-height:125%;letter-spacing:0px;word-spacing:0px;writing-mode:lr-tb;text-anchor:start;fill:#000000;fill-opacity:1;stroke:none;font-family:AlMohanad;-inkscape-font-specification:AlMohanad"
         xml:space="preserve"><tspan
           style="font-size:33.08464432px;font-style:normal;font-variant:normal;font-weight:normal;font-stretch:normal;text-align:start;line-height:125%;writing-mode:lr-tb;text-anchor:start;fill:#000000;font-family:AlMohanad;-inkscape-font-specification:AlMohanad"
           y="162.75093"
           x="409.78363"
           id="tspan3901-0-3-8-3-3-8-3-6"
           sodipodi:role="line"
           dx="0 -3.4484444">15</tspan></text>
      <text
         sodipodi:linespacing="125%"
         id="text3899-9-9-0-4-5-2-4-2"
         y="130.06566"
         x="363.90436"
         style="font-size:33.08464432px;font-style:normal;font-variant:normal;font-weight:normal;font-stretch:normal;text-align:start;line-height:125%;letter-spacing:0px;word-spacing:0px;writing-mode:lr-tb;text-anchor:start;fill:#000000;fill-opacity:1;stroke:none;font-family:AlMohanad;-inkscape-font-specification:AlMohanad"
         xml:space="preserve"><tspan
           style="font-size:33.08464432px;font-style:normal;font-variant:normal;font-weight:normal;font-stretch:normal;text-align:start;line-height:125%;writing-mode:lr-tb;text-anchor:start;fill:#000000;font-family:AlMohanad;-inkscape-font-specification:AlMohanad"
           y="130.06566"
           x="363.90436"
           id="tspan3901-0-3-8-3-3-8-3-0"
           sodipodi:role="line">20</tspan></text>
      <g
         style="font-size:44.49687958px;font-style:normal;font-variant:normal;font-weight:normal;font-stretch:normal;text-align:start;line-height:125%;letter-spacing:0px;word-spacing:0px;writing-mode:lr-tb;text-anchor:start;fill:#ff0000;fill-opacity:1;stroke:none;font-family:AlMohanad;-inkscape-font-specification:AlMohanad"
         id="text3899-9-9-0-4-5-2-3-2-2"
         transform="translate(-976.35955,-352.64092)">
        <path
           inkscape:connector-curvature="0"
           d="m 1394.4758,403.06397 0.6467,1.62234 c -0.7103,-0.27592 -1.4074,-0.41581 -2.0916,-0.41968 -0.6791,-0.006 -1.3486,0.12275 -2.0087,0.38587 -1.2999,0.51818 -2.1363,1.3135 -2.5091,2.38597 -0.3748,1.06741 -0.2626,2.35262 0.3365,3.85562 0.5971,1.49793 1.3998,2.50786 2.4082,3.02978 1.0063,0.51685 2.1594,0.51619 3.4593,-0.002 0.6601,-0.26312 1.2346,-0.6304 1.7234,-1.10183 0.4939,-0.47344 0.9036,-1.05459 1.2293,-1.74343 l 0.6406,1.6071 c -0.3925,0.58015 -0.8544,1.08206 -1.3858,1.50572 -0.5263,0.42164 -1.1246,0.76605 -1.7949,1.03323 -1.7213,0.68617 -3.2866,0.70106 -4.6957,0.0447 -1.4112,-0.66146 -2.4801,-1.90365 -3.2067,-3.72656 -0.7287,-1.82797 -0.8075,-3.46485 -0.2363,-4.91065 0.5692,-1.45085 1.7144,-2.51937 3.4358,-3.20555 0.6804,-0.27121 1.3566,-0.43485 2.0286,-0.49091 0.6751,-0.0631 1.3486,-0.0197 2.0204,0.1303"
           style="font-size:16.79242516px;fill:#ff0000"
           id="path4450" />
        <path
           inkscape:connector-curvature="0"
           d="m 1400.9426,401.00453 7.737,-0.22534 0.041,1.39331 -6.0814,0.17712 0.1055,3.62261 5.8273,-0.16972 0.041,1.39331 -5.8273,0.16972 0.1291,4.43401 6.2289,-0.18141 0.041,1.39331 -7.8845,0.22963 -0.3564,-12.23655"
           style="font-size:16.79242516px;fill:#ff0000"
           id="path4452" />
        <path
           inkscape:connector-curvature="0"
           d="m 1415.8364,401.79216 1.5715,0.52342 -1.9123,5.74107 7.5289,-3.87023 2.0148,0.67112 -6.0174,3.09462 2.3821,8.5975 -1.7114,-0.57007 -2.037,-7.32446 -2.8467,1.46301 -1.2697,3.81182 -1.5714,-0.52342 3.8686,-11.61438"
           style="font-size:16.79242516px;fill:#ff0000"
           id="path4454" />
      </g>
    </g>
  </g>
</svg>
