<?xml version="1.0" encoding="UTF-8" standalone="no"?>
<!-- Created with Inkscape (http://www.inkscape.org/) -->

<svg
   xmlns:dc="http://purl.org/dc/elements/1.1/"
   xmlns:cc="http://creativecommons.org/ns#"
   xmlns:rdf="http://www.w3.org/1999/02/22-rdf-syntax-ns#"
   xmlns:svg="http://www.w3.org/2000/svg"
   xmlns="http://www.w3.org/2000/svg"
   xmlns:xlink="http://www.w3.org/1999/xlink"
   xmlns:sodipodi="http://sodipodi.sourceforge.net/DTD/sodipodi-0.dtd"
   xmlns:inkscape="http://www.inkscape.org/namespaces/inkscape"
   width="744.09448"
   height="1052.3622"
   id="svg2"
   version="1.1"
   inkscape:version="0.48.2 r9819"
   sodipodi:docname="clock.svg.2013_03_09_23_14_26.0.svg">
  <defs
     id="defs4">
    <linearGradient
       id="linearGradient4368">
      <stop
         style="stop-color:#f9ff00;stop-opacity:1;"
         offset="0"
         id="stop4370" />
      <stop
         id="stop4376"
         offset="0.90046781"
         style="stop-color:#ffffff;stop-opacity:1;" />
      <stop
         style="stop-color:#fffa00;stop-opacity:1;"
         offset="1"
         id="stop4372" />
    </linearGradient>
    <linearGradient
       id="linearGradient3916">
      <stop
         style="stop-color:#008000;stop-opacity:1;"
         offset="0"
         id="stop3918" />
      <stop
         style="stop-color:#ffffff;stop-opacity:1;"
         offset="1"
         id="stop3920" />
    </linearGradient>
    <linearGradient
       id="linearGradient3891">
      <stop
         style="stop-color:#008002;stop-opacity:1;"
         offset="0"
         id="stop3893" />
      <stop
         style="stop-color:#feff00;stop-opacity:1;"
         offset="1"
         id="stop3895" />
    </linearGradient>
    <linearGradient
       inkscape:collect="always"
       xlink:href="#linearGradient3891"
       id="linearGradient3001"
       gradientUnits="userSpaceOnUse"
       gradientTransform="matrix(0.29865331,0,0,0.29865331,145.18568,542.05816)"
       x1="13.754464"
       y1="604.88617"
       x2="-202.78572"
       y2="600.60046" />
    <linearGradient
       inkscape:collect="always"
       xlink:href="#linearGradient3916"
       id="linearGradient4370"
       gradientUnits="userSpaceOnUse"
       x1="433.00894"
       y1="108.5067"
       x2="237.29465"
       y2="382.07812" />
    <radialGradient
       inkscape:collect="always"
       xlink:href="#linearGradient4368"
       id="radialGradient4374"
       cx="951.09375"
       cy="494.375"
       fx="951.09375"
       fy="494.375"
       r="53.95475"
       gradientUnits="userSpaceOnUse" />
    <radialGradient
       inkscape:collect="always"
       xlink:href="#linearGradient4368"
       id="radialGradient4524"
       gradientUnits="userSpaceOnUse"
       cx="951.09375"
       cy="494.375"
       fx="951.09375"
       fy="494.375"
       r="53.95475" />
  </defs>
  <sodipodi:namedview
     id="base"
     pagecolor="#ffffff"
     bordercolor="#666666"
     borderopacity="1.0"
     inkscape:pageopacity="0.0"
     inkscape:pageshadow="2"
     inkscape:zoom="0.70000001"
     inkscape:cx="652.47396"
     inkscape:cy="596.88776"
     inkscape:document-units="px"
     inkscape:current-layer="g4308"
     showgrid="false"
     showguides="true"
     inkscape:guide-bbox="true"
     inkscape:window-width="1920"
     inkscape:window-height="1008"
     inkscape:window-x="0"
     inkscape:window-y="24"
     inkscape:window-maximized="1"
     fit-margin-top="0"
     fit-margin-left="0"
     fit-margin-right="0"
     fit-margin-bottom="0"
     inkscape:snap-nodes="false" />
  <metadata
     id="metadata7">
    <rdf:RDF>
      <cc:Work
         rdf:about="">
        <dc:format>image/svg+xml</dc:format>
        <dc:type
           rdf:resource="http://purl.org/dc/dcmitype/StillImage" />
        <dc:title />
      </cc:Work>
    </rdf:RDF>
  </metadata>
  <g
     inkscape:label="Layer 1"
     inkscape:groupmode="layer"
     id="layer1"
     transform="translate(-34.295135,279.12318)">
    <g
       transform="translate(-1.5958687,158.06566)"
       style="font-size:23.02064896px;font-style:normal;font-variant:normal;font-weight:normal;font-stretch:normal;text-align:start;line-height:125%;letter-spacing:0px;word-spacing:0px;writing-mode:lr-tb;text-anchor:start;fill:#ffff00;fill-opacity:1;stroke:none;font-family:AlMohanad;-inkscape-font-specification:AlMohanad"
       id="text3899-9-9-71-3" />
    <g
       id="g4308"
       transform="matrix(0.59550661,0,0,0.59550661,148.15408,-49.862269)">
      <g
         id="g4458"
         transform="translate(-976.35955,-352.64092)">
        <image
           transform="matrix(0.99998382,0.00568863,-0.00568863,0.99998382,0,0)"
           width="449.63495"
           height="445.11127"
           xlink:href="file:///home/buba/%D0%A0%D0%B0%D0%B1%D0%BE%D1%87%D0%B8%D0%B9%20%D1%81%D1%82%D0%BE%D0%BB/%D0%9E%D1%82%D1%81%D0%BA%D0%B0%D0%BD%D0%B8%D1%80%D0%BE%D0%B2%D0%B0%D0%BD%D0%BD%D1%8B%D0%B9%20%D0%B4%D0%BE%D0%BA%D1%83%D0%BC%D0%B5%D0%BD%D1%82.jpg"
           id="image3062"
           x="1182.5466"
           y="111.9099" />
        <path
           id="path3052"
           transform="matrix(1.6792425,0,0,1.6792425,-191.19678,-384.98466)"
           d="m 949.1875,302.1875 c -72.40584,0 -131.125,57.66192 -131.125,128.8125 0,71.15058 58.71916,128.84375 131.125,128.84375 72.4058,0 131.0937,-57.69317 131.0937,-128.84375 0,-71.15058 -58.6879,-128.8125 -131.0937,-128.8125 z m 1.4375,120.875 c 4.87858,0 8.8125,3.96517 8.8125,8.84375 0,4.87858 -3.93392,8.84375 -8.8125,8.84375 -4.87858,0 -8.84375,-3.96517 -8.84375,-8.84375 0,-4.87858 3.96517,-8.84375 8.84375,-8.84375 z m 0,67.40625 c 1.87814,0 3.40625,1.52811 3.40625,3.40625 0,1.87814 -1.52811,3.40625 -3.40625,3.40625 -1.87814,0 -3.40625,-1.52811 -3.40625,-3.40625 0,-1.87814 1.52811,-3.40625 3.40625,-3.40625 z"
           style="fill:#ffffff;fill-opacity:1;fill-rule:nonzero;stroke:#000000;stroke-width:0.5;stroke-miterlimit:4;stroke-opacity:1;stroke-dasharray:none"
           inkscape:connector-curvature="0" />
        <path
           inkscape:connector-curvature="0"
           id="path3835"
           d="m 1405.9203,134.89832 c -113.628,0 -205.7597,92.13168 -205.7597,205.75969 0,113.628 92.1317,205.75968 205.7597,205.75968 113.628,0 205.7596,-92.13168 205.7596,-205.75968 0,-113.62801 -92.1316,-205.75969 -205.7596,-205.75969 z m 0,1.04953 c 113.0863,0 204.7101,91.62384 204.7101,204.71016 0,113.08631 -91.6238,204.71015 -204.7101,204.71015 -113.0864,0 -204.7102,-91.62384 -204.7102,-204.71015 0,-113.08632 91.6238,-204.71016 204.7102,-204.71016 z m 0,14.22108 c -105.1965,0 -190.4891,85.29261 -190.4891,190.48908 0,92.01122 65.2232,168.75614 151.9714,186.55334 0.017,0.003 0.036,-0.003 0.053,0 11.6872,5.49499 24.6938,8.60612 38.4652,8.60612 13.7713,0 26.778,-3.11113 38.4651,-8.60612 0.034,-0.007 0.072,0.007 0.105,0 86.7233,-17.81653 151.9189,-94.55987 151.9189,-186.55334 0,-105.19647 -85.2925,-190.48908 -190.489,-190.48908 z m 0,1.04953 c 104.6548,0 189.4394,84.78474 189.4394,189.43955 0,91.55527 -64.87,167.92495 -151.1842,185.60877 -0.054,-0.003 -0.048,-0.0516 -0.1574,0 -11.5697,5.44726 -24.4592,8.50116 -38.0978,8.50116 -13.6387,0 -26.5282,-3.0539 -38.0978,-8.50116 l -0.053,0 -0.053,0 c -0.2176,-0.0444 -0.237,-0.0379 -0.053,0 -86.3143,-17.68382 -151.1843,-94.0535 -151.1843,-185.60877 0,-104.65481 84.7848,-189.43955 189.4396,-189.43955 z"
           style="font-size:medium;font-style:normal;font-variant:normal;font-weight:normal;font-stretch:normal;text-indent:0;text-align:start;text-decoration:none;line-height:normal;letter-spacing:normal;word-spacing:normal;text-transform:none;direction:ltr;block-progression:tb;writing-mode:lr-tb;text-anchor:start;baseline-shift:baseline;color:#000000;fill:#000000;fill-opacity:1;fill-rule:nonzero;stroke:none;stroke-width:0.597;marker:none;visibility:visible;display:inline;overflow:visible;enable-background:accumulate;font-family:Sans;-inkscape-font-specification:Sans" />
        <text
           xml:space="preserve"
           style="font-size:44.49687958px;font-style:normal;font-variant:normal;font-weight:normal;font-stretch:normal;text-align:start;line-height:125%;letter-spacing:0px;word-spacing:0px;writing-mode:lr-tb;text-anchor:start;fill:#000000;fill-opacity:1;stroke:none;font-family:AlMohanad;-inkscape-font-specification:AlMohanad"
           x="1483.8651"
           y="495.47079"
           id="text3899-9-9-0-4-5-2-3-0"
           sodipodi:linespacing="125%"><tspan
             sodipodi:role="line"
             id="tspan3901-0-3-8-3-3-8-8-0"
             x="1483.8651"
             y="495.47079"
             style="font-size:44.49687958px;font-style:normal;font-variant:normal;font-weight:normal;font-stretch:normal;text-align:start;line-height:125%;writing-mode:lr-tb;text-anchor:start;fill:#000000;font-family:AlMohanad;-inkscape-font-specification:AlMohanad">5</tspan></text>
        <text
           xml:space="preserve"
           style="font-size:44.49687958px;font-style:normal;font-variant:normal;font-weight:normal;font-stretch:normal;text-align:start;line-height:125%;letter-spacing:0px;word-spacing:0px;writing-mode:lr-tb;text-anchor:start;fill:#000000;fill-opacity:1;stroke:none;font-family:AlMohanad;-inkscape-font-specification:AlMohanad"
           x="1299.8379"
           y="495.47079"
           id="text3899-9-9-0-4-5-2-3-0-4"
           sodipodi:linespacing="125%"><tspan
             sodipodi:role="line"
             id="tspan3901-0-3-8-3-3-8-8-0-1"
             x="1299.8379"
             y="495.47079"
             style="font-size:44.49687958px;font-style:normal;font-variant:normal;font-weight:normal;font-stretch:normal;text-align:start;line-height:125%;writing-mode:lr-tb;text-anchor:start;fill:#000000;font-family:AlMohanad;-inkscape-font-specification:AlMohanad">7</tspan></text>
        <path
           id="path3856"
           transform="matrix(1.6792425,0,0,1.6792425,-191.19678,-384.98466)"
           d="m 951.09375,440.71875 c -29.63891,0 -53.65625,24.01734 -53.65625,53.65625 0,29.63891 24.01734,53.65625 53.65625,53.65625 29.63891,0 53.65625,-24.01734 53.65625,-53.65625 0,-29.63891 -24.01734,-53.65625 -53.65625,-53.65625 z m 0,6.3125 c 26.15209,0 47.34375,21.19166 47.34375,47.34375 0,26.15209 -21.19166,47.34375 -47.34375,47.34375 -26.15209,0 -47.34375,-21.19166 -47.34375,-47.34375 0,-26.15209 21.19166,-47.34375 47.34375,-47.34375 z"
           style="fill:url(#radialGradient4524);fill-opacity:1;fill-rule:nonzero;stroke:#000000;stroke-width:0.597;stroke-miterlimit:4;stroke-opacity:1;stroke-dasharray:none"
           inkscape:connector-curvature="0" />
        <path
           style="fill:#008000;fill-opacity:1"
           d="m 1347.7227,309.03236 c -1.4349,-0.44031 -2.3597,-1.59937 -2.6396,-3.30831 -0.067,-0.40909 -0.1171,-4.84935 -0.1174,-10.41925 l -10e-4,-9.70631 17.3306,0 c 13.7831,0 17.3303,-0.0314 17.3298,-0.1531 0,-0.0842 -0.088,-0.31845 -0.1944,-0.52054 -0.7563,-1.43511 -1.6547,-3.9323 -2.1388,-5.945 -0.771,-3.20567 -0.8959,-7.74934 -0.2979,-10.83439 0.068,-0.35111 0.04,-0.38072 -0.6387,-0.6667 -0.3905,-0.16459 -1.4265,-0.6133 -2.3022,-0.99713 -0.8757,-0.38384 -2.6669,-1.1675 -3.9805,-1.74148 -1.3136,-0.57396 -3.5457,-1.55042 -4.9603,-2.16988 -4.2238,-1.84963 -20.7577,-9.07631 -23.3626,-10.21139 -1.3304,-0.57972 -3.5075,-1.52791 -4.8378,-2.10709 -4.7495,-2.06754 -8.3037,-3.61749 -8.6653,-3.77881 -0.2021,-0.0901 -0.6155,-0.27442 -0.9186,-0.40953 -0.3031,-0.1351 -1.1298,-0.49232 -1.8371,-0.79379 -0.7074,-0.30151 -1.5341,-0.66225 -1.8372,-0.80168 -0.3032,-0.13944 -1.4054,-0.62166 -2.4495,-1.07157 -1.0442,-0.44995 -2.5821,-1.11273 -3.4177,-1.47288 -1.78,-0.76717 -2.3815,-1.15331 -2.5935,-1.66507 -0.1781,-0.43018 -0.07,-0.68807 0.3892,-0.92399 0.6482,-0.33338 1.2028,-0.23125 5.132,0.94505 1.1789,0.3529 2.8599,0.8512 3.7356,1.10733 1.5758,0.46089 5.8673,1.73223 10.9617,3.24736 1.4483,0.43073 2.8262,0.84013 3.0619,0.90976 0.2358,0.0697 2.1097,0.62361 4.1643,1.23108 4.9756,1.47111 6.8829,2.03409 10.1656,3.00063 1.5156,0.44626 3.4722,1.02447 4.3479,1.28491 0.8757,0.26043 2.5292,0.74882 3.6744,1.08532 1.1451,0.33649 3.4875,1.02509 5.2053,1.53021 6.7092,1.97297 10.3164,3.02514 12.4314,3.62609 1.2126,0.34456 2.2711,0.64909 2.3523,0.67676 0.082,0.0277 0.6158,-0.56706 1.1878,-1.32165 1.6831,-2.2203 2.8289,-3.37704 5.3866,-5.43738 0.7857,-0.63288 3.0185,-1.98372 4.3996,-2.66165 9.4306,-4.62939 20.657,-3.33727 28.941,3.33103 1.9165,1.54271 3.9293,3.74792 5.3686,5.88156 0.1951,0.28924 0.3997,0.55369 0.4547,0.58768 0.055,0.034 0.8036,-0.15767 1.6638,-0.42591 0.86,-0.26824 2.032,-0.62378 2.6046,-0.79011 0.5727,-0.16632 1.9781,-0.58742 3.1232,-0.93576 1.1452,-0.34837 3.5427,-1.07665 5.3278,-1.61845 4.6054,-1.39775 5.8886,-1.78938 9.5532,-2.91556 1.7852,-0.54858 4.596,-1.41059 6.2463,-1.91557 1.6504,-0.50495 4.5165,-1.38702 6.3689,-1.96015 4.3418,-1.34331 5.9601,-1.84019 8.5122,-2.61349 1.1451,-0.34702 2.9363,-0.89834 3.9805,-1.2252 1.0441,-0.32687 2.5322,-0.78891 3.3068,-1.02676 0.7747,-0.23787 2.5935,-0.79802 4.0418,-1.24481 4.8342,-1.49132 6.6708,-2.02789 7.1863,-2.09951 0.9981,-0.13869 1.877,0.23358 1.877,0.79501 0,0.49969 -0.8348,1.21823 -2.1517,1.85192 -0.7084,0.34082 -1.3068,0.61968 -1.3301,0.61968 -0.023,0 -0.6136,0.26817 -1.3116,0.59595 -0.6981,0.32777 -1.5723,0.73439 -1.9428,0.90361 -0.3705,0.16922 -1.8035,0.83182 -3.1844,1.47246 -2.3826,1.10524 -2.9933,1.38636 -4.7154,2.17036 -0.4042,0.184 -1.2033,0.55629 -1.7759,0.82731 -0.5726,0.27101 -1.6474,0.76998 -2.3884,1.10883 -0.7409,0.33885 -1.8983,0.87497 -2.5719,1.19136 -0.6737,0.31641 -3.3468,1.55612 -5.9402,2.75491 -2.5934,1.1988 -5.1563,2.38411 -5.6952,2.63401 -1.2438,0.5768 -2.388,1.1056 -4.1303,1.90888 -0.7596,0.35027 -2.723,1.26221 -4.3631,2.02657 -1.6401,0.76435 -3.0028,1.38974 -3.0283,1.38974 -0.025,0 -0.6403,0.28176 -1.366,0.62613 -1.518,0.72022 -2.605,1.22586 -4.5041,2.09508 -0.741,0.33917 -1.8157,0.83672 -2.3883,1.10569 -0.97,0.45568 -4.7821,2.21422 -6.4128,2.95829 -0.666,0.30386 -0.7124,0.35139 -0.6441,0.65979 0.1696,0.76535 0.2263,4.6758 0.088,6.08877 -0.2943,3.01527 -1.1487,6.19485 -2.3481,8.73738 -0.3322,0.70436 -0.6041,1.32744 -0.6041,1.38464 0,0.0573 7.8953,0.11797 17.545,0.13503 l 17.5448,0.031 0,11.75782 0,11.75782 -57.1969,0.0221 c -51.0236,0.0199 -57.2628,0.002 -57.8074,-0.16514 z m 114.0557,-11.64543 -0.032,-10.86987 -57.6256,-0.0284 c -31.6941,-0.0154 -57.7496,0.005 -57.9012,0.0448 l -0.2756,0.0732 0,9.45825 c 0,10.21977 -0.01,10.081 0.6571,11.08621 0.1914,0.28937 0.5481,0.58342 0.951,0.78421 l 0.6446,0.32126 56.8062,0 56.8061,0 -0.032,-10.86987 z m -111.6835,8.61878 c -1.0273,-0.36713 -1.561,-0.99788 -1.8798,-2.22149 -0.159,-0.61077 -0.1882,-1.84018 -0.1882,-7.92338 l 0,-7.20043 8.1986,0 8.1986,0 0.038,6.96847 c 0.045,8.11566 -0.066,7.48519 1.3123,7.48198 0.4443,-9.2e-4 0.8777,-0.0462 0.9631,-0.10049 0.3513,-0.223 0.3958,-1.0821 0.3958,-7.64355 l 0,-6.70644 8.2095,0 8.2096,0 -0.034,7.68546 -0.034,7.68545 -0.3398,0.61238 c -0.3607,0.65001 -0.8889,1.08464 -1.6465,1.35495 -0.6693,0.23875 -30.7355,0.24551 -31.4029,0.007 z m 38.1213,9.3e-4 c -0.6714,-0.24299 -1.3706,-0.92005 -1.7135,-1.65934 -0.2857,-0.6161 -0.3218,-0.86137 -0.3643,-2.47848 -0.084,-3.20911 0.3076,-4.34043 1.7549,-5.06402 l 0.7348,-0.36744 8.3101,-0.0347 8.3101,-0.0347 -0.043,-2.06526 c -0.053,-2.53783 -0.074,-2.5807 -1.3289,-2.5807 -1.096,0 -1.2115,0.1338 -1.309,1.51536 l -0.074,1.05667 -8.2032,0 -8.2032,0 0.055,-1.7453 c 0.062,-1.96426 0.2125,-2.43122 1.0078,-3.12951 0.903,-0.79279 0.159,-0.75915 16.7884,-0.75915 16.7944,0 15.9045,-0.0438 16.74,0.82302 0.9371,0.97234 0.8926,0.53869 0.9318,9.06704 l 0.035,7.6242 -16.5082,-0.01 c -12.6408,-0.007 -16.6048,-0.0442 -16.9202,-0.15837 z m 17.0076,-4.99173 0,-2.09747 -1.0466,0.055 c -1.5196,0.0798 -1.5867,0.16605 -1.5867,2.04249 0,1.93169 0.1202,2.07556 1.7453,2.08978 l 0.888,0.007 0,-2.09747 z m 18.521,3.60724 0.034,-1.55217 2.3463,-1.7241 c 1.2905,-0.94825 4.7349,-3.48778 7.6544,-5.64338 l 5.3081,-3.91927 -7.685,-0.0315 -7.6849,-0.0316 0,-1.53005 0,-1.53004 17.6903,0 17.6903,0 0.038,1.34477 c 0.021,0.73962 0.011,1.45091 -0.023,1.58063 -0.033,0.12972 -1.3648,1.1918 -2.9581,2.36016 -1.5933,1.16838 -5.0272,3.69508 -7.6309,5.61491 l -4.734,3.49061 7.6684,0.0613 7.6684,0.0613 9e-4,1.34725 c 0,0.74098 0,1.41614 -0.01,1.50035 -0.01,0.12174 -3.6339,0.1531 -17.7094,0.1531 l -17.7016,0 0.034,-1.55218 z m -38.9747,-19.16705 c 0,-0.0591 -0.2211,-0.45758 -0.4912,-0.88534 -2.3129,-3.66224 -3.5327,-8.71971 -3.1923,-13.23589 l 0.1273,-1.68881 -0.5691,-1.056 c -0.6842,-1.26942 -0.6397,-1.2118 -0.7714,-0.99861 -0.5058,0.81828 -0.7735,5.80164 -0.4452,8.28513 0.2376,1.79871 0.7455,3.85086 1.3602,5.4974 0.4925,1.31896 1.6841,3.74761 1.9878,4.05135 0.1382,0.13806 0.42,0.18002 1.0901,0.16229 0.4971,-0.0133 0.9038,-0.0723 0.9038,-0.13152 z m 36.8136,0.0501 c 0.4549,-0.31248 1.9103,-2.94787 2.634,-4.76933 0.523,-1.31691 1.0563,-3.46216 1.2748,-5.12866 0.1844,-1.40684 0.2561,-4.33858 0.106,-4.33858 -0.096,0 -0.7879,0.3169 -8.5557,3.91887 -3.3681,1.56183 -7.4742,3.46292 -9.1246,4.22466 l -3.0006,1.38499 -9.203,0.88633 c -5.0617,0.48749 -9.3517,0.84906 -9.5332,0.80348 -0.5922,-0.14863 -0.9218,-0.60122 -0.9187,-1.26149 0,-0.80075 0.212,-1.21482 2.4065,-4.78374 1.0491,-1.70602 1.8727,-3.13658 1.8302,-3.17905 -0.043,-0.0425 -1.7715,-0.80389 -3.8424,-1.69202 -3.6146,-1.55019 -3.7694,-1.60444 -3.8709,-1.35646 -0.2065,0.50479 -0.1441,4.57521 0.092,6.01475 0.294,1.79067 0.9107,3.89778 1.5984,5.46114 0.7617,1.73146 1.9941,3.75978 2.3234,3.82371 0.4714,0.0915 35.6501,0.0831 35.7835,-0.009 z m 3.7537,-1.31521 c 1.9309,-3.69823 2.7898,-7.19741 2.7895,-11.36399 0,-1.86563 -0.205,-3.7387 -0.4584,-4.19144 -0.075,-0.13421 -0.2699,0.12891 -0.7348,0.99226 l -0.6326,1.17491 -0.054,2.34619 c -0.098,4.22934 -1.0252,7.60746 -3.0491,11.10331 -0.4566,0.78853 -0.6294,1.19384 -0.5362,1.25757 0.076,0.0517 0.5504,0.0793 1.055,0.0613 l 0.9173,-0.0329 0.7034,-1.34726 z m -30.2405,-6.77895 c 4.8982,-2.21277 8.9417,-4.05911 8.9857,-4.103 0.044,-0.0439 -2.9806,-0.0798 -6.721,-0.0798 l -6.8007,0 -2.0019,3.33751 c -1.1012,1.83564 -2.101,3.54152 -2.2219,3.79088 -0.1861,0.38378 -0.3038,1.07758 -0.1829,1.07758 0.02,0 4.0445,-1.81044 8.9427,-4.0232 z m 16.7526,-7.07256 c 3.5973,-1.38729 10.2333,-3.94533 14.7466,-5.68454 4.5133,-1.7392 11.3751,-4.38529 15.2485,-5.88024 7.6948,-2.96989 13.5332,-5.22086 23.7605,-9.1609 3.6713,-1.41434 9.1277,-3.51883 12.1252,-4.67667 2.9977,-1.15785 6.8833,-2.65477 8.6347,-3.3265 1.7515,-0.67174 3.2329,-1.26902 3.2922,-1.32727 0.2003,-0.19672 -0.7851,-0.27662 -1.5529,-0.1259 -0.4177,0.082 -1.3106,0.33378 -1.9842,0.55952 -1.1791,0.39511 -5.8067,1.81752 -28.476,8.75259 -5.7595,1.76198 -13.2276,4.04824 -16.5957,5.08059 -3.3681,1.03235 -7.7773,2.38113 -9.7981,2.9973 -2.021,0.61616 -3.8498,1.17545 -4.0641,1.24288 -0.3243,0.10195 -1.3353,1.16306 -1.8957,1.98946 -0.051,0.075 -0.6641,0.0196 -1.6551,-0.14962 l -1.5742,-0.26879 -7.0408,2.154 c -3.8725,1.18469 -7.6609,2.34575 -8.4188,2.58012 l -1.3778,0.42612 0,3.67009 c 0,2.01856 0.02,3.67012 0.043,3.67012 0.023,0 2.9858,-1.13507 6.5831,-2.52235 z m -7.2737,-4.78022 c -0.034,-0.0342 -5.1212,-1.54393 -16.0543,-4.76472 l -2.8011,-0.82517 -1.5701,0.33081 -1.5702,0.33082 -0.4666,-0.52836 c -1.5293,-1.7317 -1.3072,-1.60039 -4.0797,-2.41206 -1.3809,-0.40429 -7.0302,-2.06817 -12.5539,-3.69753 -5.5237,-1.62936 -10.2912,-3.03176 -10.5943,-3.11645 -0.3031,-0.0848 -3.1967,-0.93627 -6.4301,-1.89235 -3.2334,-0.95608 -8.9653,-2.64836 -12.7376,-3.76063 -3.7723,-1.11228 -9.0082,-2.65654 -11.6354,-3.43171 -6.6083,-1.94986 -7.2319,-2.12145 -7.7101,-2.12145 -0.7098,0 -0.5874,0.18882 0.3364,0.51913 0.4854,0.17353 5.5673,2.02418 11.293,4.11255 5.7258,2.08838 14.4891,5.28444 19.4739,7.10237 4.9848,1.81793 13.1694,4.80283 18.1879,6.63314 5.0185,1.83029 11.6047,4.23192 14.636,5.33697 3.0314,1.10504 9.7278,3.54661 14.881,5.4257 l 9.3695,3.41653 0.033,-3.30902 c 0.018,-1.81994 0.015,-3.32681 -0.01,-3.34857 z m 4.3674,-1.7737 c 7.6621,-2.33701 12.3763,-3.79422 12.4218,-3.83976 0.1759,-0.17586 -1.6927,-2.29974 -3.1551,-3.58611 -4.4726,-3.93422 -10.5225,-5.95713 -16.2718,-5.44082 -6.0818,0.54617 -11.2,3.18315 -15.1836,7.82264 l -0.6487,0.75559 0.4038,0.1148 c 0.5945,0.169 12.0639,3.54989 15.4073,4.54167 1.5831,0.46958 2.8985,0.85738 2.9232,0.86175 0.025,0.005 1.8712,-0.54901 4.1031,-1.22976 z m 16.9428,-4.73551 c 0.1796,-0.26237 0.1641,-0.31763 -0.2737,-0.97983 -0.8313,-1.25697 -2.2086,-2.88003 -3.5654,-4.20153 -4.9488,-4.82006 -11.4688,-7.46198 -18.4153,-7.46198 -8.3494,0 -16.2378,3.95996 -21.204,10.64444 -0.53,0.71341 -0.9638,1.32905 -0.964,1.3681 0,0.10475 1.3535,1.58261 1.4489,1.58151 0.045,-4.9e-4 0.2145,-0.23476 0.3769,-0.52052 0.4372,-0.76935 1.6541,-2.33719 2.5718,-3.31343 3.2009,-3.40509 7.404,-5.8815 11.8915,-7.00616 3.7436,-0.93825 8.1808,-0.94098 11.8645,-0.007 5.7452,1.45619 10.7084,4.87655 14.1007,9.71739 l 1.041,1.48562 0.4683,-0.51414 c 0.2577,-0.28277 0.554,-0.63926 0.6588,-0.79218 z"
           id="path4184-5"
           inkscape:connector-curvature="0" />
        <path
           transform="matrix(1.6792425,0,0,1.6792425,-191.19678,-384.98466)"
           id="path3925"
           d="m 962.09375,310.71875 -0.78125,8.4375 c 0.48874,0.0437 0.98182,0.0752 1.46875,0.125 l 0.78125,-8.4375 c -0.48626,-0.0494 -0.98082,-0.0814 -1.46875,-0.125 z M 937.25,311 c -0.48951,0.0553 -0.98102,0.0952 -1.46875,0.15625 l 1.0625,8.4375 c 0.48287,-0.0604 0.98401,-0.1019 1.46875,-0.15625 L 937.25,311 z m 38.5,1.71875 -1.71875,8.3125 c 0.48247,0.0992 0.95729,0.20723 1.4375,0.3125 l 1.75,-8.3125 c -0.48772,-0.10647 -0.97887,-0.21188 -1.46875,-0.3125 z m -51.375,0.4375 c -0.48305,0.10795 -0.95664,0.23008 -1.4375,0.34375 l 1.96875,8.25 c 0.48033,-0.11352 0.95483,-0.23636 1.4375,-0.34375 l -1.96875,-8.25 z m 63.6875,2.78125 -2.59375,8.09375 c 0.47743,0.15172 0.96284,0.27966 1.4375,0.4375 l 2.59375,-8.0625 c -0.47809,-0.15856 -0.95681,-0.31597 -1.4375,-0.46875 z m -75.90625,0.625 c -0.47042,0.15829 -0.93842,0.30489 -1.40625,0.46875 l 2.8125,8.03125 c 0.46581,-0.1633 0.93769,-0.31138 1.40625,-0.46875 l -2.8125,-8.03125 z m 86.59375,3.3125 -3.3125,7.8125 c 0.45619,0.1939 0.89064,0.39407 1.34375,0.59375 l 3.31255,-7.8125 c -0.45265,-0.19888 -0.88834,-0.40023 -1.3438,-0.59375 z m -99.21875,1.71875 c -0.44696,0.20877 -0.89977,0.41098 -1.34375,0.625 l 3.6875,7.6875 c 0.44462,-0.21447 0.89592,-0.41619 1.34375,-0.625 l -3.6875,-7.6875 z m 123.12495,11.84375 -5.0312,6.84375 c 0.4148,0.30104 0.8395,0.5685 1.25,0.875 l 5,-6.84375 c -0.3984,-0.29685 -0.8166,-0.58293 -1.2188,-0.875 z M 877.875,334.625 c -0.40463,0.3042 -0.7868,0.6284 -1.1875,0.9375 l 5.125,6.71875 c 0.40151,-0.31016 0.81299,-0.60138 1.21875,-0.90625 l -5.15625,-6.75 z m 154.7812,6.875 -5.7187,6.28125 c 0.3707,0.33369 0.7275,0.69276 1.0937,1.03125 l 5.7188,-6.28125 c -0.3671,-0.33881 -0.7225,-0.69692 -1.0938,-1.03125 z m -164.06245,0.875 c -0.37242,0.34252 -0.75688,0.68417 -1.125,1.03125 l 5.8125,6.21875 c 0.36173,-0.34139 0.72755,-0.6946 1.09375,-1.03125 l -5.78125,-6.21875 z m 172.78125,7.8125 -6.3125,5.6875 c 0.3246,0.35741 0.6487,0.73221 0.9687,1.09375 l 6.3126,-5.6875 c -0.3236,-0.36486 -0.6409,-0.73282 -0.9688,-1.09375 z m -182.09375,1.71875 c -0.32597,0.37276 -0.64727,0.74825 -0.96875,1.125 l 6.46875,5.53125 c 0.32083,-0.37618 0.64312,-0.75309 0.96875,-1.125 l -6.46875,-5.53125 z m 190.03125,8 -6.7813,5.09375 c 0.2938,0.39955 0.5864,0.81523 0.875,1.21875 l 6.8438,-5.09375 c -0.2995,-0.41748 -0.6329,-0.80524 -0.9375,-1.21875 z m -197.5,1.40625 c -0.28652,0.40106 -0.56199,0.81409 -0.84375,1.21875 l 6.96875,4.875 c 0.28439,-0.40864 0.58539,-0.81406 0.875,-1.21875 l -7,-4.875 z m 210.6563,21.125 -7.8126,3.375 c 0.2041,0.45573 0.3956,0.91611 0.5938,1.375 l 7.8125,-3.375 c -0.198,-0.45842 -0.3903,-0.91952 -0.5937,-1.375 z m -223.25005,1.125 c -0.19888,0.45772 -0.40034,0.91438 -0.59375,1.375 l 7.84375,3.34375 c 0.19321,-0.46077 0.39466,-0.91734 0.59375,-1.375 l -7.84375,-3.34375 z M 1067,394.21875 l -8.125,2.5625 c 0.1569,0.47855 0.3181,0.95616 0.4688,1.4375 l 8.125,-2.5625 c -0.1508,-0.48156 -0.3122,-0.95853 -0.4688,-1.4375 z M 834.8125,395.375 c -0.15086,0.47784 -0.29239,0.95713 -0.4375,1.4375 l 8.125,2.5 c 0.14522,-0.48142 0.28608,-0.95881 0.4375,-1.4375 l -8.125,-2.5 z m 235.4375,10.875 -8.3125,1.75 c 0.1059,0.48929 0.2129,0.97713 0.3125,1.46875 l 8.3125,-1.75 c -0.1,-0.49141 -0.2067,-0.97951 -0.3125,-1.46875 z m -238.5,0.9375 c -0.10213,0.49129 -0.2163,0.97531 -0.3125,1.46875 l 8.3125,1.6875 c 0.0955,-0.49175 0.21063,-0.97929 0.3125,-1.46875 l -8.3125,-1.6875 z m 240.5,11.46875 -8.4375,0.875 c 0.055,0.49952 0.1075,0.99854 0.1563,1.5 l 8.4374,-0.90625 c -0.048,-0.49055 -0.1025,-0.97993 -0.1562,-1.46875 z m -242.375,0.5625 c -0.0524,0.49821 -0.10987,1.00002 -0.15625,1.5 l 8.4375,0.8125 c 0.0464,-0.50073 0.10338,-1.00118 0.15625,-1.5 l -8.4375,-0.8125 z m 8.28125,23.4375 -8.4375,0.84375 c 0.0461,0.49881 0.0729,1.00295 0.125,1.5 l 8.46875,-0.84375 c -0.0527,-0.49985 -0.11005,-0.99823 -0.15625,-1.5 z m 225.87495,0 c -0.046,0.50167 -0.1035,1.00025 -0.1562,1.5 l 8.4375,0.875 c 0.053,-0.50848 0.109,-1.02092 0.1563,-1.53125 l -8.4376,-0.84375 z m -224.2187,11.5625 -8.3125,1.71875 c 0.0975,0.49271 0.20905,0.9782 0.3125,1.46875 l 8.3125,-1.71875 c -0.10344,-0.48965 -0.2154,-0.97679 -0.3125,-1.46875 z m 222.4687,0.40625 c -0.099,0.49363 -0.2068,0.97746 -0.3124,1.46875 l 8.3124,1.71875 c 0.1051,-0.4897 0.2134,-0.97689 0.3126,-1.46875 l -8.3126,-1.71875 z m -219.62495,10.78125 -8.125,2.53125 c 0.14811,0.48278 0.31483,0.9573 0.46875,1.4375 l 8.09375,-2.53125 c -0.15289,-0.47602 -0.29075,-0.95876 -0.4375,-1.4375 z m 216.74995,0.46875 c -0.1454,0.46744 -0.2861,0.94143 -0.4374,1.40625 l 8.0937,2.5625 c 0.1517,-0.46684 0.2913,-0.93696 0.4375,-1.40625 l -8.0938,-2.5625 z m -212.68745,10.6875 -7.8125,3.34375 c 0.19963,0.46838 0.38845,0.9409 0.59375,1.40625 l 7.78125,-3.375 c -0.20043,-0.45359 -0.36786,-0.91831 -0.5625,-1.375 z m 208.65625,0.25 c -0.1967,0.45847 -0.3912,0.91968 -0.5938,1.375 l 7.7813,3.40625 c 0.2026,-0.45601 0.3966,-0.91606 0.5937,-1.375 l -7.7812,-3.40625 z m -197.5,19.9375 -6.96875,4.875 c 0.29135,0.41941 0.57854,0.83445 0.875,1.25 L 858.75,498 c -0.29157,-0.40799 -0.58874,-0.83801 -0.875,-1.25 z m 186.0625,0.53125 c -0.2938,0.41777 -0.5758,0.8364 -0.875,1.25 l 6.9375,4.9375 c 0.2922,-0.40441 0.5877,-0.81064 0.875,-1.21875 l -6.9375,-4.96875 z m -178.84375,8.75 -6.46875,5.5625 c 0.32754,0.38084 0.66785,0.74827 1,1.125 l 6.46875,-5.53125 c -0.33879,-0.38329 -0.66635,-0.76837 -1,-1.15625 z m 171.00005,1.1875 c -0.3325,0.37593 -0.6627,0.75354 -1,1.125 l 6.3124,5.6875 c 0.3377,-0.37202 0.667,-0.74881 1,-1.125 l -6.3124,-5.6875 z m -162.75005,7.46875 -5.875,6.15625 c 0.37877,0.3572 0.77293,0.71012 1.15625,1.0625 l 5.84375,-6.21875 c -0.36993,-0.33934 -0.75961,-0.65584 -1.125,-1 z m 154.34375,1.0625 c -0.3752,0.34379 -0.7452,0.69247 -1.125,1.03125 l 5.6875,6.3125 c 0.3741,-0.33402 0.7551,-0.66146 1.125,-1 l -5.6875,-6.34375 z m -145.875,6.125 -5.1875,6.8125 c 0.39547,0.3055 0.78819,0.60553 1.1875,0.90625 L 883,522.78125 c -0.39788,-0.29918 -0.79372,-0.60198 -1.1875,-0.90625 z m 136.9375,1.28125 c -0.4066,0.30257 -0.808,0.60903 -1.2188,0.90625 l 5,6.875 c 0.4101,-0.29705 0.8126,-0.60425 1.2188,-0.90625 l -5,-6.875 z m -116.1875,11.46875 -3.65625,7.71875 c 0.45816,0.21728 0.91372,0.44453 1.375,0.65625 l 3.625,-7.71875 c -0.45465,-0.20809 -0.89236,-0.44236 -1.34375,-0.65625 z m 95.15625,0.90625 c -0.4469,0.20173 -0.89379,0.39767 -1.34375,0.59375 l 3.375,7.8125 c 0.4622,-0.2014 0.9158,-0.38681 1.375,-0.59375 l -3.40625,-7.8125 z m -83.5,3.84375 -2.75,8.09375 c 0.46814,0.16073 0.93555,0.31358 1.40625,0.46875 l 2.75,-8.0625 c -0.47146,-0.15505 -0.93755,-0.33896 -1.40625,-0.5 z m 72.4375,0.46875 c -0.47943,0.15807 -0.95526,0.31693 -1.4375,0.46875 l 2.625,8.09375 c 0.48264,-0.15241 0.95748,-0.31052 1.4375,-0.46875 l -2.625,-8.09375 z m -61.125,2.78125 -1.875,8.34375 c 0.49174,0.11309 0.97475,0.20538 1.46875,0.3125 l 1.875,-8.3125 c -0.49183,-0.10635 -0.97933,-0.23105 -1.46875,-0.34375 z m 49.5625,0.375 c -0.34399,0.0741 -0.6861,0.14779 -1.03125,0.21875 -0.025,0.005 -0.0375,-0.005 -0.0625,0 -0.11333,0.0533 -0.23,0.10376 -0.34375,0.15625 l 1.75,8.25 c 0.49075,-0.0993 0.98016,-0.20729 1.46875,-0.3125 L 975.09375,543 z m -37.96875,3.46875 -0.78125,6.6875 c 0.48904,0.059 0.97795,0.13434 1.46875,0.1875 l 0.78125,-6.5 c -0.49164,-0.11754 -0.98242,-0.24406 -1.46875,-0.375 z m 25.96875,0.5 c -0.49608,0.11306 -0.99881,0.21324 -1.5,0.3125 l 0.625,6.25 c 0.49905,-0.0452 1.0027,-0.0738 1.5,-0.125 l -0.625,-6.4375 z"
           style="font-size:medium;font-style:normal;font-variant:normal;font-weight:normal;font-stretch:normal;text-indent:0;text-align:start;text-decoration:none;line-height:normal;letter-spacing:normal;word-spacing:normal;text-transform:none;direction:ltr;block-progression:tb;writing-mode:lr-tb;text-anchor:start;baseline-shift:baseline;color:#000000;fill:#ff0000;fill-opacity:1;stroke:none;stroke-width:1.5;marker:none;visibility:visible;display:inline;overflow:visible;enable-background:accumulate;font-family:Sans;-inkscape-font-specification:Sans"
           inkscape:connector-curvature="0" />
        <path
           style="fill:#000000;fill-opacity:1;stroke:#000000;stroke-width:1px;stroke-linecap:butt;stroke-linejoin:miter;stroke-opacity:1"
           d="m 1216.3938,336.80807 7.5275,2.91037 -7.4645,3.06853 z"
           id="path3932-5-74-3"
           inkscape:connector-curvature="0"
           sodipodi:nodetypes="cccc"
           inkscape:transform-center-x="-5.2253232"
           inkscape:transform-center-y="5.2927507" />
        <path
           style="fill:#000000;fill-opacity:1;stroke:#000000;stroke-width:1px;stroke-linecap:butt;stroke-linejoin:miter;stroke-opacity:1"
           d="m 1241.2374,246.7308 5.058,6.28879 -7.9978,-1.08207 z"
           id="path3932-5-74-3-3"
           inkscape:connector-curvature="0"
           sodipodi:nodetypes="cccc"
           inkscape:transform-center-x="-2.7264098"
           inkscape:transform-center-y="11.296373" />
        <path
           style="fill:#000000;fill-opacity:1;stroke:#000000;stroke-width:1px;stroke-linecap:butt;stroke-linejoin:miter;stroke-opacity:1"
           d="m 1238.9766,430.22457 8.0015,-1.05302 -5.081,6.27044 z"
           id="path3932-5-74-3-6"
           inkscape:connector-curvature="0"
           sodipodi:nodetypes="cccc"
           inkscape:transform-center-x="-0.79485242"
           inkscape:transform-center-y="-2.2890499" />
        <path
           style="fill:#000000;fill-opacity:1;stroke:#000000;stroke-width:1px;stroke-linecap:butt;stroke-linejoin:miter;stroke-opacity:1"
           d="m 1305.8968,501.67147 6.4415,-4.86217 -1.3277,7.96064 z"
           id="path3932-5-74-3-60"
           inkscape:connector-curvature="0"
           sodipodi:nodetypes="cccc"
           inkscape:transform-center-x="1.4110867"
           inkscape:transform-center-y="-2.4776827" />
        <path
           style="fill:#000000;fill-opacity:1;stroke:#000000;stroke-width:1px;stroke-linecap:butt;stroke-linejoin:miter;stroke-opacity:1"
           d="m 1310.8513,176.6532 1.3749,7.95254 -6.4702,-4.82385 z"
           id="path3932-5-74-3-2"
           inkscape:connector-curvature="0"
           sodipodi:nodetypes="cccc"
           inkscape:transform-center-x="1.1668065"
           inkscape:transform-center-y="2.6616526" />
        <path
           style="fill:#000000;fill-opacity:1;stroke:#000000;stroke-width:1px;stroke-linecap:butt;stroke-linejoin:miter;stroke-opacity:1"
           d="m 1407.3449,151.14438 -2.8597,7.5469 -3.1187,-7.4436 z"
           id="path3932-5-74-3-2-4"
           inkscape:connector-curvature="0"
           sodipodi:nodetypes="cccc"
           inkscape:transform-center-x="3.5819888"
           inkscape:transform-center-y="3.623823" />
        <path
           style="fill:#000000;fill-opacity:1;stroke:#000000;stroke-width:1px;stroke-linecap:butt;stroke-linejoin:miter;stroke-opacity:1"
           d="m 1503.9057,178.42966 -6.387,4.9336 1.2389,-7.97484 z"
           id="path3932-5-74-3-2-6"
           inkscape:connector-curvature="0"
           sodipodi:nodetypes="cccc"
           inkscape:transform-center-x="4.157665"
           inkscape:transform-center-y="0.79332045" />
        <path
           style="fill:#000000;fill-opacity:1;stroke:#000000;stroke-width:1px;stroke-linecap:butt;stroke-linejoin:miter;stroke-opacity:1"
           d="m 1572.0948,249.27565 -7.9629,1.31304 4.874,-6.43251 z"
           id="path3932-5-74-3-2-42"
           inkscape:connector-curvature="0"
           sodipodi:nodetypes="cccc"
           inkscape:transform-center-x="4.4659886"
           inkscape:transform-center-y="-2.001276" />
        <path
           style="fill:#000000;fill-opacity:1;stroke:#000000;stroke-width:1px;stroke-linecap:butt;stroke-linejoin:miter;stroke-opacity:1"
           d="m 1595.4832,342.75591 -7.4829,-3.02329 7.5098,-2.95585 z"
           id="path3932-5-74-3-2-2"
           inkscape:connector-curvature="0"
           sodipodi:nodetypes="cccc"
           inkscape:transform-center-x="2.4900949"
           inkscape:transform-center-y="-1.9098075" />
        <path
           style="fill:#000000;fill-opacity:1;stroke:#000000;stroke-width:1px;stroke-linecap:butt;stroke-linejoin:miter;stroke-opacity:1"
           d="m 1569.1606,437.03038 -5.0629,-6.28495 7.9984,1.076 z"
           id="path3932-5-74-3-2-49"
           inkscape:connector-curvature="0"
           sodipodi:nodetypes="cccc"
           inkscape:transform-center-x="0.58541035"
           inkscape:transform-center-y="-2.2386016" />
        <path
           style="fill:#000000;fill-opacity:1;stroke:#000000;stroke-width:1px;stroke-linecap:butt;stroke-linejoin:miter;stroke-opacity:1"
           d="m 1498.3778,505.79399 -1.2436,-7.97413 6.3898,4.92989 z"
           id="path3932-5-74-3-2-3"
           inkscape:connector-curvature="0"
           sodipodi:nodetypes="cccc"
           inkscape:transform-center-x="-1.4532036"
           inkscape:transform-center-y="-2.6315646" />
        <path
           id="path4071"
           transform="matrix(1.6792425,0,0,1.6792425,-191.19678,-384.98466)"
           d="m 951.09375,309.90625 c -1.00255,0 -2.00323,0.007 -3,0.0312 l 0.0312,9.09375 c 0.99108,-0.0256 1.97148,-0.0312 2.96875,-0.0312 0.34639,0 0.68559,-0.003 1.03125,0 l -0.0312,-9.09375 c -0.33352,-0.003 -0.66585,0 -1,0 z m 60.03125,15.71875 -4.7188,7.8125 c 1.1742,0.6593 2.321,1.33174 3.4688,2.03125 l 4.6875,-7.8125 c -1.137,-0.69226 -2.2765,-1.37546 -3.4375,-2.03125 z m -121.21875,0.65625 c -1.15615,0.66972 -2.27448,1.38763 -3.40625,2.09375 l 4.625,7.8125 c 1.12814,-0.70672 2.25185,-1.39494 3.40625,-2.0625 l -4.625,-7.84375 z m 166.37495,43.5625 -7.9687,4.40625 c 0.6854,1.14898 1.3546,2.29388 2,3.46875 l 7.9375,-4.40625 c -0.6407,-1.1648 -1.2916,-2.32749 -1.9688,-3.46875 z M 844.9375,371.5 c -0.66612,1.16404 -1.30898,2.3436 -1.9375,3.53125 l 7.96875,4.375 c 0.62901,-1.19244 1.29886,-2.3645 1.96875,-3.53125 l -8,-4.375 z m -16.03125,58.15625 c -0.0163,0.82114 -0.0312,1.64371 -0.0312,2.46875 0,0.51167 -0.006,1.02107 0,1.53125 l 9.125,0.0312 c -0.007,-0.51918 -0.0312,-1.04165 -0.0312,-1.5625 0,-0.81886 0.0139,-1.6228 0.0312,-2.4375 l -9.09375,-0.0312 z m 235.28125,0 c 0.018,0.82509 0.031,1.63939 0.031,2.46875 0,0.51043 -0.025,1.02242 -0.031,1.53125 l 9.0937,0.0937 c 0.01,-0.54142 0.031,-1.0819 0.031,-1.625 0,-0.79371 -0.016,-1.58489 -0.031,-2.375 l -9.0937,-0.0937 z m -212.90625,55.71875 -7.875,4.59375 c 0.63416,1.17813 1.29746,2.34547 1.96875,3.5 l 7.84375,-4.5625 c -0.67412,-1.15975 -1.3039,-2.34579 -1.9375,-3.53125 z m 199.12495,1 c -0.6436,1.17616 -1.3162,2.31845 -2,3.46875 l 7.9063,4.46875 c 0.6788,-1.14611 1.358,-2.29894 2,-3.46875 l -7.9063,-4.46875 z m -159.12495,41.78125 -4.6875,7.8125 c 1.13553,0.70681 2.27748,1.39231 3.4375,2.0625 l 4.6875,-7.8125 c -1.15757,-0.66649 -2.30623,-1.35667 -3.4375,-2.0625 z m 118.31255,0.78125 c -1.1381,0.6889 -2.2737,1.38181 -3.4376,2.03125 l 4.5313,7.875 c 1.1662,-0.65261 2.3265,-1.31067 3.4687,-2 l -4.5624,-7.90625 z m -61.2188,19 -0.0312,6.375 c 0.91417,0.0202 1.83098,0.0312 2.75,0.0312 0.41769,0 0.8333,0.004 1.25,0 l 0,-6.34375 c -0.41845,0.01 -0.82912,0.0312 -1.25,0.0312 -0.91568,0 -1.81483,-0.0483 -2.71875,-0.0937 z"
           style="font-size:medium;font-style:normal;font-variant:normal;font-weight:normal;font-stretch:normal;text-indent:0;text-align:start;text-decoration:none;line-height:normal;letter-spacing:normal;word-spacing:normal;text-transform:none;direction:ltr;block-progression:tb;writing-mode:lr-tb;text-anchor:start;baseline-shift:baseline;color:#000000;fill:#000000;fill-opacity:1;stroke:none;stroke-width:4;marker:none;visibility:visible;display:inline;overflow:visible;enable-background:accumulate;font-family:Sans;-inkscape-font-specification:Sans"
           inkscape:connector-curvature="0" />
        <path
           id="path4096"
           transform="matrix(1.6792425,0,0,1.6792425,-191.19678,-384.98466)"
           d="M 960.8125,441.90625 959.65625,447.5 c 0.3342,0.0607 0.66826,0.11986 1,0.1875 l 1.15625,-5.59375 c -0.33148,-0.0676 -0.66631,-0.12609 -1,-0.1875 z m -20.78125,0.25 c -0.32347,0.0682 -0.64748,0.14475 -0.96875,0.21875 l 1.21875,5.59375 c 0.32566,-0.0755 0.64057,-0.14994 0.96875,-0.21875 l -1.21875,-5.59375 z m 31.5,2.9375 -2.34375,5.1875 c 0.31455,0.12927 0.62637,0.27049 0.9375,0.40625 l 2.34375,-5.1875 c -0.313,-0.13693 -0.6214,-0.27518 -0.9375,-0.40625 z M 929.375,445.625 c -0.30158,0.1344 -0.60766,0.26645 -0.90625,0.40625 l 2.375,5.21875 c 0.3004,-0.14125 0.60246,-0.27113 0.90625,-0.40625 l -2.375,-5.21875 z m 51.8125,4.65625 -3.40625,4.625 c 0.27837,0.18856 0.53837,0.3995 0.8125,0.59375 l 3.375,-4.625 c -0.2657,-0.18874 -0.51197,-0.40978 -0.78125,-0.59375 z m -61.3125,0.8125 c -0.26458,0.19106 -0.52035,0.39799 -0.78125,0.59375 L 922.5,456.25 c 0.27061,-0.20335 0.53746,-0.39607 0.8125,-0.59375 l -3.4375,-4.5625 z m 69.6875,6.3125 c -0.82109,0.71485 -1.51207,1.32657 -2.5625,2.25 -0.47554,0.41804 -1.1587,1.03464 -1.71875,1.53125 0.23504,0.24191 0.45759,0.50316 0.6875,0.75 0.55529,-0.49107 1.24398,-1.11389 1.71875,-1.53125 1.05365,-0.92623 1.75037,-1.53772 2.5625,-2.25 -0.23008,-0.24848 -0.45278,-0.50594 -0.6875,-0.75 z m -77.65625,0.78125 c -0.22524,0.24374 -0.46679,0.47083 -0.6875,0.71875 L 915.5,462.6875 c 0.22522,-0.25269 0.45702,-0.50218 0.6875,-0.75 l -4.28125,-3.75 z M 1001.1875,476 995.75,477.71875 c 0.11502,0.30791 0.20371,0.62661 0.3125,0.9375 l 5.4687,-1.71875 c -0.1091,-0.31554 -0.2289,-0.62468 -0.3437,-0.9375 z m -100.21875,0.0625 c -0.11428,0.3128 -0.23519,0.62199 -0.34375,0.9375 l 5.4375,1.78125 c 0.10883,-0.31418 0.22857,-0.62634 0.34375,-0.9375 l -5.4375,-1.78125 z m -2.6875,10.78125 c -0.0473,0.33488 -0.1152,0.66315 -0.15625,1 l 5.6875,0.625 c 0.0416,-0.33607 0.10772,-0.66613 0.15625,-1 l -5.6875,-0.625 z m 105.65625,0.0937 -5.6875,0.59375 c 0.0465,0.32244 0.085,0.64426 0.125,0.96875 l 5.6875,-0.5625 c -0.04,-0.33569 -0.078,-0.66626 -0.125,-1 z M 903.5,496.5312 l -5.6875,0.4375 c 0.016,0.33429 0.0404,0.66735 0.0625,1 l 5.6875,-0.4375 c -0.0218,-0.33195 -0.0475,-0.66622 -0.0625,-1 z m 95.15625,0.84375 c -0.0208,0.33255 -0.0662,0.66933 -0.0937,1 l 5.68745,0.59375 c 0.028,-0.33135 0.04,-0.66695 0.062,-1 l -5.65575,-0.5937 z M 905,506.53125 l -5.46875,1.625 c 0.0842,0.31602 0.19146,0.62383 0.28125,0.9375 l 5.46875,-1.625 c -0.0898,-0.31455 -0.1978,-0.62033 -0.28125,-0.9375 z m 92,0.625 c -0.0904,0.3251 -0.18412,0.64649 -0.28125,0.96875 l 5.46875,1.6875 c 0.093,-0.30914 0.1622,-0.62602 0.25,-0.9375 L 997,507.15625 z m -83.4375,16.5625 -4.375,3.6875 c 0.20712,0.26235 0.41309,0.52292 0.625,0.78125 l 4.375,-3.6875 c -0.21049,-0.25751 -0.41983,-0.51929 -0.625,-0.78125 z m 73.875,1.4375 c -0.23222,0.27383 -0.44926,0.54403 -0.6875,0.8125 l 4.28125,3.78125 c 0.22946,-0.25869 0.46303,-0.5181 0.6875,-0.78125 l -4.28125,-3.8125 z m -66.65625,5.96875 -3.46875,4.5625 c 0.26047,0.21329 0.5167,0.41658 0.78125,0.625 l 3.46875,-4.5625 c -0.25878,-0.20472 -0.52686,-0.41506 -0.78125,-0.625 z M 980,532.25 c -0.25857,0.19758 -0.51856,0.40138 -0.78125,0.59375 l 3.40625,4.59375 c 0.25795,-0.189 0.4956,-0.40026 0.75,-0.59375 L 980,532.25 z m -50.4375,4.625 -2.4375,5.15625 c 0.2969,0.14945 0.57496,0.32471 0.875,0.46875 l 2.4375,-5.1875 c -0.29271,-0.14103 -0.58565,-0.2907 -0.875,-0.4375 z m 41.3125,0.84375 c -0.29858,0.13647 -0.60441,0.2758 -0.90625,0.40625 l 2.3125,5.21875 c 0.3067,-0.13273 0.60256,-0.26797 0.90625,-0.40625 l -2.3125,-5.21875 z M 939.1875,540.5 938,546.125 c 0.30902,0.0779 0.62636,0.14629 0.9375,0.21875 l 1.1875,-5.625 c -0.31528,-0.0743 -0.62467,-0.13827 -0.9375,-0.21875 z m 21.5,0.53125 c -0.31094,0.0636 -0.62439,0.12998 -0.9375,0.1875 l 1.21875,5.59375 c 0.32352,-0.0605 0.64731,-0.12115 0.96875,-0.1875 l -1.21875,-5.59375 c -0.01,0.002 -0.0213,-0.002 -0.0312,0 z"
           style="font-size:medium;font-style:normal;font-variant:normal;font-weight:normal;font-stretch:normal;text-indent:0;text-align:start;text-decoration:none;line-height:normal;letter-spacing:normal;word-spacing:normal;text-transform:none;direction:ltr;block-progression:tb;writing-mode:lr-tb;text-anchor:start;baseline-shift:baseline;color:#000000;fill:#800000;fill-opacity:1;stroke:none;stroke-width:1px;marker:none;visibility:visible;display:inline;overflow:visible;enable-background:accumulate;font-family:Sans;-inkscape-font-specification:Sans"
           inkscape:connector-curvature="0" />
        <path
           id="path96"
           transform="matrix(1.6792425,0,0,1.6792425,-191.19678,-384.98466)"
           d="m 951.09375,440.71875 c -0.77894,0 -1.54166,0.0297 -2.3125,0.0625 l 0.0625,6.3125 c 0.74578,-0.0349 1.49557,-0.0625 2.25,-0.0625 0.25157,0 0.49937,0.0273 0.75,0.0312 l -0.0625,-6.3125 c -0.23098,-0.003 -0.45583,-0.0312 -0.6875,-0.0312 z M 996.3125,465.5 l -5.5,3.125 c 0.5437,0.83715 1.0714,1.68993 1.5625,2.5625 l 5.5,-3.125 c -0.49353,-0.87596 -1.02207,-1.71796 -1.5625,-2.5625 z m -90.5,0.125 c -0.53841,0.84622 -1.07109,1.68494 -1.5625,2.5625 l 5.53125,3.09375 c 0.49098,-0.87655 0.98725,-1.75278 1.53125,-2.59375 l -5.5,-3.0625 z m 2.53125,49.125 -5.5625,3.03125 c 0.43525,0.8963 0.92342,1.78869 1.40625,2.65625 l 5.5625,-3.03125 c -0.48763,-0.8736 -0.97347,-1.74966 -1.40625,-2.65625 z m 84.9375,1.125 c -0.45785,0.89666 -0.9253,1.7938 -1.4375,2.65625 l 5.40625,3.15625 c 0.51338,-0.86583 1.03482,-1.72869 1.5,-2.625 l -5.46875,-3.1875 z m -44.4375,25.78125 0,6.3125 c 0.75024,0.0311 1.4921,0.0625 2.25,0.0625 0.25271,0 0.49812,-0.0278 0.75,-0.0312 l 0,-6.3125 c -0.25063,0.004 -0.49843,0.0312 -0.75,0.0312 -0.75443,0 -1.50422,-0.0276 -2.25,-0.0625 z"
           style="font-size:medium;font-style:normal;font-variant:normal;font-weight:normal;font-stretch:normal;text-indent:0;text-align:start;text-decoration:none;line-height:normal;letter-spacing:normal;word-spacing:normal;text-transform:none;direction:ltr;block-progression:tb;writing-mode:lr-tb;text-anchor:start;baseline-shift:baseline;color:#000000;fill:#000000;fill-opacity:1;stroke:none;stroke-width:3;marker:none;visibility:visible;display:inline;overflow:visible;enable-background:accumulate;font-family:Sans;-inkscape-font-specification:Sans"
           inkscape:connector-curvature="0" />
        <path
           style="fill:#000000;fill-opacity:1;stroke:#000000;stroke-width:0.68781453px;stroke-linecap:butt;stroke-linejoin:miter;stroke-opacity:1"
           d="m 1334.5859,479.6926 5.5192,-0.59254 -3.5967,4.22816 z"
           id="path3932-5-74-3-60-9"
           inkscape:connector-curvature="0"
           sodipodi:nodetypes="cccc"
           inkscape:transform-center-x="-0.39827362"
           inkscape:transform-center-y="-2.7543883" />
        <path
           style="fill:#000000;fill-opacity:1;stroke:#000000;stroke-width:0.68781453px;stroke-linecap:butt;stroke-linejoin:miter;stroke-opacity:1"
           d="m 1402.6045,524.31812 2.1523,-5.11661 1.9595,5.19362 z"
           id="path3932-5-74-3-60-9-5"
           inkscape:connector-curvature="0"
           sodipodi:nodetypes="cccc"
           inkscape:transform-center-x="1.5421877"
           inkscape:transform-center-y="-1.8617587" />
        <path
           style="fill:#000000;fill-opacity:1;stroke:#000000;stroke-width:0.68781453px;stroke-linecap:butt;stroke-linejoin:miter;stroke-opacity:1"
           d="m 1339.0677,402.58851 3.4099,4.38011 -5.4884,-0.83137 z"
           id="path3932-5-74-3-60-9-8"
           inkscape:connector-curvature="0"
           sodipodi:nodetypes="cccc"
           inkscape:transform-center-x="-0.32979589"
           inkscape:transform-center-y="1.5863687" />
        <path
           inkscape:transform-center-x="1.5118722"
           style="fill:#000000;fill-opacity:1;stroke:#000000;stroke-width:0.68781453px;stroke-linecap:butt;stroke-linejoin:miter;stroke-opacity:1"
           d="m 1406.699,366.03357 -2.0138,5.17276 -2.0987,-5.13901 z"
           id="path3932-5-74-3-60-9-2"
           inkscape:connector-curvature="0"
           sodipodi:nodetypes="cccc"
           inkscape:transform-center-y="1.8225432" />
        <path
           style="fill:#000000;fill-opacity:1;stroke:#000000;stroke-width:0.68781453px;stroke-linecap:butt;stroke-linejoin:miter;stroke-opacity:1"
           d="m 1474.7549,406.0291 -5.4704,0.94203 3.3207,-4.44815 z"
           id="path3932-5-74-3-60-9-9"
           inkscape:connector-curvature="0"
           sodipodi:nodetypes="cccc"
           inkscape:transform-center-x="0.36112948"
           inkscape:transform-center-y="1.7012656" />
        <path
           style="fill:#000000;fill-opacity:1;stroke:#000000;stroke-width:0.68781453px;stroke-linecap:butt;stroke-linejoin:miter;stroke-opacity:1"
           d="m 1474.3212,485.1877 -3.5499,-4.26741 5.5124,0.65323 z"
           id="path3932-5-74-3-60-9-6"
           inkscape:connector-curvature="0"
           sodipodi:nodetypes="cccc"
           inkscape:transform-center-x="1.8012765"
           inkscape:transform-center-y="1.0109485" />
        <text
           xml:space="preserve"
           style="font-size:44.49687958px;font-style:normal;font-variant:normal;font-weight:normal;font-stretch:normal;text-align:start;line-height:125%;letter-spacing:0px;word-spacing:0px;writing-mode:lr-tb;text-anchor:start;fill:#000000;fill-opacity:1;stroke:none;font-family:AlMohanad;-inkscape-font-specification:AlMohanad"
           x="1244.2794"
           y="272.07156"
           id="text3899-9-9-0-4"
           sodipodi:linespacing="125%"><tspan
             dx="0 -5.6974301"
             sodipodi:role="line"
             id="tspan3901-0-3-8-3"
             x="1244.2794"
             y="272.07156"
             style="font-size:44.49687958px;font-style:normal;font-variant:normal;font-weight:normal;font-stretch:normal;text-align:start;line-height:125%;writing-mode:lr-tb;text-anchor:start;fill:#000000;font-family:AlMohanad;-inkscape-font-specification:AlMohanad">10</tspan></text>
        <text
           xml:space="preserve"
           style="font-size:44.49687958px;font-style:normal;font-variant:normal;font-weight:normal;font-stretch:normal;text-align:start;line-height:125%;letter-spacing:0px;word-spacing:0px;writing-mode:lr-tb;text-anchor:start;fill:#000000;fill-opacity:1;stroke:none;font-family:AlMohanad;-inkscape-font-specification:AlMohanad"
           x="1291.9847"
           y="215.09726"
           id="text3899-9-9-0-4-5"
           sodipodi:linespacing="125%"><tspan
             dx="0 -7.4966187"
             sodipodi:role="line"
             id="tspan3901-0-3-8-3-3"
             x="1291.9847"
             y="215.09726"
             style="font-size:44.49687958px;font-style:normal;font-variant:normal;font-weight:normal;font-stretch:normal;text-align:start;line-height:125%;writing-mode:lr-tb;text-anchor:start;fill:#000000;font-family:AlMohanad;-inkscape-font-specification:AlMohanad">11</tspan></text>
        <text
           xml:space="preserve"
           style="font-size:44.49687958px;font-style:normal;font-variant:normal;font-weight:normal;font-stretch:normal;text-align:start;line-height:125%;letter-spacing:0px;word-spacing:0px;writing-mode:lr-tb;text-anchor:start;fill:#000000;fill-opacity:1;stroke:none;font-family:AlMohanad;-inkscape-font-specification:AlMohanad"
           x="1381.9054"
           y="191.61485"
           id="text3899-9-9-0-4-5-2"
           sodipodi:linespacing="125%"><tspan
             dx="0 -4.4979711"
             sodipodi:role="line"
             id="tspan3901-0-3-8-3-3-8"
             x="1381.9054"
             y="191.61485"
             style="font-size:44.49687958px;font-style:normal;font-variant:normal;font-weight:normal;font-stretch:normal;text-align:start;line-height:125%;writing-mode:lr-tb;text-anchor:start;fill:#000000;font-family:AlMohanad;-inkscape-font-specification:AlMohanad">12</tspan></text>
        <text
           xml:space="preserve"
           style="font-size:44.49687958px;font-style:normal;font-variant:normal;font-weight:normal;font-stretch:normal;text-align:start;line-height:125%;letter-spacing:0px;word-spacing:0px;writing-mode:lr-tb;text-anchor:start;fill:#000000;fill-opacity:1;stroke:none;font-family:AlMohanad;-inkscape-font-specification:AlMohanad"
           x="1482.3602"
           y="215.09726"
           id="text3899-9-9-0-4-5-9"
           sodipodi:linespacing="125%"><tspan
             dx="0"
             sodipodi:role="line"
             id="tspan3901-0-3-8-3-3-6"
             x="1482.3602"
             y="215.09726"
             style="font-size:44.49687958px;font-style:normal;font-variant:normal;font-weight:normal;font-stretch:normal;text-align:start;line-height:125%;writing-mode:lr-tb;text-anchor:start;fill:#000000;font-family:AlMohanad;-inkscape-font-specification:AlMohanad">1</tspan></text>
        <text
           xml:space="preserve"
           style="font-size:44.49687958px;font-style:normal;font-variant:normal;font-weight:normal;font-stretch:normal;text-align:start;line-height:125%;letter-spacing:0px;word-spacing:0px;writing-mode:lr-tb;text-anchor:start;fill:#000000;fill-opacity:1;stroke:none;font-family:AlMohanad;-inkscape-font-specification:AlMohanad"
           x="1543.4847"
           y="273.08511"
           id="text3899-9-9-0-4-5-2-2"
           sodipodi:linespacing="125%"><tspan
             dx="-4.4979711"
             sodipodi:role="line"
             id="tspan3901-0-3-8-3-3-8-7"
             x="1543.4847"
             y="273.08511"
             style="font-size:44.49687958px;font-style:normal;font-variant:normal;font-weight:normal;font-stretch:normal;text-align:start;line-height:125%;writing-mode:lr-tb;text-anchor:start;fill:#000000;font-family:AlMohanad;-inkscape-font-specification:AlMohanad">2</tspan></text>
        <text
           xml:space="preserve"
           style="font-size:44.49687958px;font-style:normal;font-variant:normal;font-weight:normal;font-stretch:normal;text-align:start;line-height:125%;letter-spacing:0px;word-spacing:0px;writing-mode:lr-tb;text-anchor:start;fill:#000000;fill-opacity:1;stroke:none;font-family:AlMohanad;-inkscape-font-specification:AlMohanad"
           x="1566.2745"
           y="355.94073"
           id="text3899-9-9-0-4-5-2-3"
           sodipodi:linespacing="125%"><tspan
             sodipodi:role="line"
             id="tspan3901-0-3-8-3-3-8-8"
             x="1566.2745"
             y="355.94073"
             style="font-size:44.49687958px;font-style:normal;font-variant:normal;font-weight:normal;font-stretch:normal;text-align:start;line-height:125%;writing-mode:lr-tb;text-anchor:start;fill:#000000;font-family:AlMohanad;-inkscape-font-specification:AlMohanad">3</tspan></text>
        <text
           xml:space="preserve"
           style="font-size:44.49687958px;font-style:normal;font-variant:normal;font-weight:normal;font-stretch:normal;text-align:start;line-height:125%;letter-spacing:0px;word-spacing:0px;writing-mode:lr-tb;text-anchor:start;fill:#000000;fill-opacity:1;stroke:none;font-family:AlMohanad;-inkscape-font-specification:AlMohanad"
           x="1222.7317"
           y="355.94073"
           id="text3899-9-9-0-4-5-2-3-2"
           sodipodi:linespacing="125%"><tspan
             sodipodi:role="line"
             id="tspan3901-0-3-8-3-3-8-8-4"
             x="1222.7317"
             y="355.94073"
             style="font-size:44.49687958px;font-style:normal;font-variant:normal;font-weight:normal;font-stretch:normal;text-align:start;line-height:125%;writing-mode:lr-tb;text-anchor:start;fill:#000000;font-family:AlMohanad;-inkscape-font-specification:AlMohanad">9</tspan></text>
        <text
           xml:space="preserve"
           style="font-size:44.49687958px;font-style:normal;font-variant:normal;font-weight:normal;font-stretch:normal;text-align:start;line-height:125%;letter-spacing:0px;word-spacing:0px;writing-mode:lr-tb;text-anchor:start;fill:#000000;fill-opacity:1;stroke:none;font-family:AlMohanad;-inkscape-font-specification:AlMohanad"
           x="1539.0402"
           y="439.09622"
           id="text3899-9-9-0-4-5-2-3-7"
           sodipodi:linespacing="125%"><tspan
             sodipodi:role="line"
             id="tspan3901-0-3-8-3-3-8-8-1"
             x="1539.0402"
             y="439.09622"
             style="font-size:44.49687958px;font-style:normal;font-variant:normal;font-weight:normal;font-stretch:normal;text-align:start;line-height:125%;writing-mode:lr-tb;text-anchor:start;fill:#000000;font-family:AlMohanad;-inkscape-font-specification:AlMohanad">4</tspan></text>
        <text
           xml:space="preserve"
           style="font-size:44.49687958px;font-style:normal;font-variant:normal;font-weight:normal;font-stretch:normal;text-align:start;line-height:125%;letter-spacing:0px;word-spacing:0px;writing-mode:lr-tb;text-anchor:start;fill:#000000;fill-opacity:1;stroke:none;font-family:AlMohanad;-inkscape-font-specification:AlMohanad"
           x="1246.6721"
           y="438.08267"
           id="text3899-9-9-0-4-5-2-3-70"
           sodipodi:linespacing="125%"><tspan
             sodipodi:role="line"
             id="tspan3901-0-3-8-3-3-8-8-9"
             x="1246.6721"
             y="438.08267"
             style="font-size:44.49687958px;font-style:normal;font-variant:normal;font-weight:normal;font-stretch:normal;text-align:start;line-height:125%;writing-mode:lr-tb;text-anchor:start;fill:#000000;font-family:AlMohanad;-inkscape-font-specification:AlMohanad">8</tspan></text>
        <text
           xml:space="preserve"
           style="font-size:33.08464432px;font-style:normal;font-variant:normal;font-weight:normal;font-stretch:normal;text-align:start;line-height:125%;letter-spacing:0px;word-spacing:0px;writing-mode:lr-tb;text-anchor:start;fill:#000000;fill-opacity:1;stroke:none;font-family:AlMohanad;-inkscape-font-specification:AlMohanad"
           x="1386.0979"
           y="392.52423"
           id="text3899-9-9-0-4-5-2-4"
           sodipodi:linespacing="125%"><tspan
             sodipodi:role="line"
             id="tspan3901-0-3-8-3-3-8-3"
             x="1386.0979"
             y="392.52423"
             style="font-size:33.08464432px;font-style:normal;font-variant:normal;font-weight:normal;font-stretch:normal;text-align:start;line-height:125%;writing-mode:lr-tb;text-anchor:start;fill:#000000;font-family:AlMohanad;-inkscape-font-specification:AlMohanad">30</tspan></text>
        <text
           xml:space="preserve"
           style="font-size:33.08464432px;font-style:normal;font-variant:normal;font-weight:normal;font-stretch:normal;text-align:start;line-height:125%;letter-spacing:0px;word-spacing:0px;writing-mode:lr-tb;text-anchor:start;fill:#000000;fill-opacity:1;stroke:none;font-family:AlMohanad;-inkscape-font-specification:AlMohanad"
           x="1339.9641"
           y="423.48331"
           id="text3899-9-9-0-4-5-2-4-9"
           sodipodi:linespacing="125%"><tspan
             sodipodi:role="line"
             id="tspan3901-0-3-8-3-3-8-3-4"
             x="1339.9641"
             y="423.48331"
             style="font-size:33.08464432px;font-style:normal;font-variant:normal;font-weight:normal;font-stretch:normal;text-align:start;line-height:125%;writing-mode:lr-tb;text-anchor:start;fill:#000000;font-family:AlMohanad;-inkscape-font-specification:AlMohanad">25</tspan></text>
        <text
           xml:space="preserve"
           style="font-size:33.08464432px;font-style:normal;font-variant:normal;font-weight:normal;font-stretch:normal;text-align:start;line-height:125%;letter-spacing:0px;word-spacing:0px;writing-mode:lr-tb;text-anchor:start;fill:#000000;fill-opacity:1;stroke:none;font-family:AlMohanad;-inkscape-font-specification:AlMohanad"
           x="1451.9635"
           y="423.48331"
           id="text3899-9-9-0-4-5-2-4-6"
           sodipodi:linespacing="125%"><tspan
             sodipodi:role="line"
             id="tspan3901-0-3-8-3-3-8-3-3"
             x="1451.9635"
             y="423.48331"
             style="font-size:33.08464432px;font-style:normal;font-variant:normal;font-weight:normal;font-stretch:normal;text-align:start;line-height:125%;writing-mode:lr-tb;text-anchor:start;fill:#000000;font-family:AlMohanad;-inkscape-font-specification:AlMohanad">5</tspan></text>
        <text
           xml:space="preserve"
           style="font-size:33.08464432px;font-style:normal;font-variant:normal;font-weight:normal;font-stretch:normal;text-align:start;line-height:125%;letter-spacing:0px;word-spacing:0px;writing-mode:lr-tb;text-anchor:start;fill:#000000;fill-opacity:1;stroke:none;font-family:AlMohanad;-inkscape-font-specification:AlMohanad"
           x="1437.9299"
           y="482.70657"
           id="text3899-9-9-0-4-5-2-4-3"
           sodipodi:linespacing="125%"><tspan
             dx="0 -3.598377"
             sodipodi:role="line"
             id="tspan3901-0-3-8-3-3-8-3-34"
             x="1437.9299"
             y="482.70657"
             style="font-size:33.08464432px;font-style:normal;font-variant:normal;font-weight:normal;font-stretch:normal;text-align:start;line-height:125%;writing-mode:lr-tb;text-anchor:start;fill:#000000;font-family:AlMohanad;-inkscape-font-specification:AlMohanad">10</tspan></text>
        <text
           xml:space="preserve"
           style="font-size:33.08464432px;font-style:normal;font-variant:normal;font-weight:normal;font-stretch:normal;text-align:start;line-height:125%;letter-spacing:0px;word-spacing:0px;writing-mode:lr-tb;text-anchor:start;fill:#000000;fill-opacity:1;stroke:none;font-family:AlMohanad;-inkscape-font-specification:AlMohanad"
           x="1386.1432"
           y="515.39185"
           id="text3899-9-9-0-4-5-2-4-1"
           sodipodi:linespacing="125%"><tspan
             dx="0 -3.4484444"
             sodipodi:role="line"
             id="tspan3901-0-3-8-3-3-8-3-6"
             x="1386.1432"
             y="515.39185"
             style="font-size:33.08464432px;font-style:normal;font-variant:normal;font-weight:normal;font-stretch:normal;text-align:start;line-height:125%;writing-mode:lr-tb;text-anchor:start;fill:#000000;font-family:AlMohanad;-inkscape-font-specification:AlMohanad">15</tspan></text>
        <text
           xml:space="preserve"
           style="font-size:33.08464432px;font-style:normal;font-variant:normal;font-weight:normal;font-stretch:normal;text-align:start;line-height:125%;letter-spacing:0px;word-spacing:0px;writing-mode:lr-tb;text-anchor:start;fill:#000000;fill-opacity:1;stroke:none;font-family:AlMohanad;-inkscape-font-specification:AlMohanad"
           x="1340.2639"
           y="482.70657"
           id="text3899-9-9-0-4-5-2-4-2"
           sodipodi:linespacing="125%"><tspan
             sodipodi:role="line"
             id="tspan3901-0-3-8-3-3-8-3-0"
             x="1340.2639"
             y="482.70657"
             style="font-size:33.08464432px;font-style:normal;font-variant:normal;font-weight:normal;font-stretch:normal;text-align:start;line-height:125%;writing-mode:lr-tb;text-anchor:start;fill:#000000;font-family:AlMohanad;-inkscape-font-specification:AlMohanad">20</tspan></text>
        <g
           id="text3899-9-9-0-4-5-2-3-2-2"
           style="font-size:44.49687958px;font-style:normal;font-variant:normal;font-weight:normal;font-stretch:normal;text-align:start;line-height:125%;letter-spacing:0px;word-spacing:0px;writing-mode:lr-tb;text-anchor:start;fill:#ff0000;fill-opacity:1;stroke:none;font-family:AlMohanad;-inkscape-font-specification:AlMohanad">
          <path
             id="path4450"
             style="font-size:16.79242516px;fill:#ff0000"
             d="m 1394.4758,403.06397 0.6467,1.62234 c -0.7103,-0.27592 -1.4074,-0.41581 -2.0916,-0.41968 -0.6791,-0.006 -1.3486,0.12275 -2.0087,0.38587 -1.2999,0.51818 -2.1363,1.3135 -2.5091,2.38597 -0.3748,1.06741 -0.2626,2.35262 0.3365,3.85562 0.5971,1.49793 1.3998,2.50786 2.4082,3.02978 1.0063,0.51685 2.1594,0.51619 3.4593,-0.002 0.6601,-0.26312 1.2346,-0.6304 1.7234,-1.10183 0.4939,-0.47344 0.9036,-1.05459 1.2293,-1.74343 l 0.6406,1.6071 c -0.3925,0.58015 -0.8544,1.08206 -1.3858,1.50572 -0.5263,0.42164 -1.1246,0.76605 -1.7949,1.03323 -1.7213,0.68617 -3.2866,0.70106 -4.6957,0.0447 -1.4112,-0.66146 -2.4801,-1.90365 -3.2067,-3.72656 -0.7287,-1.82797 -0.8075,-3.46485 -0.2363,-4.91065 0.5692,-1.45085 1.7144,-2.51937 3.4358,-3.20555 0.6804,-0.27121 1.3566,-0.43485 2.0286,-0.49091 0.6751,-0.0631 1.3486,-0.0197 2.0204,0.1303"
             inkscape:connector-curvature="0" />
          <path
             id="path4452"
             style="font-size:16.79242516px;fill:#ff0000"
             d="m 1400.9426,401.00453 7.737,-0.22534 0.041,1.39331 -6.0814,0.17712 0.1055,3.62261 5.8273,-0.16972 0.041,1.39331 -5.8273,0.16972 0.1291,4.43401 6.2289,-0.18141 0.041,1.39331 -7.8845,0.22963 -0.3564,-12.23655"
             inkscape:connector-curvature="0" />
          <path
             id="path4454"
             style="font-size:16.79242516px;fill:#ff0000"
             d="m 1415.8364,401.79216 1.5715,0.52342 -1.9123,5.74107 7.5289,-3.87023 2.0148,0.67112 -6.0174,3.09462 2.3821,8.5975 -1.7114,-0.57007 -2.037,-7.32446 -2.8467,1.46301 -1.2697,3.81182 -1.5714,-0.52342 3.8686,-11.61438"
             inkscape:connector-curvature="0" />
        </g>
      </g>
    </g>
  </g>
</svg>
