<?xml version="1.0" encoding="UTF-8" standalone="no"?>
<!-- Created with Inkscape (http://www.inkscape.org/) -->

<svg
   xmlns:dc="http://purl.org/dc/elements/1.1/"
   xmlns:cc="http://creativecommons.org/ns#"
   xmlns:rdf="http://www.w3.org/1999/02/22-rdf-syntax-ns#"
   xmlns:svg="http://www.w3.org/2000/svg"
   xmlns="http://www.w3.org/2000/svg"
   xmlns:xlink="http://www.w3.org/1999/xlink"
   xmlns:sodipodi="http://sodipodi.sourceforge.net/DTD/sodipodi-0.dtd"
   xmlns:inkscape="http://www.inkscape.org/namespaces/inkscape"
   width="744.09448"
   height="1052.3622"
   id="svg2"
   version="1.1"
   inkscape:version="0.48.4 r9939"
   sodipodi:docname="clock.svg">
  <defs
     id="defs4">
    <linearGradient
       id="linearGradient4368">
      <stop
         style="stop-color:#f9ff00;stop-opacity:1;"
         offset="0"
         id="stop4370" />
      <stop
         id="stop4376"
         offset="0.90046781"
         style="stop-color:#ffffff;stop-opacity:1;" />
      <stop
         style="stop-color:#fffa00;stop-opacity:1;"
         offset="1"
         id="stop4372" />
    </linearGradient>
    <linearGradient
       id="linearGradient3916">
      <stop
         style="stop-color:#008000;stop-opacity:1;"
         offset="0"
         id="stop3918" />
      <stop
         style="stop-color:#ffffff;stop-opacity:1;"
         offset="1"
         id="stop3920" />
    </linearGradient>
    <linearGradient
       id="linearGradient3891">
      <stop
         style="stop-color:#008002;stop-opacity:1;"
         offset="0"
         id="stop3893" />
      <stop
         style="stop-color:#feff00;stop-opacity:1;"
         offset="1"
         id="stop3895" />
    </linearGradient>
    <linearGradient
       inkscape:collect="always"
       xlink:href="#linearGradient3891"
       id="linearGradient3001"
       gradientUnits="userSpaceOnUse"
       gradientTransform="matrix(0.29865331,0,0,0.29865331,145.18568,542.05816)"
       x1="13.754464"
       y1="604.88617"
       x2="-202.78572"
       y2="600.60046" />
    <linearGradient
       inkscape:collect="always"
       xlink:href="#linearGradient3916"
       id="linearGradient4370"
       gradientUnits="userSpaceOnUse"
       x1="433.00894"
       y1="108.5067"
       x2="237.29465"
       y2="382.07812" />
    <radialGradient
       inkscape:collect="always"
       xlink:href="#linearGradient4368"
       id="radialGradient4374"
       cx="951.09375"
       cy="494.375"
       fx="951.09375"
       fy="494.375"
       r="53.95475"
       gradientUnits="userSpaceOnUse" />
    <radialGradient
       inkscape:collect="always"
       xlink:href="#linearGradient4368"
       id="radialGradient4524"
       gradientUnits="userSpaceOnUse"
       cx="951.09375"
       cy="494.375"
       fx="951.09375"
       fy="494.375"
       r="53.95475" />
    <radialGradient
       inkscape:collect="always"
       xlink:href="#linearGradient4368"
       id="radialGradient3063"
       gradientUnits="userSpaceOnUse"
       cx="951.09375"
       cy="494.375"
       fx="951.09375"
       fy="494.375"
       r="53.95475" />
  </defs>
  <sodipodi:namedview
     id="base"
     pagecolor="#ffffff"
     bordercolor="#666666"
     borderopacity="1.0"
     inkscape:pageopacity="0.0"
     inkscape:pageshadow="2"
     inkscape:zoom="2"
     inkscape:cx="275.92647"
     inkscape:cy="813.26109"
     inkscape:document-units="px"
     inkscape:current-layer="g4308"
     showgrid="false"
     showguides="true"
     inkscape:guide-bbox="true"
     inkscape:window-width="1855"
     inkscape:window-height="1056"
     inkscape:window-x="65"
     inkscape:window-y="24"
     inkscape:window-maximized="1"
     fit-margin-top="0"
     fit-margin-left="0"
     fit-margin-right="0"
     fit-margin-bottom="0"
     inkscape:snap-nodes="false" />
  <metadata
     id="metadata7">
    <rdf:RDF>
      <cc:Work
         rdf:about="">
        <dc:format>image/svg+xml</dc:format>
        <dc:type
           rdf:resource="http://purl.org/dc/dcmitype/StillImage" />
        <dc:title></dc:title>
      </cc:Work>
    </rdf:RDF>
  </metadata>
  <g
     inkscape:label="Layer 1"
     inkscape:groupmode="layer"
     id="layer1"
     transform="translate(-34.295135,279.12318)">
    <g
       transform="translate(-1.5958687,158.06566)"
       style="font-size:23.02064896px;font-style:normal;font-variant:normal;font-weight:normal;font-stretch:normal;text-align:start;line-height:125%;letter-spacing:0px;word-spacing:0px;writing-mode:lr-tb;text-anchor:start;fill:#ffff00;fill-opacity:1;stroke:none;font-family:AlMohanad;-inkscape-font-specification:AlMohanad"
       id="text3899-9-9-71-3" />
    <g
       id="g4308"
       transform="matrix(0.59550661,0,0,0.59550661,148.15408,-49.862269)">
      <path
         inkscape:connector-curvature="0"
         style="fill:#ffffff;fill-opacity:1;fill-rule:nonzero;stroke:#000000;stroke-width:0.44505504;stroke-linejoin:round;stroke-miterlimit:4;stroke-opacity:1;stroke-dasharray:none;stroke-dashoffset:0"
         d="m 446.9416,-278.90339 c -146.03098,0 -264.42822,118.3973 -264.42822,264.375743 0,145.978447 118.39724,264.270787 264.42822,264.270787 146.03119,0 264.37574,-118.29234 264.37574,-264.270787 0,-145.978443 -118.34455,-264.375743 -264.37574,-264.375743 z"
         id="path3065"
         sodipodi:nodetypes="sssss" />
      <path
         style="font-size:medium;font-style:normal;font-variant:normal;font-weight:normal;font-stretch:normal;text-indent:0;text-align:start;text-decoration:none;line-height:normal;letter-spacing:normal;word-spacing:normal;text-transform:none;direction:ltr;block-progression:tb;writing-mode:lr-tb;text-anchor:start;baseline-shift:baseline;color:#000000;fill:#faffc7;fill-opacity:1;stroke:none;stroke-width:1.50000000000000000;marker:none;visibility:visible;display:inline;overflow:visible;enable-background:accumulate;font-family:Sans;-inkscape-font-specification:Sans"
         d="m 440.11973,-225.22481 c -116.75416,0 -211.42721,97.39781 -211.42721,217.5668529 0,120.1690471 94.67305,217.6193271 211.42721,217.6193271 116.75338,0 211.37418,-97.45028 211.37468,-217.6193271 0,-120.1690429 -94.6213,-217.5668529 -211.37468,-217.5668529 z m -5.45754,1.15447 c 0.0873,-0.002 0.17548,0.002 0.2623,0 l 0.0521,15.06071 c -5.72252,0.1508 -11.35923,0.56083 -16.94977,1.20696 l -1.83659,-14.95576 c 6.08776,-0.70881 12.23664,-1.14942 18.47167,-1.31191 z m 26.97266,1.04953 c 7.11159,0.74293 14.10732,1.90529 20.99053,3.35849 l -2.93867,14.74584 c -6.37205,-1.34801 -12.83462,-2.45508 -19.41607,-3.14857 z m -70.10837,4.72287 3.41104,14.58842 0,0.0524 c -5.81908,1.41487 -11.55453,3.04897 -17.15967,4.98525 l -4.88038,-14.1686 c 6.09162,-2.1116 12.30213,-3.9191 18.62901,-5.45754 z m 114.81823,5.14268 c 5.433,1.85348 10.7795,3.9057 16.0053,6.19221 l -5.72,13.85375 c -4.8243,-2.11227 -9.732,-4.00434 -14.74573,-5.71992 z m -66.22498,5.19516 c 107.53348,0 194.63458,89.62283 194.63458,200.3021429 0,96.8256801 -66.5762,177.9236371 -155.3299,196.3139471 -26.35823,5.4616 -52.62309,5.49228 -78.60954,0 C 312.13497,169.91336 245.43246,89.167713 245.43246,-7.6579571 245.43246,-118.33727 332.58577,-207.9601 440.11973,-207.9601 z m -91.25642,5.24763 6.29716,13.53889 c -4.39105,2.18122 -8.70788,4.5307 -12.90918,7.03183 l -7.45164,-13.01413 c 4.564,-2.72005 9.29086,-5.18805 14.06366,-7.55659 z m 200.4596,10.02298 c 4.8961,3.06767 9.6509,6.35628 14.2735,9.81307 l -8.711,12.06956 c -4.242,-3.1667 -8.5773,-6.21092 -13.0667,-9.02593 z m -237.61284,13.59137 8.8685,11.91212 c -4.4502,3.53736 -8.72241,7.31907 -12.8567,11.22994 l -9.97051,-11.07251 c 4.4724,-4.23333 9.1418,-8.24338 13.95871,-12.06955 z m 270.98774,12.33194 c 4.5785,4.34885 8.983,8.89583 13.1717,13.64384 l -10.8627,10.07546 c -3.8761,-4.39258 -7.9395,-8.56874 -12.1745,-12.59432 z m -302.68345,18.68157 11.12499,9.7606 c -3.6221,4.36907 -7.03136,8.91165 -10.28536,13.59136 l -12.01708,-8.60611 c 3.524,-5.0785 7.25026,-10.00738 11.17745,-14.74585 z m 331.12565,14.37851 c 3.5435,5.08403 6.8572,10.34289 9.9705,15.7429 l -12.8042,7.29421 c -2.7829,-4.80203 -5.7716,-9.47833 -8.921,-14.01118 z m -357.04895,24.97873 12.80422,7.24174 c -2.2682,4.424183 -4.39953,8.927613 -6.34963,13.538893 l -13.43394,-5.92982 c 2.13819,-5.06437 4.48455,-9.996603 6.97935,-14.850813 z m 379.19395,15.270623 c 2.5313,6.03162 4.7702,12.22307 6.7694,18.52414 l -13.9586,4.51296 c -1.8434,-5.7872 -3.919,-11.45945 -6.2447,-17.00233 z m -394.56952,23.08958 13.95871,4.46049 c -1.6329,5.56833 -2.97973,11.24211 -4.14563,17.00233 l -14.32604,-2.99115 c 1.2618,-6.25315 2.73967,-12.42915 4.51296,-18.47167 z m 407.53122,19.41624 c 1.2563,6.3698 2.1859,12.8564 2.8861,19.41624 l -14.536,1.52182 c -0.6478,-6.03045 -1.5224,-11.98392 -2.6762,-17.84196 z m -415.56009,23.03711 14.53594,1.46934 c -0.43079,4.78809 -0.68775,9.60417 -0.78715,14.48346 l -14.58841,-0.0524 c 0.10327,-5.35705 0.36521,-10.64566 0.83962,-15.90033 z m 405.11729,22.9846299 14.5884,0.15735 c -0.074,5.83155 -0.3789,11.60576 -0.8922,17.3171801 -0.2267,2.98971 -0.5332,3.13434 0,0 l -14.4835,-1.46933 c 0.4731,-5.2752301 0.7179,-10.6187101 0.7873,-16.0052801 z M 245.48494,13.752383 c 0.61759,6.02932 1.44894,11.98209 2.57134,17.84196 l -14.27356,3.04362 c -1.2245,-6.37025 -2.16493,-12.85801 -2.83372,-19.41624 z m 385.91087,21.20044 14.3786,3.04363 c -1.3327,6.39595 -2.9597,12.66669 -4.8279,18.839 l -13.9587,-4.51296 c 1.7238,-5.68726 3.1738,-11.47714 4.408,-17.36967 z m -377.67209,19.04891 c 1.83001,5.87436 3.91909,11.63858 6.24469,17.26471 l -13.43394,5.92982 c -2.51893,-6.08623 -4.79107,-12.32852 -6.76945,-18.68157 z m 365.28769,20.1509 13.3816,6.08726 c -2.3834,5.51885 -4.9598,10.89883 -7.7665,16.1627 l -12.7518,-7.50411 c 2.563,-4.81167 4.9551,-9.70519 7.1367,-14.74585 z m -348.28536,19.31129 c 2.65351,4.70533 5.49816,9.295207 8.50117,13.748787 l -11.9646,8.50117 c -3.21461,-4.76388 -6.28878,-9.6614 -9.13088,-14.69337 z m 327.97696,16.739947 c 0,-0.008 0.047,0.008 0.052,0 l 11.9646,8.81602 c -4.0836,5.81755 -8.4543,11.42949 -13.0667,16.79242 l -10.9675,-10.12793 c 4.2537,-4.95354 8.2412,-10.1167 12.017,-15.48051 z m -305.35966,15.58547 c 3.9746,4.63208 8.17415,9.09243 12.54184,13.32899 l -10.07545,10.81013 c -4.73479,-4.5948 -9.23429,-9.40517 -13.53889,-14.43099 z m 276.91766,16.84491 9.8656,11.28241 c -4.696,4.31357 -9.5815,8.46052 -14.641,12.33193 l -8.7111,-12.27946 c 4.6572,-3.57559 9.1633,-7.35563 13.4865,-11.33488 z m -247.74082,10.8626 c 4.52971,3.50592 9.24005,6.82199 14.06366,9.91802 l -7.45164,12.8567 c -5.3058,-3.398 -10.50442,-6.95357 -15.48052,-10.81012 l 0,-0.0524 z m 212.79142,14.79832 7.3467,13.11908 c -5.2706,3.0354 -10.6765,5.8796 -16.2151,8.44869 l -5.9297,-13.9587 c 0.4775,-0.21872 11.8186,-5.90548 14.7981,-7.60907 z m -176.68771,7.34669 c 5.78751,2.72131 11.7144,5.15707 17.7894,7.29421 l -4.67031,14.22108 c -6.59237,-2.3296 -13.03344,-4.95801 -19.31129,-7.92392 z m 141.58114,8.44869 c -0.40487,0.13669 -0.79848,0.28757 -1.20704,0.41981 l 4.51313,14.37851 c -6.19439,2.01172 -12.51707,3.66755 -18.94404,5.0902 l -3.04363,-14.69337 c -0.59361,0.13165 -1.18873,0.24133 -1.78419,0.36734 6.95777,-1.48996 13.79817,-3.33911 20.46577,-5.56249 z m -101.69913,5.14268 c 0.66717,0.14676 1.32442,0.28014 1.9941,0.41981 5.24243,1.07186 10.52566,1.92975 15.79529,2.57134 l -1.62668,15.0607 c -6.55156,-0.81236 -13.01161,-1.94117 -19.36385,-3.35848 z m 59.24586,3.67334 1.52173,15.0607 c -5.60649,0.52089 -11.27746,0.83272 -17.00233,0.8921 l -0.0521,-15.16566 c 5.21137,-0.0494 10.39754,-0.32955 15.533,-0.78714 z"
         id="path3925-0"
         inkscape:connector-curvature="0"
         sodipodi:nodetypes="ssssscccccccccccccccccccsccsscssscccccccccccccccccccccccccccccccccccccccccccccccccccccccccccccccccccccccccccccccccccccccccccccccccccccccccccccccccccccccccccccccccccccccccccccc" />
      <path
         inkscape:connector-curvature="0"
         style="font-size:medium;font-style:normal;font-variant:normal;font-weight:normal;font-stretch:normal;text-indent:0;text-align:start;text-decoration:none;line-height:normal;letter-spacing:normal;word-spacing:normal;text-transform:none;direction:ltr;block-progression:tb;writing-mode:lr-tb;text-anchor:start;baseline-shift:baseline;color:#000000;fill:#ff0000;fill-opacity:1;stroke:none;stroke-width:1.5;marker:none;visibility:visible;display:inline;overflow:visible;enable-background:accumulate;font-family:Sans;-inkscape-font-specification:Sans"
         d="m 459.07329,-223.23815 -1.34799,14.98423 c 0.84328,0.0776 1.69406,0.13355 2.53422,0.22198 l 1.348,-14.98422 c -0.83901,-0.0878 -1.69234,-0.14456 -2.53423,-0.22199 z m -42.86626,0.49948 c -0.84462,0.0983 -1.69269,0.16906 -2.53423,0.27748 l 1.83327,14.98423 c 0.83316,-0.10727 1.69784,-0.18097 2.53423,-0.27748 z m 66.42922,3.05234 -2.96559,14.76224 c 0.83248,0.17617 1.65174,0.36802 2.48031,0.55497 l 3.01952,-14.76224 c -0.84153,-0.18908 -1.68898,-0.37628 -2.53424,-0.55497 z m -88.64419,0.77695 c -0.83347,0.19172 -1.65061,0.4086 -2.48032,0.61047 l 3.39695,14.65125 c 0.82878,-0.20159 1.6475,-0.41975 2.48031,-0.61047 z m 109.8886,4.93926 -4.47534,14.37376 c 0.82378,0.26944 1.66132,0.49664 2.48031,0.77695 l 4.47534,-14.31826 c -0.82491,-0.28159 -1.6509,-0.56113 -2.48031,-0.83245 z m -130.97125,1.10993 c -0.81168,0.28111 -1.61918,0.54147 -2.42639,0.83247 l 4.85278,14.26277 c 0.80372,-0.29002 1.61793,-0.55299 2.42639,-0.83247 z m 149.41184,5.8827 -5.7155,13.8743 c 0.78712,0.34434 1.53674,0.69983 2.31855,1.05444 l 5.71558,-13.87429 c -0.78102,-0.35319 -1.53277,-0.71077 -2.31863,-1.05445 z m -171.19545,3.05235 c -0.7712,0.37076 -1.5525,0.72986 -2.31856,1.10994 l 6.36255,13.6523 c 0.76715,-0.38088 1.54585,-0.73912 2.31855,-1.10994 z m 212.44402,21.03342 -8.681,12.15388 c 0.71571,0.53462 1.4485,1.0096 2.15679,1.55391 l 8.62717,-12.15387 c -0.68741,-0.52718 -1.40898,-1.03523 -2.10296,-1.55392 z m -249.81046,2.10889 c -0.69816,0.54023 -1.35757,1.11598 -2.04895,1.66491 l 8.84285,11.93189 c 0.69278,-0.55081 1.40275,-1.06799 2.10287,-1.60941 z m 267.06481,12.20937 -9.86725,11.15493 c 0.63963,0.5926 1.25526,1.23028 1.88711,1.8314 l 9.86742,-11.15492 c -0.63341,-0.6017 -1.24663,-1.23767 -1.88728,-1.83141 z m -283.079,1.55392 c -0.64258,0.60829 -1.30594,1.21503 -1.94112,1.83141 l 10.0291,11.04393 c 0.62413,-0.60628 1.25533,-1.23354 1.88719,-1.83141 z m 298.12272,13.87429 -10.89181,10.10048 c 0.56008,0.63473 1.11929,1.30034 1.67143,1.9424 l 10.89198,-10.10048 c -0.55835,-0.64795 -1.10583,-1.30142 -1.6716,-1.9424 z m -314.19083,3.05234 c -0.56244,0.662 -1.11682,1.32882 -1.67151,1.9979 l 11.1614,9.823 c 0.55357,-0.66807 1.10966,-1.33742 1.67151,-1.9979 z m 327.88647,14.20727 -11.70069,9.04604 c 0.50693,0.70956 1.01179,1.44777 1.50976,2.16439 l 11.80852,-9.04604 c -0.51677,-0.7414 -1.09203,-1.43004 -1.61759,-2.16439 z m -340.77331,2.49738 c -0.49436,0.71224 -0.96968,1.44574 -1.45583,2.16438 l 12.02412,8.65756 c 0.49069,-0.72571 1.01005,-1.44569 1.50976,-2.16439 z m 363.47363,37.516073 -13.48013,5.99369 c 0.35217,0.80933 0.68259,1.62693 1.02457,2.44187 l 13.47996,-5.99369 c -0.34164,-0.81411 -0.67344,-1.63298 -1.0244,-2.44187 z m -385.20332,1.99789 c -0.34315,0.81287 -0.69076,1.62386 -1.02447,2.44188 l 13.53387,5.93819 c 0.33338,-0.81828 0.68096,-1.62911 1.02448,-2.44187 z m 393.02162,18.92453 -14.01916,4.55077 c 0.27073,0.84986 0.54886,1.69805 0.80888,2.55287 l 14.01916,-4.55077 c -0.26019,-0.85521 -0.53868,-1.70226 -0.80888,-2.55287 z m -400.62431,2.0534 c -0.2603,0.8486 -0.5045,1.69977 -0.75488,2.55287 l 14.01916,4.43977 c 0.25057,-0.85496 0.4936,-1.70276 0.75487,-2.55287 z m 406.23197,19.31301 -14.34268,3.10784 c 0.18272,0.86893 0.36735,1.73529 0.53921,2.60836 l 14.34267,-3.10784 c -0.17255,-0.8727 -0.35665,-1.73952 -0.5392,-2.60836 z m -411.51611,1.66491 c -0.17622,0.87249 -0.37321,1.73206 -0.5392,2.60837 l 14.34267,2.99684 c 0.16478,-0.8733 0.36343,-1.73913 0.5392,-2.60836 z m 414.96698,20.36745 -14.55836,1.55392 c 0.0949,0.8871 0.18549,1.77332 0.26969,2.66387 l 14.55818,-1.60942 c -0.0828,-0.87117 -0.17685,-1.74027 -0.26951,-2.60837 z m -418.20217,0.99895 c -0.0904,0.88478 -0.18958,1.77595 -0.2696,2.66387 l 14.55835,1.44292 c 0.08,-0.88925 0.17838,-1.778 0.2696,-2.66386 z m 14.28875,41.62286 -14.55835,1.49843 c 0.0795,0.88584 0.12578,1.78114 0.21567,2.66386 l 14.61228,-1.49842 c -0.0909,-0.88769 -0.18988,-1.77277 -0.2696,-2.66387 z m 389.73241,0 c -0.0793,0.89092 -0.17858,1.77636 -0.26951,2.66387 l 14.55835,1.55392 c 0.0915,-0.90302 0.18808,-1.81306 0.26969,-2.71936 z m -386.87466,20.53395 -14.34267,3.05234 c 0.16822,0.87501 0.36069,1.7372 0.53919,2.60837 l 14.34268,-3.05235 c -0.17848,-0.86957 -0.37166,-1.73469 -0.5392,-2.60836 z m 383.85516,0.72146 c -0.17083,0.87664 -0.35682,1.73588 -0.53903,2.60837 l 14.3425,3.05234 c 0.18135,-0.86966 0.36821,-1.73487 0.53937,-2.60837 z m -378.94845,19.14652 -14.01916,4.49527 c 0.25556,0.85737 0.54322,1.70007 0.8088,2.55287 l 13.96524,-4.49527 c -0.26381,-0.84537 -0.50167,-1.70267 -0.75488,-2.55287 z m 373.98783,0.83246 c -0.25089,0.83013 -0.49366,1.67189 -0.75471,2.49737 l 13.96515,4.55076 c 0.26174,-0.82906 0.50261,-1.66395 0.75487,-2.49737 z m -366.97826,18.98002 -13.47995,5.93819 c 0.34445,0.83181 0.67024,1.67096 1.02447,2.49738 l 13.42603,-5.9937 c -0.34582,-0.80553 -0.63471,-1.63083 -0.97055,-2.44187 z m 360.02268,0.44398 c -0.33939,0.8142 -0.67499,1.63326 -1.02456,2.44187 l 13.42612,6.04919 c 0.34957,-0.80983 0.68431,-1.62684 1.0244,-2.44187 z m -340.7733,35.407177 -12.02412,8.65755 c 0.50271,0.74484 0.99823,1.48191 1.50976,2.21989 l 12.02412,-8.65756 c -0.50309,-0.72455 -1.01584,-1.48823 -1.50976,-2.21988 z m 321.03865,0.94345 c -0.50693,0.74192 -0.99351,1.48537 -1.50976,2.21989 l 11.9702,8.76854 c 0.50417,-0.71819 1.01404,-1.43962 1.50975,-2.16438 z m -308.58317,15.5392 -11.16141,9.8785 c 0.56515,0.67633 1.15233,1.32885 1.72544,1.9979 l 11.1614,-9.823 c -0.58456,-0.68069 -1.14974,-1.36455 -1.72543,-2.0534 z m 295.04937,2.10889 c -0.57371,0.66762 -1.14344,1.33822 -1.72543,1.9979 l 10.89163,10.10048 c 0.58268,-0.66067 1.15087,-1.32981 1.72543,-1.9979 z m -280.81454,13.26382 -10.13693,10.93294 c 0.65355,0.63436 1.33365,1.2611 1.99504,1.88691 l 10.08301,-11.04394 c -0.63829,-0.60264 -1.31066,-1.16471 -1.94112,-1.77591 z m 266.31003,1.88691 c -0.64739,0.61054 -1.28579,1.22975 -1.94112,1.8314 l 9.81341,11.21043 c 0.64549,-0.59319 1.30288,-1.1747 1.94111,-1.77592 z m -251.69775,10.87744 -8.95069,12.09838 c 0.68236,0.54254 1.35997,1.07536 2.04895,1.60941 l 8.95069,-12.09838 c -0.68652,-0.53131 -1.36951,-1.06906 -2.04895,-1.60941 z m 236.27668,2.27538 c -0.70156,0.53734 -1.39416,1.08158 -2.10296,1.60941 l 8.62717,12.20937 c 0.7076,-0.52752 1.40208,-1.07309 2.10296,-1.60941 z m -200.47392,20.36745 -6.30862,13.70779 c 0.79053,0.38588 1.57657,0.78945 2.37248,1.16545 l 6.25469,-13.7078 c -0.78447,-0.36955 -1.53971,-0.78559 -2.31855,-1.16544 z m 164.18587,1.60943 c -0.7711,0.35825 -1.54217,0.70622 -2.31855,1.05444 l 5.82334,13.87429 c 0.7975,-0.35767 1.58015,-0.68695 2.37247,-1.05445 z m -144.07377,6.82614 -4.74495,14.37376 c 0.80774,0.28545 1.61423,0.55689 2.4264,0.83246 l 4.74493,-14.31827 c -0.81346,-0.27535 -1.61767,-0.60196 -2.42638,-0.88795 z m 124.98616,0.83246 c -0.82723,0.28072 -1.64825,0.56283 -2.48032,0.83245 l 4.52927,14.37376 c 0.83276,-0.27066 1.65207,-0.55145 2.48031,-0.83245 z m -105.46719,4.93924 -3.23519,14.81774 c 0.84847,0.20084 1.68187,0.36473 2.53424,0.55497 l 3.23519,-14.76224 c -0.84862,-0.18887 -1.68978,-0.41032 -2.53424,-0.61047 z m 85.51685,0.66597 c -0.59354,0.13159 -1.18382,0.26246 -1.77935,0.38848 -0.0432,0.008 -0.0647,-0.008 -0.10785,0 -0.19554,0.0947 -0.39685,0.18427 -0.59311,0.27748 l 3.01951,14.65125 c 0.84675,-0.17634 1.6912,-0.36813 2.53423,-0.55497 z m -65.14153,2.34353 -1.71906,15.69304 c 0.84381,0.1048 1.68739,0.23857 2.53424,0.33298 l 1.71906,-15.36005 c -0.8483,-0.20874 -1.69511,-0.43343 -2.53424,-0.66597 z m 43.95924,0.62291 c -0.85596,0.20078 -1.72339,0.37869 -2.58816,0.55496 l 1.55548,15.18114 c 0.86108,-0.0803 1.7301,-0.13107 2.58815,-0.222 z"
         id="path3925"
         sodipodi:nodetypes="cccccccccccccccccccccccccccccccccccccccccccccccccccccccccccccccccccccccccccccccccccccccccccccccccccccccccccccccccccccccccccccccccccccccccccccccccccccccccccccccccccccccccccccccccccccccccccccccccccccccccccccccccccccccccccccccccccccccccccccccccc" />
      <path
         style="font-size:medium;font-style:normal;font-variant:normal;font-weight:normal;font-stretch:normal;text-indent:0;text-align:start;text-decoration:none;line-height:normal;letter-spacing:normal;word-spacing:normal;text-transform:none;direction:ltr;block-progression:tb;writing-mode:lr-tb;text-anchor:start;baseline-shift:baseline;color:#000000;fill:#000000;fill-opacity:1;fill-rule:nonzero;stroke:none;stroke-width:0.597;marker:none;visibility:visible;display:inline;overflow:visible;enable-background:accumulate;font-family:Sans;-inkscape-font-specification:Sans"
         d="m 440.09351,-225.23605 c -116.75363,0 -211.41965,97.43528 -211.41965,217.6043329 0,120.1690371 94.66602,217.6043171 211.41965,217.6043171 116.75364,0 211.41956,-97.43528 211.41956,-217.6043171 0,-120.1690529 -94.66592,-217.6043329 -211.41956,-217.6043329 z m 0,1.10995 c 116.19704,0 210.34119,96.8982 210.34119,216.4943829 0,119.5961671 -94.14415,216.4943671 -210.34119,216.4943671 -116.19713,0 -210.34128,-96.8982 -210.34128,-216.4943671 0,-119.5961829 94.14415,-216.4943829 210.34128,-216.4943829 z m 0,15.03972 c -108.0902,0 -195.72899,90.20251 -195.72899,201.4546629 0,97.3078801 66.97092,178.6917671 156.15177,197.2923571 26.65903,5.45077 53.9271,5.29056 79.20876,0 89.06008,-19.07133 156.09782,-100.003247 156.09782,-197.2923571 0,-111.2521529 -87.63869,-201.4546629 -195.72889,-201.4546629 z m 0,1.10995 c 107.53361,0 194.65043,89.6654 194.65043,200.3447129 0,96.8256801 -66.58931,177.9031071 -155.34292,196.2934071 -26.35823,5.46159 -52.63029,5.49228 -78.61678,0 C 312.10426,169.91906 245.44122,89.193963 245.44122,-7.6317171 c 0,-110.6793129 87.11703,-200.3447129 194.65063,-200.3447129 5.5e-4,0 10e-4,0 0.002,0 z"
         id="path3835"
         inkscape:connector-curvature="0"
         sodipodi:nodetypes="ssssssssssssccssssssssss" />
      <text
         sodipodi:linespacing="125%"
         id="text3899-9-9-0-4-5-2-3-0"
         y="153.85869"
         x="527.73602"
         style="font-size:46.38479996px;font-style:normal;font-variant:normal;font-weight:normal;font-stretch:normal;text-align:start;line-height:125%;letter-spacing:0px;word-spacing:0px;writing-mode:lr-tb;text-anchor:start;fill:#000000;fill-opacity:1;stroke:none;font-family:AlMohanad;-inkscape-font-specification:AlMohanad"
         xml:space="preserve"
         transform="scale(0.98568673,1.0145211)"><tspan
           style="font-size:46.38479996px;font-style:normal;font-variant:normal;font-weight:normal;font-stretch:normal;text-align:start;line-height:125%;writing-mode:lr-tb;text-anchor:start;fill:#000000;font-family:AlMohanad;-inkscape-font-specification:AlMohanad"
           y="153.85869"
           x="527.73602"
           id="tspan3901-0-3-8-3-3-8-8-0"
           sodipodi:role="line">5</tspan></text>
      <text
         sodipodi:linespacing="125%"
         id="text3899-9-9-0-4-5-2-3-0-4"
         y="153.85869"
         x="335.90088"
         style="font-size:46.38479996px;font-style:normal;font-variant:normal;font-weight:normal;font-stretch:normal;text-align:start;line-height:125%;letter-spacing:0px;word-spacing:0px;writing-mode:lr-tb;text-anchor:start;fill:#000000;fill-opacity:1;stroke:none;font-family:AlMohanad;-inkscape-font-specification:AlMohanad"
         xml:space="preserve"
         transform="scale(0.98568673,1.0145211)"><tspan
           style="font-size:46.38479996px;font-style:normal;font-variant:normal;font-weight:normal;font-stretch:normal;text-align:start;line-height:125%;writing-mode:lr-tb;text-anchor:start;fill:#000000;font-family:AlMohanad;-inkscape-font-specification:AlMohanad"
           y="153.85869"
           x="335.90088"
           id="tspan3901-0-3-8-3-3-8-8-0-1"
           sodipodi:role="line">7</tspan></text>
      <path
         inkscape:connector-curvature="0"
         id="path4184-5"
         d="m 368.01006,103.40975 c -1.85741,-0.58665 -3.05453,-2.13089 -3.41685,-4.407757 -0.0867,-0.54504 -0.15158,-6.46091 -0.15197,-13.88184 l -10e-4,-12.93196 22.43376,0 c 17.84167,0 22.43336,-0.0418 22.43272,-0.20399 0,-0.11213 -0.11388,-0.42428 -0.25164,-0.69353 -0.979,-1.91204 -2.14195,-5.23911 -2.76859,-7.92068 -0.99803,-4.27099 -1.15971,-10.32464 -0.38563,-14.43493 0.0881,-0.46781 0.0518,-0.50725 -0.82677,-0.88827 -0.50548,-0.21929 -1.84654,-0.81712 -2.9801,-1.3285 -1.13355,-0.51141 -3.4522,-1.55549 -5.15259,-2.32022 -1.7004,-0.7647 -4.58976,-2.06567 -6.42092,-2.89099 -5.46753,-2.46432 -26.86999,-12.0926 -30.24192,-13.60491 -1.72215,-0.77238 -4.54032,-2.03567 -6.26234,-2.80733 -6.14804,-2.75464 -10.74881,-4.81967 -11.21688,-5.03461 -0.26161,-0.12005 -0.79673,-0.36562 -1.18909,-0.54562 -0.39235,-0.18 -1.46248,-0.65594 -2.37804,-1.05759 -0.91571,-0.40171 -1.98583,-0.88233 -2.37819,-1.0681 -0.39248,-0.18578 -1.81923,-0.82825 -3.17078,-1.42768 -1.35168,-0.59949 -3.34242,-1.48252 -4.42407,-1.96236 -2.30414,-1.02211 -3.08275,-1.53658 -3.35719,-2.21841 -0.23053,-0.57314 -0.0906,-0.91674 0.50381,-1.23106 0.83907,-0.44417 1.55698,-0.3081 6.64317,1.25911 1.52604,0.47019 3.70202,1.13408 4.83558,1.47532 2.0398,0.61407 7.59498,2.3079 14.18948,4.32655 1.87476,0.57388 3.65839,1.11933 3.96349,1.2121 0.30524,0.0928 2.73093,0.83085 5.39052,1.6402 6.44072,1.95999 8.90963,2.71007 13.15896,3.99782 1.96188,0.59456 4.49463,1.36493 5.62817,1.71192 1.13356,0.34698 3.27396,0.99767 4.75637,1.44599 1.48229,0.44832 4.51443,1.36576 6.73805,2.03875 8.68479,2.62864 13.35416,4.03048 16.09194,4.83113 1.56967,0.45906 2.93984,0.8648 3.04496,0.90167 0.10608,0.0369 0.79713,-0.75552 1.53756,-1.76087 2.1787,-2.95817 3.6619,-4.49931 6.97273,-7.24437 1.01706,-0.8432 3.90732,-2.64295 5.69511,-3.54618 12.20752,-6.16786 26.73964,-4.44634 37.46294,4.43801 2.48083,2.0554 5.08632,4.99345 6.94944,7.83617 0.25255,0.38536 0.5174,0.73769 0.58859,0.78298 0.0712,0.0453 1.04022,-0.21008 2.15372,-0.56746 1.11323,-0.35738 2.63034,-0.83108 3.37154,-1.05268 0.74135,-0.2216 2.56057,-0.78264 4.04286,-1.24674 1.48242,-0.46414 4.58588,-1.43445 6.89662,-2.15631 5.9615,-1.86225 7.62256,-2.38403 12.36623,-3.88447 2.31087,-0.73088 5.94934,-1.87936 8.08558,-2.55216 2.13637,-0.67276 5.84642,-1.84797 8.24429,-2.61156 5.62028,-1.78973 7.71511,-2.45173 11.01869,-3.48203 1.48229,-0.46233 3.80092,-1.19688 5.15259,-1.63237 1.35155,-0.43549 3.27784,-1.05108 4.28052,-1.36797 1.00282,-0.31691 3.35719,-1.06322 5.23194,-1.65849 6.25768,-1.98693 8.63509,-2.70182 9.30238,-2.79724 1.29201,-0.18477 2.4297,0.31121 2.4297,1.05922 0,0.66575 -1.08061,1.62307 -2.78528,2.46736 -0.917,0.45408 -1.6916,0.82562 -1.72176,0.82562 -0.0297,0 -0.79429,0.35728 -1.69782,0.79399 -0.90366,0.4367 -2.03528,0.97846 -2.51487,1.20391 -0.4796,0.22546 -2.33456,1.10825 -4.12208,1.96179 -3.08418,1.47254 -3.87471,1.84709 -6.1039,2.89164 -0.52322,0.24514 -1.55762,0.74115 -2.29883,1.10224 -0.7412,0.36107 -2.13248,1.02587 -3.09168,1.47732 -0.95907,0.45146 -2.45727,1.16575 -3.32922,1.58728 -0.87208,0.42157 -4.3323,2.07326 -7.68934,3.67044 -3.35706,1.59719 -6.67463,3.17641 -7.37222,3.50936 -1.61004,0.76849 -3.09116,1.47302 -5.3465,2.54326 -0.98328,0.46667 -3.52481,1.68168 -5.64785,2.70005 -2.12304,1.01837 -3.88701,1.85159 -3.92001,1.85159 -0.0324,0 -0.82884,0.3754 -1.76824,0.8342 -1.96498,0.95957 -3.37206,1.63325 -5.83037,2.79133 -0.9592,0.45189 -2.35035,1.11479 -3.09156,1.47314 -1.25562,0.60712 -6.19023,2.95007 -8.30111,3.94141 -0.86211,0.40484 -0.92217,0.46817 -0.83376,0.87906 0.21955,1.0197 0.29294,6.22968 0.11389,8.11222 -0.38096,4.01733 -1.48694,8.25357 -3.03952,11.64104 -0.43003,0.93844 -0.78198,1.76859 -0.78198,1.8448 0,0.0763 10.22015,0.15717 22.71129,0.1799 l 22.71102,0.0413 0,15.66525 0,15.665257 -74.03906,0.0295 c -66.04796,0.0264 -74.12436,0.003 -74.82932,-0.22003 z m 147.64047,-15.515517 -0.0415,-14.48222 -74.594,-0.0378 c -41.02672,-0.0205 -74.75451,0.006 -74.95075,0.0597 l -0.35675,0.0975 0,12.60148 c 0,13.61606 -0.013,13.43118 0.8506,14.770437 0.24775,0.38554 0.70948,0.77732 1.23103,1.04482 l 0.8344,0.42803 73.53332,0 73.53318,0 -0.0415,-14.482207 z m -144.56975,11.48303 c -1.3298,-0.48914 -2.02066,-1.32951 -2.43333,-2.95976 -0.20581,-0.81373 -0.24361,-2.45172 -0.24361,-10.55652 l 0,-9.59332 10.61275,0 10.61275,0 0.0491,9.28427 c 0.0582,10.81271 -0.0854,9.97272 1.69872,9.96844 0.57513,-0.001 1.13615,-0.0616 1.24669,-0.13388 0.45474,-0.29711 0.51235,-1.44171 0.51235,-10.18371 l 0,-8.93517 10.62686,0 10.627,0 -0.044,10.23955 -0.044,10.23953 -0.43986,0.81588 c -0.46691,0.86603 -1.15065,1.4451 -2.13133,1.80524 -0.86638,0.31809 -39.78585,0.3271 -40.64978,0.009 z m 49.34647,0.001 c -0.8691,-0.32375 -1.77418,-1.22581 -2.21806,-2.21079 -0.36983,-0.82085 -0.41655,-1.14763 -0.47157,-3.30215 -0.10872,-4.27557 0.39817,-5.78285 2.27166,-6.74692 l 0.95116,-0.48955 10.75709,-0.0462 10.75708,-0.0462 -0.0557,-2.75159 c -0.0687,-3.38121 -0.0958,-3.43833 -1.72022,-3.43833 -1.41873,0 -1.56823,0.17826 -1.69445,2.01895 l -0.0957,1.40783 -10.61871,0 -10.61871,0 0.0712,-2.32531 c 0.0802,-2.61703 0.27508,-3.23919 1.30455,-4.16953 1.1689,-1.05626 0.20583,-1.01143 21.73191,-1.01143 21.73967,0 20.58773,-0.0583 21.66925,1.09652 1.21304,1.29548 1.15543,0.71771 1.20617,12.08026 l 0.0454,10.15792 -21.36919,-0.0133 c -16.36301,-0.009 -21.49424,-0.059 -21.90251,-0.21101 z m 22.01565,-6.65062 0,-2.79451 -1.35478,0.0733 c -1.96706,0.10633 -2.05392,0.22124 -2.05392,2.72127 0,2.57364 0.1556,2.76532 2.25922,2.78427 l 1.14948,0.009 0,-2.79451 z m 23.97467,4.80602 0.044,-2.06799 3.03719,-2.29707 c 1.6705,-1.26338 6.12914,-4.64685 9.9083,-7.51882 l 6.87113,-5.22175 -9.94792,-0.042 -9.94779,-0.0421 0,-2.03853 0,-2.0385 22.89938,0 22.89936,0 0.0493,1.79167 c 0.0272,0.9854 0.0142,1.93308 -0.0297,2.10591 -0.0427,0.17282 -1.76669,1.58786 -3.82914,3.1445 -2.06247,1.55667 -6.50751,4.92305 -9.8779,7.48089 l -6.12797,4.65063 9.92644,0.0816 9.92643,0.0816 0.001,1.79498 c 0,0.98723 0,1.88676 -0.013,1.99895 -0.013,0.1622 -4.70393,0.20399 -22.9241,0.20399 l -22.91401,0 0.044,-2.06801 z m -50.45116,-25.53652 c 0,-0.0787 -0.2862,-0.60965 -0.63584,-1.17956 -2.99395,-4.8793 -4.57293,-11.61751 -4.1323,-17.63452 l 0.16479,-2.25005 -0.73667,-1.40694 c -0.88567,-1.69128 -0.82807,-1.61452 -0.99855,-1.33047 -0.65475,1.09021 -1.00127,7.72967 -0.5763,11.03849 0.30757,2.39647 0.96502,5.1306 1.76073,7.32433 0.63751,1.75729 2.17999,4.99305 2.57313,5.39772 0.17889,0.18395 0.54367,0.23984 1.41108,0.21622 0.64348,-0.0178 1.16993,-0.0964 1.16993,-0.17522 z m 47.65371,0.0668 c 0.58885,-0.41633 2.47281,-3.92754 3.4096,-6.35431 0.67701,-1.75456 1.36735,-4.61273 1.65018,-6.83306 0.2387,-1.87436 0.33151,-5.7804 0.13721,-5.7804 -0.12422,0 -1.0199,0.42221 -11.075,5.22121 -4.35987,2.08087 -9.67505,4.61375 -11.81143,5.62864 l -3.88415,1.84525 -11.91291,1.18089 c -6.55215,0.64949 -12.10539,1.13121 -12.34033,1.07049 -0.76658,-0.19803 -1.19324,-0.80102 -1.18923,-1.68072 0,-1.06685 0.27444,-1.61853 3.11512,-6.3735 1.35802,-2.27297 2.42413,-4.17895 2.36913,-4.23553 -0.0557,-0.0566 -2.29314,-1.07105 -4.97384,-2.25432 -4.67895,-2.06536 -4.87934,-2.13764 -5.01072,-1.80726 -0.26731,0.67255 -0.18653,6.09569 0.11905,8.01361 0.38057,2.38577 1.17886,5.19312 2.06906,7.27603 0.98599,2.30687 2.58128,5.00925 3.00755,5.09443 0.61021,0.12195 46.1476,0.11073 46.32029,-0.0126 z m 4.85901,-1.75231 c 2.49948,-4.92724 3.61128,-9.58929 3.6109,-15.14053 0,-2.48563 -0.26536,-4.98117 -0.59338,-5.58437 -0.0971,-0.17881 -0.34938,0.17175 -0.95118,1.32202 l -0.81887,1.56535 -0.0699,3.1259 c -0.12686,5.63486 -1.32708,10.13562 -3.94694,14.79323 -0.59105,1.05058 -0.81473,1.59058 -0.69409,1.67549 0.0984,0.0689 0.71247,0.1057 1.36565,0.0816 l 1.18742,-0.0438 0.91052,-1.795 z m -39.14509,-9.03176 c 6.34052,-2.94814 11.57466,-5.40806 11.63161,-5.46654 0.0569,-0.0584 -3.85825,-0.10633 -8.70005,-0.10633 l -8.80324,0 -2.59137,4.44665 c -1.42545,2.44567 -2.71966,4.71846 -2.87616,5.0507 -0.2409,0.51131 -0.39326,1.43568 -0.23675,1.43568 0.026,0 5.23543,-2.41209 11.57596,-5.36022 z m 21.68555,-9.42296 c 4.65657,-1.84832 13.2466,-5.25647 19.08888,-7.57367 5.84229,-2.31717 14.72461,-5.84263 19.73857,-7.83439 9.9606,-3.95687 17.51817,-6.95588 30.75699,-12.2053 4.75235,-1.88437 11.81544,-4.68824 15.69559,-6.23086 3.8804,-1.54263 8.91014,-3.53702 11.17726,-4.43198 2.26725,-0.89498 4.18485,-1.69075 4.26162,-1.76836 0.25928,-0.26209 -1.01628,-0.36855 -2.01017,-0.16773 -0.54069,0.10922 -1.69651,0.44469 -2.56846,0.74546 -1.52631,0.52641 -7.51654,2.42152 -36.86103,11.6613 -7.45544,2.34753 -17.12259,5.39358 -21.48246,6.76901 -4.35986,1.37543 -10.06739,3.17244 -12.68324,3.99338 -2.6161,0.82092 -4.98341,1.56607 -5.26081,1.65592 -0.41979,0.13583 -1.72849,1.54957 -2.45391,2.65061 -0.066,0.0999 -0.85965,0.0261 -2.14246,-0.19934 l -2.03774,-0.35813 -9.11402,2.86984 c -5.0128,1.5784 -9.91673,3.1253 -10.89779,3.43757 l -1.78351,0.56773 0,4.88975 c 0,2.68939 0.026,4.8898 0.0557,4.8898 0.0297,0 3.86499,-1.51228 8.52154,-3.36059 z m -9.4155,-6.36882 c -0.044,-0.0456 -6.62919,-2.05702 -20.78164,-6.34815 l -3.62592,-1.0994 -2.03243,0.44075 -2.03255,0.44075 -0.60399,-0.70394 c -1.97962,-2.30719 -1.69212,-2.13225 -5.28102,-3.21365 -1.78751,-0.53864 -9.1003,-2.75548 -16.2505,-4.92632 -7.15021,-2.17084 -13.32154,-4.0393 -13.7139,-4.15212 -0.39234,-0.11301 -4.13799,-1.24743 -8.32349,-2.52124 -4.18552,-1.2738 -11.60523,-3.52847 -16.48831,-5.01038 -4.88309,-1.48192 -11.66075,-3.53938 -15.06156,-4.57216 -8.55418,-2.59785 -9.3614,-2.82646 -9.9804,-2.82646 -0.91882,0 -0.76037,0.25157 0.43545,0.69165 0.62833,0.2312 7.20664,2.69687 14.61832,5.47926 7.41183,2.78241 18.75555,7.0406 25.20818,9.46267 6.45262,2.42208 17.04725,6.39893 23.5435,8.83751 6.49625,2.43854 15.02181,5.6383 18.9457,7.11058 3.92403,1.47227 12.59225,4.72524 19.26285,7.2288 l 12.12843,4.55194 0.0427,-4.4087 c 0.0233,-2.42475 0.0194,-4.4324 -0.013,-4.46139 z m 5.65342,-2.36314 c 9.91827,-3.11366 16.02062,-5.05514 16.07951,-5.11581 0.2277,-0.2343 -2.19113,-3.064 -4.08415,-4.77788 -5.7896,-5.24166 -13.62095,-7.93683 -21.06318,-7.24894 -7.87264,0.72767 -14.49794,4.24099 -19.65455,10.42232 l -0.83971,1.00668 0.52269,0.15295 c 0.76957,0.22517 15.61623,4.72961 19.94413,6.05099 2.04926,0.62563 3.75199,1.14231 3.78396,1.14813 0.0324,0.006 2.42219,-0.73145 5.3113,-1.63844 z m 21.93176,-6.30924 c 0.23248,-0.34957 0.21243,-0.42319 -0.3543,-1.30546 -1.07607,-1.6747 -2.85893,-3.83714 -4.61525,-5.59781 -6.40602,-6.42189 -14.8459,-9.94179 -23.83786,-9.94179 -10.80796,0 -21.01917,5.27595 -27.44771,14.18187 -0.68607,0.9505 -1.2476,1.77073 -1.24787,1.82275 0,0.13956 1.75205,2.10856 1.87555,2.10709 0.0582,-6.5e-4 0.27766,-0.31278 0.48787,-0.6935 0.56595,-1.02503 2.14117,-3.1139 3.3291,-4.41457 4.14344,-4.53669 9.58417,-7.83608 15.39306,-9.33449 4.84594,-1.25006 10.58972,-1.2537 15.35812,-0.009 7.43692,1.94011 13.86158,6.49716 18.25277,12.94673 l 1.34754,1.97933 0.60619,-0.685 c 0.33359,-0.37674 0.71713,-0.8517 0.85279,-1.05545 z"
         style="fill:#008000;fill-opacity:1" />
      <path
         inkscape:transform-center-y="5.2927507"
         inkscape:transform-center-x="-5.2253232"
         sodipodi:nodetypes="cccc"
         inkscape:connector-curvature="0"
         id="path3932-5-74-3"
         d="m 245.3536,-11.703277 7.73456,3.0778999 -7.66983,3.24517 z"
         style="fill:#000000;fill-opacity:1;stroke:#000000;stroke-width:1.04242814px;stroke-linecap:butt;stroke-linejoin:miter;stroke-opacity:1" />
      <path
         inkscape:transform-center-y="11.296373"
         inkscape:transform-center-x="-2.7264098"
         sodipodi:nodetypes="cccc"
         inkscape:connector-curvature="0"
         id="path3932-5-74-3-3"
         d="m 270.88058,-106.96589 5.19714,6.65081 -8.2178,-1.14436 z"
         style="fill:#000000;fill-opacity:1;stroke:#000000;stroke-width:1.04242814px;stroke-linecap:butt;stroke-linejoin:miter;stroke-opacity:1" />
      <path
         inkscape:transform-center-y="-2.2890499"
         inkscape:transform-center-x="-0.79485242"
         sodipodi:nodetypes="cccc"
         inkscape:connector-curvature="0"
         id="path3932-5-74-3-6"
         d="m 268.55759,87.090773 8.22161,-1.11363 -5.22077,6.6314 z"
         style="fill:#000000;fill-opacity:1;stroke:#000000;stroke-width:1.04242814px;stroke-linecap:butt;stroke-linejoin:miter;stroke-opacity:1" />
      <path
         inkscape:transform-center-y="-2.4776827"
         inkscape:transform-center-x="1.4110867"
         sodipodi:nodetypes="cccc"
         inkscape:connector-curvature="0"
         id="path3932-5-74-3-60"
         d="m 337.31861,162.65054 6.61869,-5.14206 -1.36422,8.4189 z"
         style="fill:#000000;fill-opacity:1;stroke:#000000;stroke-width:1.04242814px;stroke-linecap:butt;stroke-linejoin:miter;stroke-opacity:1" />
      <path
         inkscape:transform-center-y="2.6616526"
         inkscape:transform-center-x="1.1668065"
         sodipodi:nodetypes="cccc"
         inkscape:connector-curvature="0"
         id="path3932-5-74-3-2"
         d="m 342.40939,-181.07753 1.41273,8.41033 -6.64818,-5.10154 z"
         style="fill:#000000;fill-opacity:1;stroke:#000000;stroke-width:1.04242814px;stroke-linecap:butt;stroke-linejoin:miter;stroke-opacity:1" />
      <path
         inkscape:transform-center-y="3.623823"
         inkscape:transform-center-x="3.5819888"
         sodipodi:nodetypes="cccc"
         inkscape:connector-curvature="0"
         id="path3932-5-74-3-2-4"
         d="m 441.5573,-208.05478 -2.93836,7.98134 -3.20449,-7.87209 z"
         style="fill:#000000;fill-opacity:1;stroke:#000000;stroke-width:1.04242814px;stroke-linecap:butt;stroke-linejoin:miter;stroke-opacity:1" />
      <path
         inkscape:transform-center-y="0.79332045"
         inkscape:transform-center-x="4.157665"
         sodipodi:nodetypes="cccc"
         inkscape:connector-curvature="0"
         id="path3932-5-74-3-2-6"
         d="m 540.77426,-179.19881 -6.56269,5.2176 1.27298,-8.43391 z"
         style="fill:#000000;fill-opacity:1;stroke:#000000;stroke-width:1.04242814px;stroke-linecap:butt;stroke-linejoin:miter;stroke-opacity:1" />
      <path
         inkscape:transform-center-y="-2.001276"
         inkscape:transform-center-x="4.4659886"
         sodipodi:nodetypes="cccc"
         inkscape:connector-curvature="0"
         id="path3932-5-74-3-2-42"
         d="m 610.83908,-104.27454 -8.18194,1.38862 5.00807,-6.8028 z"
         style="fill:#000000;fill-opacity:1;stroke:#000000;stroke-width:1.04242814px;stroke-linecap:butt;stroke-linejoin:miter;stroke-opacity:1" />
      <path
         inkscape:transform-center-y="-1.9098075"
         inkscape:transform-center-x="2.4900949"
         sodipodi:nodetypes="cccc"
         inkscape:connector-curvature="0"
         id="path3932-5-74-3-2-2"
         d="m 634.87084,-5.4130471 -7.68874,-3.19733 7.71638,-3.1260099 z"
         style="fill:#000000;fill-opacity:1;stroke:#000000;stroke-width:1.04242814px;stroke-linecap:butt;stroke-linejoin:miter;stroke-opacity:1" />
      <path
         inkscape:transform-center-y="-2.2386016"
         inkscape:transform-center-x="0.58541035"
         sodipodi:nodetypes="cccc"
         inkscape:connector-curvature="0"
         id="path3932-5-74-3-2-49"
         d="m 607.82416,94.288363 -5.20216,-6.64674 8.21841,1.13794 z"
         style="fill:#000000;fill-opacity:1;stroke:#000000;stroke-width:1.04242814px;stroke-linecap:butt;stroke-linejoin:miter;stroke-opacity:1" />
      <path
         inkscape:transform-center-y="-2.6315646"
         inkscape:transform-center-x="-1.4532036"
         sodipodi:nodetypes="cccc"
         inkscape:connector-curvature="0"
         id="path3932-5-74-3-2-3"
         d="m 535.0943,167.01038 -1.27781,-8.43317 6.56557,5.21368 z"
         style="fill:#000000;fill-opacity:1;stroke:#000000;stroke-width:1.04242814px;stroke-linecap:butt;stroke-linejoin:miter;stroke-opacity:1" />
      <path
         inkscape:connector-curvature="0"
         style="font-size:medium;font-style:normal;font-variant:normal;font-weight:normal;font-stretch:normal;text-indent:0;text-align:start;text-decoration:none;line-height:normal;letter-spacing:normal;word-spacing:normal;text-transform:none;direction:ltr;block-progression:tb;writing-mode:lr-tb;text-anchor:start;baseline-shift:baseline;color:#000000;fill:#000000;fill-opacity:1;stroke:none;stroke-width:4;marker:none;visibility:visible;display:inline;overflow:visible;enable-background:accumulate;font-family:Sans;-inkscape-font-specification:Sans"
         d="m 440.09351,-224.68107 c -1.72983,0 -3.45644,0.0125 -5.1763,0.0554 l 0.0538,16.14966 c 1.71005,-0.0455 3.40166,-0.0554 5.12238,-0.0554 0.59768,0 1.18294,-0.005 1.77936,0 l -0.0538,-16.14967 c -0.57547,-0.005 -1.14888,0 -1.72544,1e-5 z m 103.57998,27.91506 -8.14198,13.87429 c 2.02601,1.17086 4.00475,2.36505 5.98519,3.60731 l 8.08798,-13.87429 c -1.96182,-1.22938 -3.92796,-2.44269 -5.93119,-3.60731 z m -209.15499,1.16544 c -1.99487,1.18936 -3.92448,2.46431 -5.87727,3.71831 l 7.98013,13.87429 c 1.94653,-1.25508 3.88543,-2.47728 5.87726,-3.66282 z m 287.06906,77.36302 -13.74947,7.82511 c 1.18262,2.04048 2.33728,4.07372 3.45087,6.16018 l 13.69564,-7.8251 c -1.1055,-2.06858 -2.22857,-4.13341 -3.39704,-6.16019 z m -364.6597,2.94136 c -1.14935,2.06722 -2.25856,4.16201 -3.34302,6.27117 l 13.74955,7.7696 c 1.08531,-2.11766 2.24109,-4.19913 3.39695,-6.27118 z m -27.66087,103.280193 c -0.0282,1.45827 -0.0538,2.9190799 -0.0538,4.3842699 0,0.90868 -0.0104,1.81333 0,2.71936 l 15.74459,0.0554 c -0.0121,-0.92201 -0.0538,-1.84987 -0.0538,-2.77486 0,-1.45422 0.0239,-2.8819399 0.0538,-4.3287699 l -15.69067,-0.0554 z m 405.96237,0 c 0.031,1.46528 0.0535,2.9114099 0.0535,4.3842699 0,0.90648 -0.0432,1.81573 -0.0535,2.71936 l 15.69059,0.16641 c 0.0173,-0.96152 0.0535,-1.92136 0.0535,-2.88586 0,-1.40955 -0.0276,-2.8146099 -0.0535,-4.2177799 z m -367.35578,98.95142 -13.58779,8.15808 c 1.0942,2.09225 2.23868,4.16534 3.39695,6.215677 l 13.53388,-8.102587 c -1.16315,-2.05961 -2.2498,-4.16591 -3.34304,-6.27117 z m 343.57705,1.7759 c -1.11049,2.08876 -2.27102,4.11736 -3.45087,6.16019 l 13.6418,7.936087 c 1.17123,-2.03539 2.34314,-4.082707 3.45088,-6.160177 z M 336.89096,162.91101 328.803,176.7853 c 1.95928,1.25523 3.92964,2.47262 5.93117,3.66281 l 8.08797,-13.87428 c -1.99731,-1.18363 -3.97924,-2.40933 -5.93118,-3.66282 z m 204.14056,1.38743 c -1.96373,1.22343 -3.92313,2.45397 -5.93136,3.60731 l 7.81846,13.98529 c 2.0122,-1.15897 4.01422,-2.32764 5.98501,-3.55182 z m -105.65553,28.7481 -0.0273,16.31559 c 1.57735,0.0358 3.15924,0.0554 4.74495,0.0554 0.72069,0 1.4378,0.007 2.15679,0 l -0.0265,-16.26008 c -0.72201,0.0178 -1.43059,0.0554 -2.15679,0.0554 -1.57995,0 -3.13137,-0.0858 -4.69103,-0.1664 z"
         id="path4071"
         sodipodi:nodetypes="cccsccccccccccccccccccccccccsccsccccsccsccccccccccccccccccccccccsccscc" />
      <text
         sodipodi:linespacing="125%"
         id="text3899-9-9-0-4"
         y="-79.018929"
         x="277.98514"
         style="font-size:46.38479996px;font-style:normal;font-variant:normal;font-weight:normal;font-stretch:normal;text-align:start;line-height:125%;letter-spacing:0px;word-spacing:0px;writing-mode:lr-tb;text-anchor:start;fill:#000000;fill-opacity:1;stroke:none;font-family:AlMohanad;-inkscape-font-specification:AlMohanad"
         xml:space="preserve"
         transform="scale(0.98568673,1.0145211)"><tspan
           style="font-size:46.38479996px;font-style:normal;font-variant:normal;font-weight:normal;font-stretch:normal;text-align:start;line-height:125%;writing-mode:lr-tb;text-anchor:start;fill:#000000;font-family:AlMohanad;-inkscape-font-specification:AlMohanad"
           y="-79.018929"
           x="277.98514"
           id="tspan3901-0-3-8-3"
           sodipodi:role="line"
           dx="0 -5.9391618">10</tspan></text>
      <text
         sodipodi:linespacing="125%"
         id="text3899-9-9-0-4-5"
         y="-138.41055"
         x="327.71454"
         style="font-size:46.38479996px;font-style:normal;font-variant:normal;font-weight:normal;font-stretch:normal;text-align:start;line-height:125%;letter-spacing:0px;word-spacing:0px;writing-mode:lr-tb;text-anchor:start;fill:#000000;fill-opacity:1;stroke:none;font-family:AlMohanad;-inkscape-font-specification:AlMohanad"
         xml:space="preserve"
         transform="scale(0.98568673,1.0145211)"><tspan
           style="font-size:46.38479996px;font-style:normal;font-variant:normal;font-weight:normal;font-stretch:normal;text-align:start;line-height:125%;writing-mode:lr-tb;text-anchor:start;fill:#000000;font-family:AlMohanad;-inkscape-font-specification:AlMohanad"
           y="-138.41055"
           x="327.71454"
           id="tspan3901-0-3-8-3-3"
           sodipodi:role="line"
           dx="0 -7.8146868">11</tspan></text>
      <text
         sodipodi:linespacing="125%"
         id="text3899-9-9-0-4-5-2"
         y="-162.88928"
         x="421.45035"
         style="font-size:46.38479996px;font-style:normal;font-variant:normal;font-weight:normal;font-stretch:normal;text-align:start;line-height:125%;letter-spacing:0px;word-spacing:0px;writing-mode:lr-tb;text-anchor:start;fill:#000000;fill-opacity:1;stroke:none;font-family:AlMohanad;-inkscape-font-specification:AlMohanad"
         xml:space="preserve"
         transform="scale(0.98568673,1.0145211)"><tspan
           style="font-size:46.38479996px;font-style:normal;font-variant:normal;font-weight:normal;font-stretch:normal;text-align:start;line-height:125%;writing-mode:lr-tb;text-anchor:start;fill:#000000;font-family:AlMohanad;-inkscape-font-specification:AlMohanad"
           y="-162.88928"
           x="421.45035"
           id="tspan3901-0-3-8-3-3-8"
           sodipodi:role="line"
           dx="0 -4.6888118">12</tspan></text>
      <text
         sodipodi:linespacing="125%"
         id="text3899-9-9-0-4-5-9"
         y="-138.41055"
         x="526.1673"
         style="font-size:46.38479996px;font-style:normal;font-variant:normal;font-weight:normal;font-stretch:normal;text-align:start;line-height:125%;letter-spacing:0px;word-spacing:0px;writing-mode:lr-tb;text-anchor:start;fill:#000000;fill-opacity:1;stroke:none;font-family:AlMohanad;-inkscape-font-specification:AlMohanad"
         xml:space="preserve"
         transform="scale(0.98568673,1.0145211)"><tspan
           style="font-size:46.38479996px;font-style:normal;font-variant:normal;font-weight:normal;font-stretch:normal;text-align:start;line-height:125%;writing-mode:lr-tb;text-anchor:start;fill:#000000;font-family:AlMohanad;-inkscape-font-specification:AlMohanad"
           y="-138.41055"
           x="526.1673"
           id="tspan3901-0-3-8-3-3-6"
           sodipodi:role="line"
           dx="0">1</tspan></text>
      <text
         sodipodi:linespacing="125%"
         id="text3899-9-9-0-4-5-2-2"
         y="-77.962379"
         x="589.88519"
         style="font-size:46.38479996px;font-style:normal;font-variant:normal;font-weight:normal;font-stretch:normal;text-align:start;line-height:125%;letter-spacing:0px;word-spacing:0px;writing-mode:lr-tb;text-anchor:start;fill:#000000;fill-opacity:1;stroke:none;font-family:AlMohanad;-inkscape-font-specification:AlMohanad"
         xml:space="preserve"
         transform="scale(0.98568673,1.0145211)"><tspan
           style="font-size:46.38479996px;font-style:normal;font-variant:normal;font-weight:normal;font-stretch:normal;text-align:start;line-height:125%;writing-mode:lr-tb;text-anchor:start;fill:#000000;font-family:AlMohanad;-inkscape-font-specification:AlMohanad"
           y="-77.962379"
           x="589.88519"
           id="tspan3901-0-3-8-3-3-8-7"
           sodipodi:role="line"
           dx="-4.6888118">2</tspan></text>
      <text
         sodipodi:linespacing="125%"
         id="text3899-9-9-0-4-5-2-3"
         y="8.4086227"
         x="613.64191"
         style="font-size:46.38479996px;font-style:normal;font-variant:normal;font-weight:normal;font-stretch:normal;text-align:start;line-height:125%;letter-spacing:0px;word-spacing:0px;writing-mode:lr-tb;text-anchor:start;fill:#000000;fill-opacity:1;stroke:none;font-family:AlMohanad;-inkscape-font-specification:AlMohanad"
         xml:space="preserve"
         transform="scale(0.98568673,1.0145211)"><tspan
           style="font-size:46.38479996px;font-style:normal;font-variant:normal;font-weight:normal;font-stretch:normal;text-align:start;line-height:125%;writing-mode:lr-tb;text-anchor:start;fill:#000000;font-family:AlMohanad;-inkscape-font-specification:AlMohanad"
           y="8.4086227"
           x="613.64191"
           id="tspan3901-0-3-8-3-3-8-8"
           sodipodi:role="line">3</tspan></text>
      <text
         sodipodi:linespacing="125%"
         id="text3899-9-9-0-4-5-2-3-2"
         y="8.4086227"
         x="255.52321"
         style="font-size:46.38479996px;font-style:normal;font-variant:normal;font-weight:normal;font-stretch:normal;text-align:start;line-height:125%;letter-spacing:0px;word-spacing:0px;writing-mode:lr-tb;text-anchor:start;fill:#000000;fill-opacity:1;stroke:none;font-family:AlMohanad;-inkscape-font-specification:AlMohanad"
         xml:space="preserve"
         transform="scale(0.98568673,1.0145211)"><tspan
           style="font-size:46.38479996px;font-style:normal;font-variant:normal;font-weight:normal;font-stretch:normal;text-align:start;line-height:125%;writing-mode:lr-tb;text-anchor:start;fill:#000000;font-family:AlMohanad;-inkscape-font-specification:AlMohanad"
           y="8.4086227"
           x="255.52321"
           id="tspan3901-0-3-8-3-3-8-8-4"
           sodipodi:role="line">9</tspan></text>
      <text
         sodipodi:linespacing="125%"
         id="text3899-9-9-0-4-5-2-3-7"
         y="95.092278"
         x="585.25208"
         style="font-size:46.38479996px;font-style:normal;font-variant:normal;font-weight:normal;font-stretch:normal;text-align:start;line-height:125%;letter-spacing:0px;word-spacing:0px;writing-mode:lr-tb;text-anchor:start;fill:#000000;fill-opacity:1;stroke:none;font-family:AlMohanad;-inkscape-font-specification:AlMohanad"
         xml:space="preserve"
         transform="scale(0.98568673,1.0145211)"><tspan
           style="font-size:46.38479996px;font-style:normal;font-variant:normal;font-weight:normal;font-stretch:normal;text-align:start;line-height:125%;writing-mode:lr-tb;text-anchor:start;fill:#000000;font-family:AlMohanad;-inkscape-font-specification:AlMohanad"
           y="95.092278"
           x="585.25208"
           id="tspan3901-0-3-8-3-3-8-8-1"
           sodipodi:role="line">4</tspan></text>
      <text
         sodipodi:linespacing="125%"
         id="text3899-9-9-0-4-5-2-3-70"
         y="94.035698"
         x="280.47937"
         style="font-size:46.38479996px;font-style:normal;font-variant:normal;font-weight:normal;font-stretch:normal;text-align:start;line-height:125%;letter-spacing:0px;word-spacing:0px;writing-mode:lr-tb;text-anchor:start;fill:#000000;fill-opacity:1;stroke:none;font-family:AlMohanad;-inkscape-font-specification:AlMohanad"
         xml:space="preserve"
         transform="scale(0.98568673,1.0145211)"><tspan
           style="font-size:46.38479996px;font-style:normal;font-variant:normal;font-weight:normal;font-stretch:normal;text-align:start;line-height:125%;writing-mode:lr-tb;text-anchor:start;fill:#000000;font-family:AlMohanad;-inkscape-font-specification:AlMohanad"
           y="94.035698"
           x="280.47937"
           id="tspan3901-0-3-8-3-3-8-8-9"
           sodipodi:role="line">8</tspan></text>
      <path
         inkscape:transform-center-y="-6.0852764"
         inkscape:transform-center-x="6.0150255"
         sodipodi:nodetypes="cccc"
         inkscape:connector-curvature="0"
         id="path3932-5-74-3-2-4-3"
         d="m 441.92791,193.01869 -2.93836,-7.98134 -3.20449,7.87209 z"
         style="fill:#000000;fill-opacity:1;stroke:#000000;stroke-width:1.04242814px;stroke-linecap:butt;stroke-linejoin:miter;stroke-opacity:1" />
      <text
         sodipodi:linespacing="125%"
         id="text3899-9-9-0-4-5-2-3-0-4-6"
         y="179.89287"
         x="430.24307"
         style="font-size:46.38479996px;font-style:normal;font-variant:normal;font-weight:normal;font-stretch:normal;text-align:start;line-height:125%;letter-spacing:0px;word-spacing:0px;writing-mode:lr-tb;text-anchor:start;fill:#000000;fill-opacity:1;stroke:none;font-family:AlMohanad;-inkscape-font-specification:AlMohanad"
         xml:space="preserve"
         transform="scale(0.98568674,1.0145211)"><tspan
           style="font-size:46.38479996px;font-style:normal;font-variant:normal;font-weight:normal;font-stretch:normal;text-align:start;line-height:125%;writing-mode:lr-tb;text-anchor:start;fill:#000000;font-family:AlMohanad;-inkscape-font-specification:AlMohanad"
           y="179.89287"
           x="430.24307"
           id="tspan3901-0-3-8-3-3-8-8-0-1-1"
           sodipodi:role="line">6</tspan></text>
    </g>
  </g>
</svg>
