<?xml version="1.0" encoding="UTF-8" standalone="no"?>
<!-- Created with Inkscape (http://www.inkscape.org/) -->

<svg
   xmlns:dc="http://purl.org/dc/elements/1.1/"
   xmlns:cc="http://creativecommons.org/ns#"
   xmlns:rdf="http://www.w3.org/1999/02/22-rdf-syntax-ns#"
   xmlns:svg="http://www.w3.org/2000/svg"
   xmlns="http://www.w3.org/2000/svg"
   xmlns:xlink="http://www.w3.org/1999/xlink"
   xmlns:sodipodi="http://sodipodi.sourceforge.net/DTD/sodipodi-0.dtd"
   xmlns:inkscape="http://www.inkscape.org/namespaces/inkscape"
   width="744.09448"
   height="1052.3622"
   id="svg2"
   version="1.1"
   inkscape:version="0.48.2 r9819"
   sodipodi:docname="1.svg">
  <defs
     id="defs4">
    <linearGradient
       id="linearGradient3891">
      <stop
         style="stop-color:#008002;stop-opacity:1;"
         offset="0"
         id="stop3893" />
      <stop
         style="stop-color:#feff00;stop-opacity:1;"
         offset="1"
         id="stop3895" />
    </linearGradient>
    <linearGradient
       inkscape:collect="always"
       xlink:href="#linearGradient3891"
       id="linearGradient3001"
       gradientUnits="userSpaceOnUse"
       gradientTransform="matrix(0.29865331,0,0,0.29865331,145.18568,542.05816)"
       x1="13.754464"
       y1="604.88617"
       x2="-202.78572"
       y2="600.60046" />
    <linearGradient
       inkscape:collect="always"
       xlink:href="#linearGradient3891"
       id="linearGradient3842"
       gradientUnits="userSpaceOnUse"
       gradientTransform="matrix(0.29865331,0,0,0.29865331,145.18568,542.05816)"
       x1="13.754464"
       y1="604.88617"
       x2="-202.78572"
       y2="600.60046" />
  </defs>
  <sodipodi:namedview
     id="base"
     pagecolor="#ffffff"
     bordercolor="#666666"
     borderopacity="1.0"
     inkscape:pageopacity="0.0"
     inkscape:pageshadow="2"
     inkscape:zoom="1.979899"
     inkscape:cx="282.63922"
     inkscape:cy="835.30273"
     inkscape:document-units="px"
     inkscape:current-layer="layer1"
     showgrid="false"
     showguides="true"
     inkscape:guide-bbox="true"
     inkscape:window-width="1920"
     inkscape:window-height="1028"
     inkscape:window-x="-8"
     inkscape:window-y="-8"
     inkscape:window-maximized="1"
     fit-margin-top="0"
     fit-margin-left="0"
     fit-margin-right="0"
     fit-margin-bottom="0" />
  <metadata
     id="metadata7">
    <rdf:RDF>
      <cc:Work
         rdf:about="">
        <dc:format>image/svg+xml</dc:format>
        <dc:type
           rdf:resource="http://purl.org/dc/dcmitype/StillImage" />
        <dc:title></dc:title>
      </cc:Work>
    </rdf:RDF>
  </metadata>
  <g
     inkscape:label="Layer 1"
     inkscape:groupmode="layer"
     id="layer1"
     transform="translate(-34.295135,279.12318)">
    <g
       id="g3832"
       transform="translate(198.83721,-824.68922)">
      <path
         sodipodi:nodetypes="cccccccsssccccccccccc"
         inkscape:connector-curvature="0"
         id="path2996"
         d="m 66.120382,613.70046 0,4.91845 c -0.03656,0.029 -0.07549,0.0549 -0.111995,0.084 l 0,5.12377 -5.861071,0 -7.998309,0 0,8.83828 c -11.096091,14.17749 -17.704545,32.02526 -17.704545,51.42436 0,46.12478 37.386153,83.52027 83.510928,83.52027 46.12479,0 83.52027,-37.39549 83.52027,-83.52027 0,-23.68681 -9.86836,-45.06693 -25.71218,-60.26264 l -11.83414,0 0,-9.45424 0,-0.67197 -16.95791,0 0,10.12621 -19.47367,22.87891 -25.64698,0 -18.669828,-22.87891 0,-10.12621 z"
         style="fill:#ffffff;fill-opacity:1;fill-rule:nonzero;stroke:#000000;stroke-width:0.2986533;stroke-opacity:1" />
      <path
         sodipodi:nodetypes="sssssssssccss"
         inkscape:connector-curvature="0"
         id="path3066"
         d="m 296.3657,596.22351 c -43.86633,-0.14875 -82.04106,32.34714 -87.86943,76.98724 -6.32228,48.42311 27.80812,92.80259 76.23126,99.1249 48.42315,6.32231 92.80261,-27.80812 99.12489,-76.23127 6.32231,-48.42314 -27.80809,-92.8026 -76.23123,-99.12488 -3.78307,-0.49395 -7.53801,-0.74338 -11.25549,-0.75599 z m -58.12141,66.45037 116.04814,0 c 8.409,0 7.91372,15.81697 7.58168,23.44539 -1.12602,25.86905 -16.3065,45.57357 -32.32725,55.0631 l -66.13036,0 c -12.59042,-8.68448 -31.53567,-24.40736 -32.4279,-57.17195 -0.29334,-10.77234 0.80487,-21.33654 7.25569,-21.33654 z"
         style="fill:#ffffff;fill-opacity:1;fill-rule:nonzero;stroke:#000000;stroke-width:0.2986533;stroke-opacity:1" />
      <path
         inkscape:connector-curvature="0"
         id="path3064"
         d="m 75.422136,710.03198 -5.05844,10.36887 c 14.592,7.40404 31.104274,11.57282 48.587164,11.57282 15.91434,0 31.01308,-3.46383 44.602,-9.6689 l -4.88111,-10.4342 c -12.10537,5.50871 -25.55366,8.57695 -39.72089,8.57695 -15.66951,0 -30.464242,-3.75811 -43.528724,-10.41554 z"
         style="fill:url(#linearGradient3842);fill-opacity:1;fill-rule:nonzero;stroke:#000000;stroke-width:0.59730661;stroke-miterlimit:4;stroke-opacity:1;stroke-dasharray:none" />
      <text
         sodipodi:linespacing="125%"
         id="text3899"
         y="697.70178"
         x="71.246452"
         style="font-size:18.6460228px;font-style:normal;font-variant:normal;font-weight:normal;font-stretch:normal;text-align:start;line-height:125%;letter-spacing:0px;word-spacing:0px;writing-mode:lr-tb;text-anchor:start;fill:#000000;fill-opacity:1;stroke:none;font-family:AlMohanad;-inkscape-font-specification:AlMohanad"
         xml:space="preserve"><tspan
           style="font-size:18.6460228px;font-style:normal;font-variant:normal;font-weight:normal;font-stretch:normal;text-align:start;line-height:125%;writing-mode:lr-tb;text-anchor:start;fill:#000000;font-family:AlMohanad;-inkscape-font-specification:AlMohanad"
           dx="0 0 0 0 0 0 0 0 0 0 0 -0.92490184"
           y="697.70178"
           x="71.246452"
           id="tspan3901"
           sodipodi:role="line">0    1/2   4/4</tspan></text>
      <text
         sodipodi:linespacing="125%"
         id="text3765"
         y="656.60901"
         x="295.66788"
         style="font-size:16.72458458px;font-style:normal;font-weight:normal;text-align:center;line-height:125%;letter-spacing:0px;word-spacing:0px;text-anchor:middle;fill:#ff0000;fill-opacity:1;stroke:none;font-family:Bitstream Vera Sans"
         xml:space="preserve"><tspan
           y="656.60901"
           x="295.66788"
           id="tspan3767"
           sodipodi:role="line">БЕНЗИН</tspan></text>
      <path
         inkscape:connector-curvature="0"
         id="rect3782"
         d="m 296.6213,619.45266 -0.11227,0.52923 2.55536,0.85002 1.25629,1.0371 -0.18176,0.25126 0.2673,0.33146 -0.47579,1.15472 0.94623,4.07894 1.99938,-0.28334 c 0.0577,0.15333 0.61308,1.62366 1.23491,3.38934 0.65484,1.85941 1.35008,3.99773 1.47548,4.76322 0.0486,0.29697 0.10086,0.66818 0.11761,1.01038 0.0168,0.34216 -0.0152,0.66119 -0.0588,0.78049 -0.0673,0.18401 -0.46171,0.60248 -1.03177,0.89812 -0.2671,0.13853 -0.93592,0.16464 -1.55566,-0.0695 -0.29648,-0.112 -0.51769,-0.20853 -0.67893,-0.40095 -0.16125,-0.19239 -0.31608,-0.5276 -0.29938,-1.26698 0.0106,-0.47022 0.11997,-1.30222 0.14434,-2.13837 0.0244,-0.83616 0.0119,-1.6978 -0.44905,-2.35755 -0.43859,-0.62778 -1.13958,-0.89376 -1.70001,-1.04247 -0.33705,-0.0894 -0.62848,-0.13056 -0.81793,-0.14968 l 0,-6.6343 -8.16324,0 0,15.42301 -1.1868,0 0,1.16541 10.53684,0 0,-1.16541 -1.1868,0 0,-7.7516 c 0.14701,0.0203 0.34251,0.0503 0.55598,0.10692 0.44537,0.11817 0.91331,0.34421 1.1173,0.63616 0.18163,0.25999 0.28961,0.97195 0.26729,1.73743 -0.0223,0.76549 -0.13113,1.56452 -0.14434,2.14907 -0.0202,0.8968 0.18735,1.53056 0.53994,1.95125 0.3526,0.42073 0.79874,0.58604 1.10127,0.70033 0.82992,0.31354 1.70678,0.3783 2.39497,0.0214 0.70815,-0.36727 1.28595,-0.82426 1.51825,-1.45943 0.13868,-0.37921 0.1428,-0.77602 0.12295,-1.18146 -0.0198,-0.40543 -0.0762,-0.80978 -0.1283,-1.12798 -0.16772,-1.02385 -0.86418,-3.06728 -1.52359,-4.93964 -0.55957,-1.5889 -1.01241,-2.80168 -1.16007,-3.19689 l 0.10158,-0.0161 -0.71636,-2.9777 0.41164,-0.34747 -0.17642,-0.65221 -1.19749,-1.7802 -0.89811,0.1283 -0.5239,-0.41163 -0.27265,0.005 -1.23491,-0.94622 -2.79057,-0.80189 z m 5.52769,4.87548 0.33145,0.29938 0.3849,1.839 -1.09591,0.58271 0.24057,-1.76417 -0.34214,-0.47044 -0.41164,-0.12295 0.35818,-0.33679 0.53459,-0.0267 z m -1.26164,0.71636 0.81793,0.27799 -0.25126,1.73208 -0.21384,-0.19779 -0.37956,-1.78556 0.0267,-0.0267 z m -8.47865,1.56101 5.53304,0 0,4.40505 -5.53304,0 0,-4.40505 z"
         style="fill:#ff0000;fill-opacity:1;fill-rule:nonzero;stroke:none" />
    </g>
  </g>
</svg>
