<?xml version="1.0" encoding="UTF-8" standalone="no"?>
<!-- Created with Inkscape (http://www.inkscape.org/) -->

<svg
   xmlns:dc="http://purl.org/dc/elements/1.1/"
   xmlns:cc="http://creativecommons.org/ns#"
   xmlns:rdf="http://www.w3.org/1999/02/22-rdf-syntax-ns#"
   xmlns:svg="http://www.w3.org/2000/svg"
   xmlns="http://www.w3.org/2000/svg"
   xmlns:xlink="http://www.w3.org/1999/xlink"
   xmlns:sodipodi="http://sodipodi.sourceforge.net/DTD/sodipodi-0.dtd"
   xmlns:inkscape="http://www.inkscape.org/namespaces/inkscape"
   width="744.09448"
   height="1052.3622"
   id="svg2"
   version="1.1"
   inkscape:version="0.48.2 r9819"
   sodipodi:docname="oil.svg">
  <defs
     id="defs4">
    <linearGradient
       id="linearGradient3891">
      <stop
         style="stop-color:#008002;stop-opacity:1;"
         offset="0"
         id="stop3893" />
      <stop
         style="stop-color:#feff00;stop-opacity:1;"
         offset="1"
         id="stop3895" />
    </linearGradient>
    <linearGradient
       inkscape:collect="always"
       xlink:href="#linearGradient3891"
       id="linearGradient3001"
       gradientUnits="userSpaceOnUse"
       gradientTransform="matrix(0.29865331,0,0,0.29865331,145.18568,542.05816)"
       x1="13.754464"
       y1="604.88617"
       x2="-202.78572"
       y2="600.60046" />
    <linearGradient
       inkscape:collect="always"
       xlink:href="#linearGradient3891"
       id="linearGradient3842"
       gradientUnits="userSpaceOnUse"
       gradientTransform="matrix(0.29865331,0,0,0.29865331,145.18568,542.05816)"
       x1="13.754464"
       y1="604.88617"
       x2="-202.78572"
       y2="600.60046" />
    <linearGradient
       inkscape:collect="always"
       xlink:href="#linearGradient3891"
       id="linearGradient3021"
       gradientUnits="userSpaceOnUse"
       gradientTransform="matrix(0.29865331,0,0,0.29865331,307.20237,-4.01296)"
       x1="13.754464"
       y1="604.88617"
       x2="-202.78572"
       y2="600.60046" />
  </defs>
  <sodipodi:namedview
     id="base"
     pagecolor="#ffffff"
     bordercolor="#666666"
     borderopacity="1.0"
     inkscape:pageopacity="0.0"
     inkscape:pageshadow="2"
     inkscape:zoom="1.4"
     inkscape:cx="461.84277"
     inkscape:cy="924.61554"
     inkscape:document-units="px"
     inkscape:current-layer="layer1"
     showgrid="false"
     showguides="true"
     inkscape:guide-bbox="true"
     inkscape:window-width="1920"
     inkscape:window-height="1008"
     inkscape:window-x="0"
     inkscape:window-y="24"
     inkscape:window-maximized="1"
     fit-margin-top="0"
     fit-margin-left="0"
     fit-margin-right="0"
     fit-margin-bottom="0" />
  <metadata
     id="metadata7">
    <rdf:RDF>
      <cc:Work
         rdf:about="">
        <dc:format>image/svg+xml</dc:format>
        <dc:type
           rdf:resource="http://purl.org/dc/dcmitype/StillImage" />
        <dc:title />
      </cc:Work>
    </rdf:RDF>
  </metadata>
  <g
     inkscape:label="Layer 1"
     inkscape:groupmode="layer"
     id="layer1"
     transform="translate(-34.295135,279.12318)">
    <g
       id="g3801"
       transform="translate(-1.4285688,-2.1428571)">
      <path
         id="path2996"
         transform="translate(34.295135,-279.12318)"
         d="m 230.65625,68.125 0,4.9375 c -0.0366,0.029 -0.0573,0.0334 -0.0937,0.0625 l 0,5.125 -5.875,0 -8,0 0,8.84375 C 205.59141,101.27124 199,119.13215 199,138.53125 c 0,46.12478 37.37522,83.5 83.5,83.5 46.12479,0 83.53125,-37.37522 83.53125,-83.5 0,-23.68681 -9.87493,-45.08554 -25.71875,-60.28125 l -11.84375,0 0,-9.4375 0,-0.6875 -16.96875,0 0,10.125 -19.46875,22.875 -25.625,0 -18.6875,-22.875 0,-10.125 -17.0625,0 z m 13,102.28125 c 4.22937,0 7.65625,3.42688 7.65625,7.65625 0,4.22937 -3.42688,7.6875 -7.65625,7.6875 -4.22937,0 -7.65625,-3.45813 -7.65625,-7.6875 0,-4.22937 3.42688,-7.65625 7.65625,-7.65625 z"
         style="fill:#ffffff;fill-opacity:1;fill-rule:nonzero;stroke:#000000;stroke-width:0.2986533;stroke-opacity:1"
         inkscape:connector-curvature="0" />
      <path
         id="path3064"
         transform="translate(34.295135,-279.12318)"
         d="m 237.4375,163.96875 -5.0625,10.375 c 1.2768,0.64785 2.56943,1.24606 3.875,1.84375 0.84468,-3.31084 3.83234,-5.78125 7.40625,-5.78125 4.22937,0 7.65625,3.42688 7.65625,7.65625 0,1.24546 -0.28497,2.42928 -0.8125,3.46875 9.6623,2.84889 19.88417,4.375 30.46875,4.375 15.91434,0 31.00483,-3.48243 44.59375,-9.6875 l -4.875,-10.40625 c -12.10537,5.50871 -25.55152,8.5625 -39.71875,8.5625 -15.66951,0 -30.46677,-3.74882 -43.53125,-10.40625 z"
         style="fill:url(#linearGradient3021);fill-opacity:1;fill-rule:nonzero;stroke:#000000;stroke-width:0.59730661;stroke-miterlimit:4;stroke-opacity:1;stroke-dasharray:none"
         inkscape:connector-curvature="0" />
      <text
         sodipodi:linespacing="125%"
         id="text3899"
         y="-126.98743"
         x="270.08365"
         style="font-size:18.6460228px;font-style:normal;font-variant:normal;font-weight:normal;font-stretch:normal;text-align:start;line-height:125%;letter-spacing:0px;word-spacing:0px;writing-mode:lr-tb;text-anchor:start;fill:#000000;fill-opacity:1;stroke:none;font-family:AlMohanad;-inkscape-font-specification:AlMohanad"
         xml:space="preserve"><tspan
           style="font-size:18.6460228px;font-style:normal;font-variant:normal;font-weight:normal;font-stretch:normal;text-align:start;line-height:125%;writing-mode:lr-tb;text-anchor:start;fill:#000000;font-family:AlMohanad;-inkscape-font-specification:AlMohanad"
           dx="0 0 0 0 0 0 1.4285713 0 0 0 0 0 0 -2.5"
           y="-126.98743"
           x="270.08365"
           id="tspan3901"
           sodipodi:role="line">0     4      8</tspan></text>
    </g>
    <path
       style="fill:#ffffff;fill-opacity:1;fill-rule:nonzero;stroke:#000000;stroke-width:0.2986533;stroke-opacity:1"
       d="m 495.20291,-228.46571 c -43.86633,-0.14875 -82.04106,32.34714 -87.86943,76.98724 -6.32228,48.42311 27.80812,92.80259 76.23126,99.1249 48.42315,6.32231 92.80261,-27.80812 99.12489,-76.23127 6.32231,-48.42314 -27.80809,-92.8026 -76.23123,-99.12488 -3.78307,-0.49395 -7.53801,-0.74338 -11.25549,-0.75599 z m -58.12141,66.45037 116.04814,0 c 8.409,0 7.91372,15.81697 7.58168,23.44539 -1.12602,25.86905 -16.3065,45.57357 -32.32725,55.0631 l -66.13036,0 c -12.59042,-8.68448 -31.53567,-24.40736 -32.4279,-57.17195 -0.29334,-10.77234 0.80487,-21.33654 7.25569,-21.33654 z"
       id="path3066"
       inkscape:connector-curvature="0"
       sodipodi:nodetypes="sssssssssccss" />
    <text
       xml:space="preserve"
       style="font-size:16.72458458px;font-style:normal;font-weight:normal;text-align:center;line-height:125%;letter-spacing:0px;word-spacing:0px;text-anchor:middle;fill:#ff0000;fill-opacity:1;stroke:none;font-family:Bitstream Vera Sans"
       x="494.5051"
       y="-168.08022"
       id="text3765"
       sodipodi:linespacing="125%"><tspan
         sodipodi:role="line"
         id="tspan3767"
         x="494.5051"
         y="-168.08022">МАСЛО</tspan></text>
    <path
       style="fill:#ff0000;fill-opacity:1;fill-rule:nonzero;stroke:none"
       d="m 477.44432,-198.73479 0,0.74682 c 0,0 11.5414,5.40289 13.83168,6.19236 l 0,5.63225 16.60113,0 0,-1.50919 2.76945,0 0,-7.26592 -2.76945,0 -16.60113,0 0,0.2645 -13.83168,-4.06082 z m 0.26449,1.29137 c -0.67645,1.24485 -1.23266,2.58774 -1.36916,3.87412 -0.0209,0.10005 -0.0311,0.20468 -0.0311,0.31117 0,0.81019 0.63021,1.46252 1.41584,1.46252 0.78563,0 1.4314,-0.65233 1.4314,-1.46252 -0.15759,-1.42302 -1.3101,-2.80931 -1.44696,-4.18529 z m 30.54173,3.32956 1.60254,0 0,5.64781 -1.60254,0 0,-5.64781 z"
       id="rect3027"
       inkscape:connector-curvature="0" />
  </g>
</svg>
