<?xml version="1.0" encoding="UTF-8" standalone="no"?>
<!-- Created with Inkscape (http://www.inkscape.org/) -->

<svg
   xmlns:dc="http://purl.org/dc/elements/1.1/"
   xmlns:cc="http://creativecommons.org/ns#"
   xmlns:rdf="http://www.w3.org/1999/02/22-rdf-syntax-ns#"
   xmlns:svg="http://www.w3.org/2000/svg"
   xmlns="http://www.w3.org/2000/svg"
   xmlns:xlink="http://www.w3.org/1999/xlink"
   xmlns:sodipodi="http://sodipodi.sourceforge.net/DTD/sodipodi-0.dtd"
   xmlns:inkscape="http://www.inkscape.org/namespaces/inkscape"
   width="744.09448"
   height="1052.3622"
   id="svg2"
   version="1.1"
   inkscape:version="0.48.2 r9819"
   sodipodi:docname="power.svg">
  <defs
     id="defs4">
    <linearGradient
       id="linearGradient3891">
      <stop
         style="stop-color:#008002;stop-opacity:1;"
         offset="0"
         id="stop3893" />
      <stop
         style="stop-color:#feff00;stop-opacity:1;"
         offset="1"
         id="stop3895" />
    </linearGradient>
    <linearGradient
       inkscape:collect="always"
       xlink:href="#linearGradient3891"
       id="linearGradient3001"
       gradientUnits="userSpaceOnUse"
       gradientTransform="matrix(0.29865331,0,0,0.29865331,145.18568,542.05816)"
       x1="13.754464"
       y1="604.88617"
       x2="-202.78572"
       y2="600.60046" />
    <linearGradient
       inkscape:collect="always"
       xlink:href="#linearGradient3891"
       id="linearGradient3021"
       gradientUnits="userSpaceOnUse"
       gradientTransform="matrix(0.29865331,0,0,0.29865331,344.02289,-282.63106)"
       x1="13.754464"
       y1="604.88617"
       x2="-202.78572"
       y2="600.60046" />
  </defs>
  <sodipodi:namedview
     id="base"
     pagecolor="#ffffff"
     bordercolor="#666666"
     borderopacity="1.0"
     inkscape:pageopacity="0.0"
     inkscape:pageshadow="2"
     inkscape:zoom="1.979899"
     inkscape:cx="408.47451"
     inkscape:cy="950.84808"
     inkscape:document-units="px"
     inkscape:current-layer="layer1"
     showgrid="false"
     showguides="true"
     inkscape:guide-bbox="true"
     inkscape:window-width="1920"
     inkscape:window-height="1008"
     inkscape:window-x="0"
     inkscape:window-y="24"
     inkscape:window-maximized="1"
     fit-margin-top="0"
     fit-margin-left="0"
     fit-margin-right="0"
     fit-margin-bottom="0" />
  <metadata
     id="metadata7">
    <rdf:RDF>
      <cc:Work
         rdf:about="">
        <dc:format>image/svg+xml</dc:format>
        <dc:type
           rdf:resource="http://purl.org/dc/dcmitype/StillImage" />
        <dc:title></dc:title>
      </cc:Work>
    </rdf:RDF>
  </metadata>
  <g
     inkscape:label="Layer 1"
     inkscape:groupmode="layer"
     id="layer1"
     transform="translate(-34.295135,279.12318)">
    <path
       style="fill:#ffffff;fill-opacity:1;fill-rule:nonzero;stroke:#000000;stroke-width:0.2986533;stroke-opacity:1"
       d="m 264.95759,-210.98876 0,4.91845 c -0.0366,0.029 -0.0755,0.0549 -0.11199,0.084 l 0,5.12377 -5.86107,0 -7.99831,0 0,8.83828 c -11.09609,14.17749 -17.70455,32.02526 -17.70455,51.42436 0,46.12478 37.38615,83.52027 83.51093,83.52027 46.12479,0 83.52027,-37.39549 83.52027,-83.52027 0,-23.68681 -9.86836,-45.06693 -25.71218,-60.26264 l -11.83414,0 0,-9.45424 0,-0.67197 -16.95791,0 0,10.12621 -19.47367,22.87891 -25.64698,0 -18.66983,-22.87891 0,-10.12621 z"
       id="path2996"
       inkscape:connector-curvature="0"
       sodipodi:nodetypes="cccccccsssccccccccccc" />
    <path
       style="fill:#ffffff;fill-opacity:1;fill-rule:nonzero;stroke:#000000;stroke-width:0.2986533;stroke-opacity:1"
       d="m 495.20291,-51.600017 c -43.86633,0.14875 -82.04106,-32.34714 -87.86943,-76.987243 -6.32228,-48.42311 27.80812,-92.80259 76.23126,-99.1249 48.42315,-6.32231 92.80261,27.80812 99.12489,76.23127 6.32231,48.42314 -27.80809,92.802603 -76.23123,99.124883 -3.78307,0.49395 -7.53801,0.74338 -11.25549,0.75599 z m -58.12141,-66.450373 116.04814,0 c 8.409,0 7.91372,-15.81697 7.58168,-23.44539 -1.12602,-25.86905 -16.3065,-45.57357 -32.32725,-55.0631 l -66.13036,0 c -12.59042,8.68448 -31.53567,24.40736 -32.4279,57.17195 -0.29334,10.77234 0.80487,21.33654 7.25569,21.33654 z"
       id="path3066"
       inkscape:connector-curvature="0"
       sodipodi:nodetypes="sssssssssccss" />
    <path
       style="fill:url(#linearGradient3021);fill-opacity:1;fill-rule:nonzero;stroke:#000000;stroke-width:0.59730661;stroke-miterlimit:4;stroke-opacity:1;stroke-dasharray:none"
       d="m 274.25935,-114.65724 -5.05844,10.36887 c 14.592,7.40404 31.10427,11.57282 48.58716,11.57282 15.91434,0 31.01308,-3.46383 44.602,-9.6689 l -4.88111,-10.4342 c -12.10537,5.50871 -25.55366,8.57695 -39.72089,8.57695 -15.66951,0 -30.46424,-3.75811 -43.52872,-10.41554 z"
       id="path3064"
       inkscape:connector-curvature="0" />
    <text
       xml:space="preserve"
       style="font-size:18.6460228px;font-style:normal;font-variant:normal;font-weight:normal;font-stretch:normal;text-align:start;line-height:125%;letter-spacing:0px;word-spacing:0px;writing-mode:lr-tb;text-anchor:start;fill:#000000;fill-opacity:1;stroke:none;font-family:AlMohanad;-inkscape-font-specification:AlMohanad"
       x="270.08365"
       y="-126.98743"
       id="text3899"
       sodipodi:linespacing="125%"><tspan
         sodipodi:role="line"
         id="tspan3901"
         x="270.08365"
         y="-126.98743"
         dx="0 0 0 0 0 0 0 0 0 0 0 -0.92490184"
         style="font-size:18.6460228px;font-style:normal;font-variant:normal;font-weight:normal;font-stretch:normal;text-align:start;line-height:125%;writing-mode:lr-tb;text-anchor:start;fill:#000000;font-family:AlMohanad;-inkscape-font-specification:AlMohanad">0    1/2   4/4</tspan></text>
    <text
       xml:space="preserve"
       style="font-size:16.72458458px;font-style:normal;font-weight:normal;text-align:center;line-height:125%;letter-spacing:0px;word-spacing:0px;text-anchor:middle;fill:#ff0000;fill-opacity:1;stroke:none;font-family:Bitstream Vera Sans"
       x="494.25616"
       y="-97.365929"
       id="text3765"
       sodipodi:linespacing="125%"><tspan
         sodipodi:role="line"
         id="tspan3767"
         x="494.25616"
         y="-97.365929">ЗАРЯДКА</tspan></text>
    <path
       style="fill:#ff0000;fill-opacity:1;fill-rule:nonzero;stroke:none"
       d="m 485.71468,-87.909036 0,1.59375 -4.0625,0 0,13.5 26.71875,0 0,-13.5 -3.9375,0 0,-1.59375 -2.5,0 0,1.59375 -13.71875,0 0,-1.59375 -2.5,0 z m 0.4375,4.9375 2.03125,0 0,2.40625 2.40625,0 0,2.03125 -2.40625,0 0,2.375 -2.03125,0 0,-2.375 -2.375,0 0,-2.03125 2.375,0 0,-2.40625 z m 13.4375,2.40625 6.8125,0 0,2.03125 -6.8125,0 0,-2.03125 z"
       id="rect4153"
       inkscape:connector-curvature="0" />
  </g>
</svg>
