<?xml version="1.0" encoding="UTF-8" standalone="no"?>
<!-- Created with Inkscape (http://www.inkscape.org/) -->

<svg
   xmlns:dc="http://purl.org/dc/elements/1.1/"
   xmlns:cc="http://creativecommons.org/ns#"
   xmlns:rdf="http://www.w3.org/1999/02/22-rdf-syntax-ns#"
   xmlns:svg="http://www.w3.org/2000/svg"
   xmlns="http://www.w3.org/2000/svg"
   xmlns:xlink="http://www.w3.org/1999/xlink"
   xmlns:sodipodi="http://sodipodi.sourceforge.net/DTD/sodipodi-0.dtd"
   xmlns:inkscape="http://www.inkscape.org/namespaces/inkscape"
   width="744.09448"
   height="1052.3622"
   id="svg2"
   version="1.1"
   inkscape:version="0.48.2 r9819"
   sodipodi:docname="speedometr.svg">
  <defs
     id="defs4">
    <linearGradient
       id="linearGradient3916">
      <stop
         style="stop-color:#008000;stop-opacity:1;"
         offset="0"
         id="stop3918" />
      <stop
         style="stop-color:#ffffff;stop-opacity:1;"
         offset="1"
         id="stop3920" />
    </linearGradient>
    <linearGradient
       id="linearGradient3891">
      <stop
         style="stop-color:#008002;stop-opacity:1;"
         offset="0"
         id="stop3893" />
      <stop
         style="stop-color:#feff00;stop-opacity:1;"
         offset="1"
         id="stop3895" />
    </linearGradient>
    <linearGradient
       inkscape:collect="always"
       xlink:href="#linearGradient3891"
       id="linearGradient3001"
       gradientUnits="userSpaceOnUse"
       gradientTransform="matrix(0.29865331,0,0,0.29865331,145.18568,542.05816)"
       x1="13.754464"
       y1="604.88617"
       x2="-202.78572"
       y2="600.60046" />
    <linearGradient
       inkscape:collect="always"
       xlink:href="#linearGradient3916"
       id="linearGradient4370"
       gradientUnits="userSpaceOnUse"
       x1="433.00894"
       y1="108.5067"
       x2="237.29465"
       y2="382.07812" />
  </defs>
  <sodipodi:namedview
     id="base"
     pagecolor="#ffffff"
     bordercolor="#666666"
     borderopacity="1.0"
     inkscape:pageopacity="0.0"
     inkscape:pageshadow="2"
     inkscape:zoom="1.979899"
     inkscape:cx="378.32236"
     inkscape:cy="826.22848"
     inkscape:document-units="px"
     inkscape:current-layer="g4308"
     showgrid="false"
     showguides="true"
     inkscape:guide-bbox="true"
     inkscape:window-width="1920"
     inkscape:window-height="1008"
     inkscape:window-x="0"
     inkscape:window-y="24"
     inkscape:window-maximized="1"
     fit-margin-top="0"
     fit-margin-left="0"
     fit-margin-right="0"
     fit-margin-bottom="0" />
  <metadata
     id="metadata7">
    <rdf:RDF>
      <cc:Work
         rdf:about="">
        <dc:format>image/svg+xml</dc:format>
        <dc:type
           rdf:resource="http://purl.org/dc/dcmitype/StillImage" />
        <dc:title />
      </cc:Work>
    </rdf:RDF>
  </metadata>
  <g
     inkscape:label="Layer 1"
     inkscape:groupmode="layer"
     id="layer1"
     transform="translate(-34.295135,279.12318)">
    <g
       transform="translate(-1.5958687,158.06566)"
       style="font-size:23.02064896px;font-style:normal;font-variant:normal;font-weight:normal;font-stretch:normal;text-align:start;line-height:125%;letter-spacing:0px;word-spacing:0px;writing-mode:lr-tb;text-anchor:start;fill:#ffff00;fill-opacity:1;stroke:none;font-family:AlMohanad;-inkscape-font-specification:AlMohanad"
       id="text3899-9-9-71-3" />
    <g
       id="g4308"
       transform="matrix(0.59550661,0,0,0.59550661,148.15408,-49.862269)">
      <path
         style="fill:#ffffff;fill-opacity:1;fill-rule:nonzero;stroke:#000000;stroke-width:0.26503322;stroke-linejoin:round;stroke-miterlimit:4;stroke-opacity:1;stroke-dasharray:none;stroke-dashoffset:0"
         d="M 372.0625 79.28125 C 285.10009 79.28125 214.59375 149.78763 214.59375 236.71875 C 214.59375 323.64988 285.10009 394.09375 372.0625 394.09375 C 459.02504 394.09375 529.5 323.64988 529.5 236.71875 C 529.5 149.78763 459.02504 79.28125 372.0625 79.28125 z M 371.625 228.28125 C 376.25961 228.28125 380 232.05289 380 236.6875 C 380 241.32211 376.25961 245.0625 371.625 245.0625 C 366.99039 245.0625 363.21875 241.32211 363.21875 236.6875 C 363.21875 232.05289 366.99039 228.28125 371.625 228.28125 z M 312.65625 230.3125 C 316.1629 230.3125 319 233.18085 319 236.6875 C 319 240.19415 316.1629 243.03125 312.65625 243.03125 C 309.1496 243.03125 306.3125 240.19415 306.3125 236.6875 C 306.3125 233.18085 309.1496 230.3125 312.65625 230.3125 z M 431.71875 230.3125 C 435.2254 230.3125 438.0625 233.18085 438.0625 236.6875 C 438.0625 240.19415 435.2254 243.03125 431.71875 243.03125 C 428.2121 243.03125 425.375 240.19415 425.375 236.6875 C 425.375 233.18085 428.2121 230.3125 431.71875 230.3125 z M 306.21875 282.0625 L 438.0625 282.0625 L 438.0625 304.40625 L 306.21875 304.40625 L 306.21875 282.0625 z M 312.84375 346.21875 C 318.78003 346.21875 323.59375 351.06372 323.59375 357 C 323.59375 362.93628 318.78003 367.71875 312.84375 367.71875 C 306.90747 367.71875 302.09375 362.93628 302.09375 357 C 302.09375 351.06372 306.90747 346.21875 312.84375 346.21875 z M 435.28125 348.59375 C 441.21753 348.59375 446 353.40747 446 359.34375 C 446 365.28003 441.21753 370.09375 435.28125 370.09375 C 429.34484 370.09375 424.5 365.28003 424.5 359.34375 C 424.5 353.40747 429.34484 348.59375 435.28125 348.59375 z M 368.0625 361.21875 L 368.75 361.8125 L 368.75 382.75 L 368.21875 383.625 L 348.34375 372.71875 C 348.34375 372.71875 367.66892 361.16253 368.0625 361.21875 z M 376.15625 361.21875 C 376.54977 361.16253 395.875 372.71875 395.875 372.71875 L 376 383.625 L 375.46875 382.75 L 375.46875 361.8125 L 376.15625 361.21875 z "
         id="path3065"
         transform="matrix(1.6792425,0,0,1.6792425,-191.19678,-384.98466)" />
      <path
         inkscape:connector-curvature="0"
         id="path4184"
         d="m 374.31553,-9.4811 c -1.54549,-0.47424 -2.54152,-1.72263 -2.84297,-3.56328 -0.0722,-0.44062 -0.12608,-5.22308 -0.12651,-11.22225 l -10e-4,-10.45438 18.66625,0 c 14.84535,0 18.66595,-0.0338 18.66525,-0.1649 0,-0.0907 -0.095,-0.34299 -0.2093,-0.56065 -0.8147,-1.54572 -1.7823,-4.23536 -2.3036,-6.40318 -0.8304,-3.45273 -0.965,-8.34658 -0.3209,-11.6694 0.073,-0.37816 0.043,-0.41006 -0.688,-0.71808 -0.4205,-0.17727 -1.5363,-0.66056 -2.4795,-1.07398 -0.9433,-0.41342 -2.87245,-1.25748 -4.28725,-1.87569 -1.4148,-0.6182 -3.819,-1.66991 -5.3427,-2.33711 -4.5493,-1.99218 -22.35741,-9.77582 -25.16305,-10.99838 -1.43294,-0.6244 -3.77777,-1.64567 -5.21071,-2.26948 -5.11542,-2.22689 -8.94357,-3.89629 -9.33311,-4.07004 -0.21765,-0.0971 -0.66287,-0.29557 -0.98935,-0.4411 -0.3265,-0.14551 -1.21694,-0.53026 -1.97875,-0.85497 -0.76182,-0.32474 -1.65226,-0.71328 -1.97877,-0.86346 -0.32648,-0.15019 -1.51373,-0.66957 -2.63833,-1.15416 -1.12459,-0.48462 -2.78109,-1.19848 -3.68109,-1.58639 -1.91719,-0.8263 -2.56494,-1.24219 -2.79326,-1.7934 -0.19191,-0.46333 -0.0749,-0.7411 0.41915,-0.9952 0.69813,-0.35907 1.29541,-0.24907 5.52754,1.01789 1.2697,0.3801 3.08026,0.9168 4.02346,1.19267 1.69725,0.49641 6.31951,1.86573 11.80654,3.49763 1.55991,0.46393 3.04397,0.90488 3.29791,0.97988 0.25393,0.0751 2.27227,0.67167 4.48516,1.32595 5.35913,1.58449 7.41336,2.19086 10.94906,3.23189 1.6325,0.48066 3.7399,1.10343 4.6831,1.38394 0.9432,0.2805 2.724,0.80653 3.9575,1.16897 1.2334,0.36242 3.7563,1.10409 5.6064,1.64814 7.22635,2.12502 11.11155,3.25828 13.38945,3.90555 1.306,0.37111 2.4462,0.69912 2.5337,0.72892 0.088,0.0298 0.6632,-0.61077 1.2793,-1.42351 1.8127,-2.39142 3.047,-3.63731 5.8018,-5.85644 0.8462,-0.68165 3.2511,-2.1366 4.7386,-2.86678 10.1574,-4.98618 22.2491,-3.59447 31.1715,3.58775 2.0642,1.66161 4.2322,4.03677 5.7823,6.33485 0.2102,0.31153 0.4306,0.59636 0.4898,0.63297 0.059,0.0366 0.8656,-0.16982 1.7919,-0.45873 0.9263,-0.28892 2.1888,-0.67186 2.8055,-0.85101 0.6167,-0.17913 2.1305,-0.63269 3.3639,-1.00788 1.2334,-0.37521 3.8157,-1.15962 5.7384,-1.74318 4.9603,-1.50547 6.3424,-1.92728 10.2894,-3.14026 1.9227,-0.59086 4.9502,-1.5193 6.7278,-2.0632 1.7776,-0.54387 4.8644,-1.49392 6.8597,-2.11122 4.6764,-1.44684 6.4195,-1.98201 9.1682,-2.81491 1.2334,-0.37376 3.1627,-0.96758 4.2873,-1.31963 1.1245,-0.35206 2.7273,-0.84971 3.5617,-1.10589 0.8344,-0.2562 2.7933,-0.85952 4.3532,-1.34074 5.2068,-1.60626 7.185,-2.18418 7.7401,-2.26132 1.0751,-0.14938 2.0218,0.25158 2.0218,0.85628 0,0.5382 -0.8992,1.31212 -2.3176,1.99464 -0.7629,0.36709 -1.4076,0.66744 -1.4327,0.66744 -0.025,0 -0.6608,0.28884 -1.4126,0.64188 -0.7518,0.35303 -1.6935,0.79099 -2.0925,0.97325 -0.3991,0.18226 -1.9425,0.89593 -3.4299,1.58594 -2.5661,1.19043 -3.2239,1.49321 -5.0788,2.33763 -0.4353,0.19818 -1.296,0.59917 -1.9127,0.89107 -0.6168,0.2919 -1.7743,0.82933 -2.5724,1.19429 -0.7981,0.36497 -2.0447,0.9424 -2.7703,1.28318 -0.7255,0.3408 -3.6046,1.67605 -6.3979,2.96723 -2.7934,1.29119 -5.5537,2.56785 -6.1341,2.83701 -1.3397,0.62126 -2.572,1.19081 -4.4486,2.056 -0.8182,0.37726 -2.933,1.35949 -4.6994,2.18276 -1.7665,0.82325 -3.2343,1.49684 -3.2618,1.49684 -0.027,0 -0.6895,0.30348 -1.4713,0.67439 -1.6348,0.77572 -2.8056,1.32033 -4.8511,2.25655 -0.7981,0.3653 -1.9557,0.9012 -2.5724,1.1909 -1.0448,0.4908 -5.1507,2.38487 -6.9071,3.18628 -0.7172,0.32728 -0.7672,0.37848 -0.6937,0.71064 0.1826,0.82434 0.2438,5.03617 0.095,6.55803 -0.3169,3.24766 -1.2372,6.67229 -2.529,9.41077 -0.3578,0.75864 -0.6506,1.42974 -0.6506,1.49135 0,0.0617 8.5037,0.12706 18.897,0.14544 l 18.8971,0.0334 0,12.66399 0,12.66399 -61.6051,0.0238 c -54.95585,0.0214 -61.67595,0.002 -62.26245,-0.17787 z m 122.84582,-12.54294 -0.034,-11.7076 -62.0667,-0.0306 c -34.13665,-0.0167 -62.20028,0.005 -62.36354,0.0483 l -0.29681,0.0789 0,10.18719 c 0,11.00741 -0.01,10.85794 0.70763,11.94062 0.20626,0.31168 0.59035,0.62839 1.02434,0.84465 l 0.69434,0.34602 61.18404,0 61.1841,0 -0.034,-11.7076 z m -120.29075,9.28303 c -1.10646,-0.39542 -1.68132,-1.07479 -2.0246,-2.3927 -0.17134,-0.65784 -0.20281,-1.982 -0.20281,-8.53403 l 0,-7.75536 8.83051,0 8.8305,0 0.041,7.50552 c 0.048,8.74113 -0.071,8.06207 1.4135,8.05862 0.4785,-10e-4 0.9453,-0.0498 1.0373,-0.10825 0.3784,-0.24019 0.4263,-1.1655 0.4263,-8.23264 l 0,-7.2233 8.84215,0 8.8422,0 -0.037,8.27778 -0.037,8.27776 -0.3659,0.65958 c -0.3885,0.70011 -0.9574,1.16823 -1.7734,1.45937 -0.7209,0.25716 -33.10425,0.26444 -33.82305,0.007 z m 41.05925,10e-4 c -0.7231,-0.26171 -1.4762,-0.99096 -1.8455,-1.78722 -0.3078,-0.66358 -0.3467,-0.92776 -0.3925,-2.6695 -0.091,-3.45643 0.3314,-4.67494 1.8901,-5.4543 l 0.7915,-0.39576 8.9506,-0.0374 8.9506,-0.0374 -0.046,-2.22443 c -0.057,-2.73342 -0.081,-2.77959 -1.4313,-2.77959 -1.1805,0 -1.305,0.14411 -1.41,1.63215 l -0.08,1.1381 -8.8354,0 -8.8354,0 0.059,-1.87981 c 0.067,-2.11564 0.2288,-2.61859 1.0854,-3.3707 0.9725,-0.85389 0.1713,-0.81765 18.0822,-0.81765 18.0888,0 17.1304,-0.0472 18.0302,0.88644 1.0093,1.04728 0.9613,0.58021 1.0035,9.76584 l 0.038,8.21179 -17.7805,-0.0108 c -13.6149,-0.007 -17.8844,-0.0476 -18.2241,-0.17058 z m 18.3183,-5.37644 0,-2.25912 -1.1272,0.0592 c -1.6368,0.0859 -1.709,0.17883 -1.709,2.1999 0,2.08056 0.1295,2.23552 1.8798,2.25083 l 0.9564,0.008 0,-2.25912 z m 19.9485,3.88525 0.037,-1.67179 2.5271,-1.85698 c 1.3899,-1.02133 5.0998,-3.75658 8.2443,-6.07831 l 5.7171,-4.22133 -8.2772,-0.0339 -8.2773,-0.034 0,-1.64797 0,-1.64796 19.0538,0 19.0537,0 0.041,1.44841 c 0.023,0.79662 0.012,1.56273 -0.025,1.70245 -0.036,0.13971 -1.4701,1.28365 -3.1862,2.54206 -1.7161,1.25842 -5.4146,3.97986 -8.219,6.04765 l -5.0988,3.75963 8.2594,0.066 8.2593,0.066 0,1.45108 c 0,0.79809 0,1.52529 -0.01,1.61599 -0.01,0.13112 -3.9139,0.16489 -19.0742,0.16489 l -19.0659,0 0.037,-1.6718 z m -41.9785,-20.64425 c 0,-0.0637 -0.2381,-0.49284 -0.5291,-0.95357 -2.4911,-3.94449 -3.8049,-9.39173 -3.4382,-14.25598 l 0.1371,-1.81896 -0.613,-1.13739 c -0.737,-1.36725 -0.689,-1.30519 -0.8309,-1.07557 -0.5447,0.88135 -0.8332,6.24877 -0.4796,8.92366 0.2561,1.93734 0.8031,4.14765 1.4652,5.92108 0.5304,1.42062 1.8139,4.03644 2.141,4.36359 0.1487,0.1487 0.4523,0.1939 1.174,0.1748 0.5354,-0.0142 0.9735,-0.0779 0.9735,-0.14166 z m 39.6508,0.054 c 0.49,-0.33657 2.0576,-3.17507 2.8369,-5.1369 0.5635,-1.41841 1.1378,-3.72899 1.3731,-5.52393 0.1986,-1.51526 0.2759,-4.67295 0.1143,-4.67295 -0.1035,0 -0.8487,0.34132 -9.2151,4.2209 -3.6277,1.68219 -8.0502,3.7298 -9.8278,4.55025 l -3.232,1.49173 -9.9123,0.95464 c -5.4517,0.52506 -10.0723,0.91449 -10.2679,0.8654 -0.6377,-0.16008 -0.9927,-0.64755 -0.9895,-1.35871 0,-0.86246 0.2283,-1.30845 2.5921,-5.15242 1.1299,-1.8375 2.017,-3.37832 1.9712,-3.42406 -0.046,-0.0458 -1.9081,-0.86585 -4.1385,-1.82242 -3.8932,-1.66967 -4.0599,-1.7281 -4.1692,-1.46101 -0.2225,0.5437 -0.1553,4.92782 0.099,6.47831 0.3166,1.92867 0.9809,4.19818 1.7216,5.88203 0.8203,1.8649 2.1478,4.04954 2.5024,4.1184 0.5077,0.0986 38.3976,0.0895 38.5414,-0.01 z m 4.043,-1.41658 c 2.0797,-3.98325 3.0049,-7.75211 3.0045,-12.23981 0,-2.00941 -0.2208,-4.02684 -0.4937,-4.51447 -0.081,-0.14455 -0.2908,0.13885 -0.7915,1.06874 l -0.6813,1.26545 -0.058,2.52701 c -0.105,4.5553 -1.1042,8.19377 -3.2842,11.95904 -0.4917,0.8493 -0.6778,1.28585 -0.5774,1.35449 0.082,0.0557 0.5928,0.0854 1.1362,0.066 l 0.9881,-0.0354 0.7576,-1.45109 z m -32.5711,-7.30139 c 5.2757,-2.3833 9.6309,-4.37194 9.6781,-4.41921 0.047,-0.0473 -3.2102,-0.086 -7.2389,-0.086 l -7.3248,0 -2.1563,3.59473 c -1.1859,1.97711 -2.2628,3.81447 -2.393,4.08304 -0.2004,0.41336 -0.3273,1.16063 -0.197,1.16063 0.022,0 4.3562,-1.94997 9.6319,-4.33326 z m 18.0436,-7.61764 c 3.8746,-1.49421 11.0221,-4.24939 15.8832,-6.12264 4.8611,-1.87324 12.2518,-4.72327 16.4236,-6.33343 8.288,-3.19878 14.5763,-5.62323 25.5918,-9.86693 3.9542,-1.52334 9.8311,-3.79002 13.0598,-5.0371 3.2286,-1.24708 7.4137,-2.85937 9.3001,-3.58287 1.8864,-0.72351 3.4821,-1.36682 3.546,-1.42956 0.2156,-0.21188 -0.8457,-0.29794 -1.6726,-0.13561 -0.4499,0.0883 -1.4117,0.35951 -2.1372,0.60265 -1.2699,0.42556 -6.2542,1.95759 -30.6706,9.42715 -6.2034,1.89777 -14.247,4.36023 -17.8747,5.47215 -3.6277,1.11191 -8.3767,2.56464 -10.5534,3.2283 -2.1766,0.66364 -4.1464,1.26604 -4.3772,1.33866 -0.3493,0.10981 -1.4383,1.2527 -2.0418,2.14279 -0.055,0.0808 -0.7154,0.0211 -1.7826,-0.16116 l -1.6956,-0.28951 -7.5835,2.32001 c -4.1709,1.276 -8.2513,2.52654 -9.0675,2.77897 l -1.4841,0.45896 0,3.95295 c 0,2.17413 0.021,3.95297 0.046,3.95297 0.025,0 3.2159,-1.22255 7.0906,-2.71675 z m -7.8342,-5.14863 c -0.037,-0.0368 -5.5159,-1.66292 -17.2915,-5.13193 l -3.017,-0.88877 -1.6912,0.35631 -1.6912,0.35631 -0.5025,-0.56908 c -1.6472,-1.86516 -1.408,-1.72373 -4.3941,-2.59795 -1.4874,-0.43545 -7.57205,-2.22757 -13.52145,-3.9825 -5.9494,-1.75493 -11.0843,-3.26542 -11.4108,-3.35664 -0.3265,-0.0913 -3.443,-1.00842 -6.9256,-2.03819 -3.4826,-1.02976 -9.6563,-2.85247 -13.71932,-4.05046 -4.06304,-1.198 -9.70247,-2.86128 -12.53208,-3.69619 -7.11765,-2.10013 -7.78933,-2.28495 -8.30436,-2.28495 -0.76447,0 -0.63268,0.20337 0.36235,0.55914 0.52274,0.1869 5.99624,2.18018 12.16333,4.4295 6.1671,2.24933 15.60574,5.69171 20.97474,7.64975 5.36904,1.95804 14.18434,5.17298 19.58964,7.14435 5.4053,1.97135 12.49905,4.55808 15.76395,5.74829 3.265,1.19021 10.4775,3.81995 16.0279,5.84386 l 10.0916,3.67984 0.035,-3.56404 c 0.019,-1.96021 0.016,-3.58321 -0.01,-3.60665 z m 4.7039,-1.9104 c 8.2528,-2.51712 13.3303,-4.08663 13.3793,-4.13569 0.1894,-0.18941 -1.8232,-2.47697 -3.3984,-3.86248 -4.8173,-4.23743 -11.3334,-6.41625 -17.5257,-5.86015 -6.5505,0.58827 -12.0633,3.42848 -16.3538,8.42553 l -0.6987,0.81382 0.4349,0.12365 c 0.6403,0.18203 12.9937,3.82348 16.5947,4.8917 1.705,0.50577 3.1219,0.92345 3.1485,0.92816 0.027,0.005 2.0153,-0.59132 4.4192,-1.32454 z m 18.2487,-5.10047 c 0.1934,-0.28259 0.1768,-0.34211 -0.2948,-1.05535 -0.8954,-1.35384 -2.3788,-3.10199 -3.8402,-4.52533 -5.3302,-5.19155 -12.3526,-8.03708 -19.8346,-8.03708 -8.9929,0 -17.4892,4.26516 -22.8381,11.46481 -0.5709,0.76839 -1.0381,1.43148 -1.0384,1.47353 0,0.11282 1.4578,1.70459 1.5607,1.7034 0.048,-5.3e-4 0.231,-0.25285 0.4059,-0.56064 0.4709,-0.82864 1.7816,-2.51731 2.77,-3.56879 3.4475,-3.66752 7.9747,-6.33478 12.8079,-7.54612 4.0322,-1.01056 8.8114,-1.0135 12.779,-0.008 6.188,1.56841 11.5337,5.25238 15.1874,10.4663 l 1.1212,1.60012 0.5045,-0.55377 c 0.2774,-0.30456 0.5967,-0.68852 0.7095,-0.85323 z"
         style="fill:#006a00;fill-opacity:1" />
      <path
         style="fill:#ff7f2a;fill-opacity:1;fill-rule:nonzero;stroke:#000000;stroke-width:1.00082852;stroke-linejoin:round;stroke-miterlimit:4;stroke-opacity:1;stroke-dasharray:none;stroke-dashoffset:0"
         d="m 426.55455,-197.69664 c -66.76399,0 -126.27802,32.02736 -164.93309,81.96802 l 31.53827,23.614347 c 31.54185,-39.928587 79.57379,-65.437977 133.39482,-65.437977 72.81879,0 135.05542,46.67656 160.15776,112.614196 l 36.68095,-13.538892 C 592.89271,-139.93238 516.26882,-197.69664 426.55455,-197.69664 z"
         id="path4995" />
      <path
         style="fill:#ffff00;stroke:#000000;stroke-width:1.00082852;stroke-linecap:butt;stroke-linejoin:miter;stroke-miterlimit:4;stroke-opacity:1;stroke-dasharray:none"
         d="m 216.17696,4.3372184 c -0.35369,5.1519663 -0.57724,10.3405736 -0.57724,15.5854696 0,27.562666 4.99564,53.9192 14.06365,78.189729 l 35.99876,-15.270612 c -7.18764,-19.557264 -11.12498,-40.765559 -11.12498,-62.919117 0,-4.755229 0.22146,-9.455227 0.57724,-14.1161325 L 216.17696,4.3372184 z"
         id="path4967" />
      <path
         inkscape:connector-curvature="0"
         style="fill:#42f9f9;stroke:#000000;stroke-width:1.00082852;stroke-linecap:butt;stroke-linejoin:miter;stroke-miterlimit:4;stroke-opacity:1;stroke-dasharray:none;fill-opacity:1"
         d="m 265.68936,82.838389 -36.05123,15.27061 c 6.05472,16.207851 13.91092,31.482391 23.35196,45.549461 l 31.80066,-23.14207 C 277.02437,108.88888 270.61811,96.247139 265.68936,82.838389 z"
         id="path4105-6" />
      <path
         inkscape:connector-curvature="0"
         style="fill:#ff0000;stroke:#000000;stroke-width:1.00082852;stroke-linecap:butt;stroke-linejoin:miter;stroke-miterlimit:4;stroke-opacity:1;stroke-dasharray:none"
         d="m 623.36802,-58.480361 -36.68096,13.538893 c 7.65216,20.094506 11.85965,41.9645386 11.85965,64.860741 0,51.773868 -21.50653,98.328597 -55.78233,130.771007 l 24.76882,31.11847 c 42.94851,-39.83568 69.95095,-97.614069 69.95095,-161.889477 0,-27.6366671 -5.00912,-54.078213 -14.11613,-78.399634 z"
         id="path4187" />
      <path
         sodipodi:nodetypes="cccc"
         inkscape:connector-curvature="0"
         id="path3932-22"
         d="m 282.06713,114.86948 7.86913,-1.79164 -4.47651,6.7152 z"
         style="fill:#000000;fill-opacity:1;stroke:#000000;stroke-width:1px;stroke-linecap:butt;stroke-linejoin:miter;stroke-opacity:1" />
      <path
         sodipodi:nodetypes="cccc"
         inkscape:connector-curvature="0"
         id="path3932-8"
         d="m 258.763,55.644298 7.94845,1.398343 -6.7293,4.455287 z"
         style="fill:#000000;fill-opacity:1;stroke:#000000;stroke-width:1px;stroke-linecap:butt;stroke-linejoin:miter;stroke-opacity:1"
         inkscape:transform-center-x="-1.934134"
         inkscape:transform-center-y="-1.5391585" />
      <path
         sodipodi:nodetypes="cccc"
         inkscape:connector-curvature="0"
         id="path3932-8-4"
         d="m 268.35535,-48.93942 5.69933,5.71409 -8.0674,-0.22377 z"
         style="fill:#000000;fill-opacity:1;stroke:#000000;stroke-width:1px;stroke-linecap:butt;stroke-linejoin:miter;stroke-opacity:1"
         inkscape:transform-center-x="-1.7677669"
         inkscape:transform-center-y="-0.63134534" />
      <path
         sodipodi:nodetypes="cccc"
         inkscape:connector-curvature="0"
         id="path3932-8-4-5"
         d="m 267.30943,86.36537 4.93134,-0.0306 -3.55692,3.41575 z"
         style="fill:#000000;fill-opacity:1;stroke:#000000;stroke-width:0.61104381px;stroke-linecap:butt;stroke-linejoin:miter;stroke-opacity:1"
         inkscape:transform-center-x="-1.1138466"
         inkscape:transform-center-y="-1.0458201" />
      <path
         sodipodi:nodetypes="cccc"
         inkscape:connector-curvature="0"
         id="path3932-8-4-8"
         d="m 339.13921,-132.06047 1.56827,7.91667 -6.58586,-4.66471 z"
         style="fill:#000000;fill-opacity:1;stroke:#000000;stroke-width:1px;stroke-linecap:butt;stroke-linejoin:miter;stroke-opacity:1"
         inkscape:transform-center-x="-2.1500854"
         inkscape:transform-center-y="1.1575812" />
      <path
         sodipodi:nodetypes="cccc"
         inkscape:connector-curvature="0"
         id="path3932-8-4-54"
         d="m 435.30273,-156.62446 -3.2041,7.40718 -2.7727,-7.57927 z"
         style="fill:#000000;fill-opacity:1;stroke:#000000;stroke-width:1px;stroke-linecap:butt;stroke-linejoin:miter;stroke-opacity:1"
         inkscape:transform-center-x="-1.5168415"
         inkscape:transform-center-y="2.9707559" />
      <path
         sodipodi:nodetypes="cccc"
         inkscape:connector-curvature="0"
         id="path3932-8-4-7"
         d="m 531.24615,-120.00505 -6.94521,4.11049 2.21044,-7.7619 z"
         style="fill:#000000;fill-opacity:1;stroke:#000000;stroke-width:1px;stroke-linecap:butt;stroke-linejoin:miter;stroke-opacity:1"
         inkscape:transform-center-x="-0.11947039"
         inkscape:transform-center-y="2.73445" />
      <path
         sodipodi:nodetypes="cccc"
         inkscape:connector-curvature="0"
         id="path3932-8-4-3"
         d="m 587.00965,-42.02205 -8.0699,-0.10028 5.9242,-5.48065 z"
         style="fill:#000000;fill-opacity:1;stroke:#000000;stroke-width:1px;stroke-linecap:butt;stroke-linejoin:miter;stroke-opacity:1"
         inkscape:transform-center-x="1.8851389"
         inkscape:transform-center-y="1.6946091" />
      <path
         sodipodi:nodetypes="cccc"
         inkscape:connector-curvature="0"
         id="path3932-8-4-83"
         d="m 593.46685,58.67485 -6.5775,-4.67647 7.9905,-1.13344 z"
         style="fill:#000000;fill-opacity:1;stroke:#000000;stroke-width:1px;stroke-linecap:butt;stroke-linejoin:miter;stroke-opacity:1"
         inkscape:transform-center-x="3.0228543"
         inkscape:transform-center-y="1.3242397" />
      <path
         sodipodi:nodetypes="cccc"
         inkscape:connector-curvature="0"
         id="path3932-8-4-9"
         d="m 542.38585,149.80879 -3.0643,-7.46621 7.3612,3.30842 z"
         style="fill:#000000;fill-opacity:1;stroke:#000000;stroke-width:1px;stroke-linecap:butt;stroke-linejoin:miter;stroke-opacity:1"
         inkscape:transform-center-x="2.5193832"
         inkscape:transform-center-y="-0.43377951" />
      <path
         sodipodi:nodetypes="cccc"
         inkscape:connector-curvature="0"
         id="path3932-8-4-5-6"
         d="m 255.6401,3.8974847 4.48212,2.05661 -4.66732,1.59222 z"
         style="fill:#000000;fill-opacity:1;stroke:#000000;stroke-width:0.61104381px;stroke-linecap:butt;stroke-linejoin:miter;stroke-opacity:1"
         inkscape:transform-center-x="-2.8083033"
         inkscape:transform-center-y="-1.2404111" />
      <path
         sodipodi:nodetypes="cccc"
         inkscape:connector-curvature="0"
         id="path3932-8-4-5-2"
         d="m 294.90312,-93.316598 2.38826,4.314544 -4.70191,-1.486949 z"
         style="fill:#000000;fill-opacity:1;stroke:#000000;stroke-width:0.61104381px;stroke-linecap:butt;stroke-linejoin:miter;stroke-opacity:1"
         inkscape:transform-center-x="-2.6333702"
         inkscape:transform-center-y="0.31841015" />
      <path
         sodipodi:nodetypes="cccc"
         inkscape:connector-curvature="0"
         id="path3932-8-4-5-8"
         d="m 382.69321,-151.22232 -0.44636,4.91119 -3.05586,-3.8705 z"
         style="fill:#000000;fill-opacity:1;stroke:#000000;stroke-width:0.61104381px;stroke-linecap:butt;stroke-linejoin:miter;stroke-opacity:1"
         inkscape:transform-center-x="-1.6604345"
         inkscape:transform-center-y="2.1288937" />
      <path
         sodipodi:nodetypes="cccc"
         inkscape:connector-curvature="0"
         id="path3932-8-4-5-24"
         d="m 484.02477,-146.85855 -3.194,3.75739 -0.2683,-4.92412 z"
         style="fill:#000000;fill-opacity:1;stroke:#000000;stroke-width:0.61104381px;stroke-linecap:butt;stroke-linejoin:miter;stroke-opacity:1"
         inkscape:transform-center-x="-0.79478229"
         inkscape:transform-center-y="2.8734467" />
      <path
         sodipodi:nodetypes="cccc"
         inkscape:connector-curvature="0"
         id="path3932-8-4-5-9"
         d="m 564.93541,-84.526292 -4.77716,1.223781 2.62396,-4.175391 z"
         style="fill:#000000;fill-opacity:1;stroke:#000000;stroke-width:0.61104381px;stroke-linecap:butt;stroke-linejoin:miter;stroke-opacity:1"
         inkscape:transform-center-x="1.1454437"
         inkscape:transform-center-y="2.2559269" />
      <path
         sodipodi:nodetypes="cccc"
         inkscape:connector-curvature="0"
         id="path3932-8-4-5-3"
         d="m 597.18265,5.21083 -4.6835,-1.54438 4.4609,-2.10236 z"
         style="fill:#000000;fill-opacity:1;stroke:#000000;stroke-width:0.61104381px;stroke-linecap:butt;stroke-linejoin:miter;stroke-opacity:1"
         inkscape:transform-center-x="2.6545707"
         inkscape:transform-center-y="1.3969179" />
      <path
         sodipodi:nodetypes="cccc"
         inkscape:connector-curvature="0"
         id="path3932-8-4-5-0"
         d="m 575.77025,106.62345 -3.0386,-3.88415 4.8776,0.7272 z"
         style="fill:#000000;fill-opacity:1;stroke:#000000;stroke-width:0.61104381px;stroke-linecap:butt;stroke-linejoin:miter;stroke-opacity:1"
         inkscape:transform-center-x="2.783349"
         inkscape:transform-center-y="0.20930203" />
      <text
         sodipodi:linespacing="125%"
         id="text3899-2"
         y="169.44695"
         x="284.50861"
         style="font-size:44.49687958px;font-style:normal;font-variant:normal;font-weight:normal;font-stretch:normal;text-align:start;line-height:125%;letter-spacing:0px;word-spacing:0px;writing-mode:lr-tb;text-anchor:start;fill:#000000;fill-opacity:1;stroke:none;font-family:AlMohanad;-inkscape-font-specification:AlMohanad"
         xml:space="preserve"><tspan
           style="font-size:44.49687958px;font-style:normal;font-variant:normal;font-weight:normal;font-stretch:normal;text-align:start;line-height:125%;writing-mode:lr-tb;text-anchor:start;fill:#000000;font-family:AlMohanad;-inkscape-font-specification:AlMohanad"
           dx="0"
           y="169.44695"
           x="284.50861"
           id="tspan3901-3"
           sodipodi:role="line">0</tspan></text>
      <text
         sodipodi:linespacing="125%"
         id="text3899-2-9"
         y="74.089973"
         x="269.87512"
         style="font-size:44.49687958px;font-style:normal;font-variant:normal;font-weight:normal;font-stretch:normal;text-align:start;line-height:125%;letter-spacing:0px;word-spacing:0px;writing-mode:lr-tb;text-anchor:start;fill:#000000;fill-opacity:1;stroke:none;font-family:AlMohanad;-inkscape-font-specification:AlMohanad"
         xml:space="preserve"><tspan
           style="font-size:44.49687958px;font-style:normal;font-variant:normal;font-weight:normal;font-stretch:normal;text-align:start;line-height:125%;writing-mode:lr-tb;text-anchor:start;fill:#000000;font-family:AlMohanad;-inkscape-font-specification:AlMohanad"
           dx="0 0"
           y="74.089973"
           x="269.87512"
           id="tspan3901-3-9"
           sodipodi:role="line">20</tspan></text>
      <text
         sodipodi:linespacing="125%"
         id="text3899-2-9-5"
         y="-24.865398"
         x="275.36407"
         style="font-size:44.49687958px;font-style:normal;font-variant:normal;font-weight:normal;font-stretch:normal;text-align:start;line-height:125%;letter-spacing:0px;word-spacing:0px;writing-mode:lr-tb;text-anchor:start;fill:#000000;fill-opacity:1;stroke:none;font-family:AlMohanad;-inkscape-font-specification:AlMohanad"
         xml:space="preserve"><tspan
           style="font-size:44.49687958px;font-style:normal;font-variant:normal;font-weight:normal;font-stretch:normal;text-align:start;line-height:125%;writing-mode:lr-tb;text-anchor:start;fill:#000000;font-family:AlMohanad;-inkscape-font-specification:AlMohanad"
           dx="0 0"
           y="-24.865398"
           x="275.36407"
           id="tspan3901-3-9-1"
           sodipodi:role="line">40</tspan></text>
      <text
         sodipodi:linespacing="125%"
         id="text3899-2-9-5-2"
         y="-87.836998"
         x="326.46094"
         style="font-size:44.49687958px;font-style:normal;font-variant:normal;font-weight:normal;font-stretch:normal;text-align:start;line-height:125%;letter-spacing:0px;word-spacing:0px;writing-mode:lr-tb;text-anchor:start;fill:#000000;fill-opacity:1;stroke:none;font-family:AlMohanad;-inkscape-font-specification:AlMohanad"
         xml:space="preserve"><tspan
           style="font-size:44.49687958px;font-style:normal;font-variant:normal;font-weight:normal;font-stretch:normal;text-align:start;line-height:125%;writing-mode:lr-tb;text-anchor:start;fill:#000000;font-family:AlMohanad;-inkscape-font-specification:AlMohanad"
           dx="0 0"
           y="-87.836998"
           x="326.46094"
           id="tspan3901-3-9-1-4"
           sodipodi:role="line">60</tspan></text>
      <text
         sodipodi:linespacing="125%"
         id="text3899-2-9-5-8"
         y="-118.42318"
         x="408.02423"
         style="font-size:44.49687958px;font-style:normal;font-variant:normal;font-weight:normal;font-stretch:normal;text-align:start;line-height:125%;letter-spacing:0px;word-spacing:0px;writing-mode:lr-tb;text-anchor:start;fill:#000000;fill-opacity:1;stroke:none;font-family:AlMohanad;-inkscape-font-specification:AlMohanad"
         xml:space="preserve"><tspan
           style="font-size:44.49687958px;font-style:normal;font-variant:normal;font-weight:normal;font-stretch:normal;text-align:start;line-height:125%;writing-mode:lr-tb;text-anchor:start;fill:#000000;font-family:AlMohanad;-inkscape-font-specification:AlMohanad"
           dx="0 -0.59972948"
           y="-118.42318"
           x="408.02423"
           id="tspan3901-3-9-1-43"
           sodipodi:role="line">80</tspan></text>
      <text
         sodipodi:linespacing="125%"
         id="text3899-2-9-5-5"
         y="-87.836998"
         x="456.48193"
         style="font-size:44.49687958px;font-style:normal;font-variant:normal;font-weight:normal;font-stretch:normal;text-align:start;line-height:125%;letter-spacing:0px;word-spacing:0px;writing-mode:lr-tb;text-anchor:start;fill:#000000;fill-opacity:1;stroke:none;font-family:AlMohanad;-inkscape-font-specification:AlMohanad"
         xml:space="preserve"><tspan
           style="font-size:44.49687958px;font-style:normal;font-variant:normal;font-weight:normal;font-stretch:normal;text-align:start;line-height:125%;writing-mode:lr-tb;text-anchor:start;fill:#000000;font-family:AlMohanad;-inkscape-font-specification:AlMohanad"
           dx="0 -6.5970244 -1.199459"
           y="-87.836998"
           x="456.48193"
           id="tspan3901-3-9-1-1"
           sodipodi:role="line">100</tspan></text>
      <text
         sodipodi:linespacing="125%"
         id="text3899-2-9-5-0"
         y="-24.865398"
         x="507.69885"
         style="font-size:44.49687958px;font-style:normal;font-variant:normal;font-weight:normal;font-stretch:normal;text-align:start;line-height:125%;letter-spacing:0px;word-spacing:0px;writing-mode:lr-tb;text-anchor:start;fill:#000000;fill-opacity:1;stroke:none;font-family:AlMohanad;-inkscape-font-specification:AlMohanad"
         xml:space="preserve"><tspan
           style="font-size:44.49687958px;font-style:normal;font-variant:normal;font-weight:normal;font-stretch:normal;text-align:start;line-height:125%;writing-mode:lr-tb;text-anchor:start;fill:#000000;font-family:AlMohanad;-inkscape-font-specification:AlMohanad"
           dx="0 -5.9972949 -0.59972948"
           y="-24.865398"
           x="507.69885"
           id="tspan3901-3-9-1-6"
           sodipodi:role="line">120</tspan></text>
      <text
         sodipodi:linespacing="125%"
         id="text3899-2-9-5-1"
         y="74.089973"
         x="512.01697"
         style="font-size:44.49687958px;font-style:normal;font-variant:normal;font-weight:normal;font-stretch:normal;text-align:start;line-height:125%;letter-spacing:0px;word-spacing:0px;writing-mode:lr-tb;text-anchor:start;fill:#000000;fill-opacity:1;stroke:none;font-family:AlMohanad;-inkscape-font-specification:AlMohanad"
         xml:space="preserve"><tspan
           style="font-size:44.49687958px;font-style:normal;font-variant:normal;font-weight:normal;font-stretch:normal;text-align:start;line-height:125%;writing-mode:lr-tb;text-anchor:start;fill:#000000;font-family:AlMohanad;-inkscape-font-specification:AlMohanad"
           dx="0 -4.7978358 0"
           y="74.089973"
           x="512.01697"
           id="tspan3901-3-9-1-3"
           sodipodi:role="line">140</tspan></text>
      <text
         sodipodi:linespacing="125%"
         id="text3899-2-9-5-6"
         y="169.44695"
         x="461.88"
         style="font-size:44.49687958px;font-style:normal;font-variant:normal;font-weight:normal;font-stretch:normal;text-align:start;line-height:125%;letter-spacing:0px;word-spacing:0px;writing-mode:lr-tb;text-anchor:start;fill:#000000;fill-opacity:1;stroke:none;font-family:AlMohanad;-inkscape-font-specification:AlMohanad"
         xml:space="preserve"><tspan
           style="font-size:44.49687958px;font-style:normal;font-variant:normal;font-weight:normal;font-stretch:normal;text-align:start;line-height:125%;writing-mode:lr-tb;text-anchor:start;fill:#000000;font-family:AlMohanad;-inkscape-font-specification:AlMohanad"
           y="169.44695"
           x="461.88"
           id="tspan3901-3-9-1-33"
           sodipodi:role="line">220</tspan></text>
      <text
         sodipodi:linespacing="125%"
         id="text3899-9-7-0-4"
         y="209.21945"
         x="397.9342"
         style="font-size:33.09073257px;font-style:normal;font-variant:normal;font-weight:normal;font-stretch:normal;text-align:start;line-height:125%;letter-spacing:0px;word-spacing:0px;writing-mode:lr-tb;text-anchor:start;fill:#ff0000;fill-opacity:1;stroke:none;font-family:AlMohanad;-inkscape-font-specification:AlMohanad"
         xml:space="preserve"><tspan
           style="font-size:33.09073257px;font-style:normal;font-variant:normal;font-weight:normal;font-stretch:normal;text-align:start;line-height:125%;writing-mode:lr-tb;text-anchor:start;fill:#ff0000;font-family:AlMohanad;-inkscape-font-specification:AlMohanad"
           y="209.21945"
           x="397.9342"
           id="tspan3901-0-4-0-1"
           sodipodi:role="line">km/h</tspan></text>
      <path
         style="fill:#008000;stroke:#000000;stroke-width:1.00082852;stroke-linecap:butt;stroke-linejoin:miter;stroke-miterlimit:4;stroke-opacity:1;stroke-dasharray:none"
         d="m 261.62146,-115.72862 c -28.79715,37.204642 -46.02174,84.336747 -46.02174,135.651308 0,-5.244896 0.22355,-10.4335033 0.57724,-15.5854696 l 38.88495,1.4693371 c 2.82751,-36.9808995 16.66476,-70.7888705 38.09782,-97.9208285 l -31.53827,-23.614347 z"
         id="path4959" />
      <path
         style="fill:#008000;stroke:#000000;stroke-width:0.59600002;stroke-linecap:butt;stroke-linejoin:miter;stroke-miterlimit:4;stroke-opacity:1;stroke-dasharray:none"
         d="m 229.66337,98.112417 c -1.08145,-2.894477 -2.07959,-5.81122 -3.04363,-8.763547 0.96127,2.944501 1.9651,5.876895 3.04363,8.763547 z"
         id="path4166" />
    </g>
  </g>
</svg>
