<?xml version="1.0" encoding="UTF-8" standalone="no"?>
<!-- Created with Inkscape (http://www.inkscape.org/) -->

<svg
   xmlns:dc="http://purl.org/dc/elements/1.1/"
   xmlns:cc="http://creativecommons.org/ns#"
   xmlns:rdf="http://www.w3.org/1999/02/22-rdf-syntax-ns#"
   xmlns:svg="http://www.w3.org/2000/svg"
   xmlns="http://www.w3.org/2000/svg"
   xmlns:xlink="http://www.w3.org/1999/xlink"
   xmlns:sodipodi="http://sodipodi.sourceforge.net/DTD/sodipodi-0.dtd"
   xmlns:inkscape="http://www.inkscape.org/namespaces/inkscape"
   width="744.09448"
   height="1052.3622"
   id="svg2"
   version="1.1"
   inkscape:version="0.48.2 r9819"
   sodipodi:docname="tachometer.svg">
  <defs
     id="defs4">
    <linearGradient
       id="linearGradient3916">
      <stop
         style="stop-color:#008000;stop-opacity:1;"
         offset="0"
         id="stop3918" />
      <stop
         style="stop-color:#ffffff;stop-opacity:1;"
         offset="1"
         id="stop3920" />
    </linearGradient>
    <linearGradient
       id="linearGradient3891">
      <stop
         style="stop-color:#008002;stop-opacity:1;"
         offset="0"
         id="stop3893" />
      <stop
         style="stop-color:#feff00;stop-opacity:1;"
         offset="1"
         id="stop3895" />
    </linearGradient>
    <linearGradient
       inkscape:collect="always"
       xlink:href="#linearGradient3891"
       id="linearGradient3001"
       gradientUnits="userSpaceOnUse"
       gradientTransform="matrix(0.29865331,0,0,0.29865331,145.18568,542.05816)"
       x1="13.754464"
       y1="604.88617"
       x2="-202.78572"
       y2="600.60046" />
    <linearGradient
       inkscape:collect="always"
       xlink:href="#linearGradient3916"
       id="linearGradient4370"
       gradientUnits="userSpaceOnUse"
       x1="433.00894"
       y1="108.5067"
       x2="237.29465"
       y2="382.07812" />
  </defs>
  <sodipodi:namedview
     id="base"
     pagecolor="#ffffff"
     bordercolor="#666666"
     borderopacity="1.0"
     inkscape:pageopacity="0.0"
     inkscape:pageshadow="2"
     inkscape:zoom="1.979899"
     inkscape:cx="423.27699"
     inkscape:cy="814.85604"
     inkscape:document-units="px"
     inkscape:current-layer="g4308"
     showgrid="false"
     showguides="true"
     inkscape:guide-bbox="true"
     inkscape:window-width="1920"
     inkscape:window-height="1008"
     inkscape:window-x="0"
     inkscape:window-y="24"
     inkscape:window-maximized="1"
     fit-margin-top="0"
     fit-margin-left="0"
     fit-margin-right="0"
     fit-margin-bottom="0" />
  <metadata
     id="metadata7">
    <rdf:RDF>
      <cc:Work
         rdf:about="">
        <dc:format>image/svg+xml</dc:format>
        <dc:type
           rdf:resource="http://purl.org/dc/dcmitype/StillImage" />
        <dc:title />
      </cc:Work>
    </rdf:RDF>
  </metadata>
  <g
     inkscape:label="Layer 1"
     inkscape:groupmode="layer"
     id="layer1"
     transform="translate(-34.295135,279.12318)">
    <g
       transform="translate(-1.5958687,158.06566)"
       style="font-size:23.02064896px;font-style:normal;font-variant:normal;font-weight:normal;font-stretch:normal;text-align:start;line-height:125%;letter-spacing:0px;word-spacing:0px;writing-mode:lr-tb;text-anchor:start;fill:#ffff00;fill-opacity:1;stroke:none;font-family:AlMohanad;-inkscape-font-specification:AlMohanad"
       id="text3899-9-9-71-3" />
    <g
       id="g4308"
       transform="matrix(0.59550661,0,0,0.59550661,148.15408,-49.862269)">
      <path
         id="path3009-4"
         transform="translate(34.295135,-279.12318)"
         d="M 399.78125,-1.21875 C 270.2365,-0.86160715 140.9375,116.16227 140.9375,260.65625 c 0,87.88068 43.81475,165.36919 109.3125,212.8125 l 0,10.96875 c 42.81056,29.0686 94.1519,48.8125 149.53125,48.8125 54.29858,0 104.57002,-20.08921 146.875,-48.125 l 0,-9.875 c 66.90798,-47.26334 110.9375,-125.8507 110.9375,-214.84375 0,-144.49398 -128.26775,-261.9821429 -257.8125,-261.625 z M 398.1875,270.3125 c 6.52036,0 11.8125,5.29214 11.8125,11.8125 0,6.52036 -5.29214,11.8125 -11.8125,11.8125 -6.52036,0 -11.8125,-5.29214 -11.8125,-11.8125 0,-6.52036 5.29214,-11.8125 11.8125,-11.8125 z m -76.3125,4.34375 c 4.11452,0 7.4375,3.35423 7.4375,7.46875 0,4.11452 -3.32298,7.4375 -7.4375,7.4375 -4.11452,0 -7.46875,-3.32298 -7.46875,-7.4375 0,-4.11452 3.35423,-7.46875 7.46875,-7.46875 z m 154.40625,0 c 4.11452,0 7.46875,3.35423 7.46875,7.46875 0,4.11452 -3.35423,7.4375 -7.46875,7.4375 -4.11452,0 -7.4375,-3.32298 -7.4375,-7.4375 0,-4.11452 3.32298,-7.46875 7.4375,-7.46875 z"
         style="fill:#ffffff;fill-opacity:1;fill-rule:nonzero;stroke:#000000;stroke-opacity:1"
         inkscape:connector-curvature="0" />
      <text
         sodipodi:linespacing="125%"
         id="text3899"
         y="123.49516"
         x="292.19208"
         style="font-size:44.49687958px;font-style:normal;font-variant:normal;font-weight:normal;font-stretch:normal;text-align:start;line-height:125%;letter-spacing:0px;word-spacing:0px;writing-mode:lr-tb;text-anchor:start;fill:#000000;fill-opacity:1;stroke:none;font-family:AlMohanad;-inkscape-font-specification:AlMohanad"
         xml:space="preserve"><tspan
           style="font-size:44.49687958px;font-style:normal;font-variant:normal;font-weight:normal;font-stretch:normal;text-align:start;line-height:125%;writing-mode:lr-tb;text-anchor:start;fill:#000000;font-family:AlMohanad;-inkscape-font-specification:AlMohanad"
           dx="0"
           y="123.49516"
           x="292.19208"
           id="tspan3901"
           sodipodi:role="line">0</tspan></text>
      <path
         transform="translate(34.295135,-279.12318)"
         id="path3906"
         d="m 418.28125,82.5 c -0.11686,-0.01153 -0.22683,-0.05116 -0.34375,-0.0625 -0.27727,-0.02688 -0.56615,-0.0055 -0.84375,-0.03125 0.39433,0.03661 0.79383,0.05488 1.1875,0.09375 z"
         style="fill:#000000;fill-opacity:1;fill-rule:nonzero;stroke:none"
         inkscape:connector-curvature="0" />
      <path
         transform="translate(34.295135,-279.12318)"
         id="path3904"
         d="m 437.5625,85.375 c -0.14971,-0.02958 -0.28767,-0.09575 -0.4375,-0.125 -0.29713,-0.05801 -0.60866,-0.0683 -0.90625,-0.125 0.44705,0.08524 0.89775,0.161819 1.34375,0.25 z"
         style="fill:#000000;fill-opacity:1;fill-rule:nonzero;stroke:none"
         inkscape:connector-curvature="0" />
      <path
         transform="translate(34.295135,-279.12318)"
         id="path3902"
         d="m 456.0625,89.9375 c -0.12695,-0.0379 -0.24794,-0.08734 -0.375,-0.125 -0.20473,-0.06068 -0.42,-0.09621 -0.625,-0.15625 0.33169,0.09718 0.66902,0.182419 1,0.28125 z"
         style="fill:#000000;fill-opacity:1;fill-rule:nonzero;stroke:none"
         inkscape:connector-curvature="0" />
      <path
         transform="translate(34.295135,-279.12318)"
         id="path3900"
         d="m 475.09375,96.75 c -0.53157,-0.219165 -1.02866,-0.504002 -1.5625,-0.71875 -2.4568,-0.988301 -5.02774,-1.731597 -7.53125,-2.625 3.04289,1.08593 6.12021,2.117983 9.09375,3.34375 z"
         style="fill:#000000;fill-opacity:1;fill-rule:nonzero;stroke:none"
         inkscape:connector-curvature="0" />
      <path
         transform="translate(34.295135,-279.12318)"
         id="path3898"
         d="m 492.65625,105 c -0.70286,-0.37277 -1.35474,-0.82282 -2.0625,-1.1875 -2.51488,-1.29582 -5.17505,-2.33933 -7.75,-3.53125 3.29835,1.52666 6.61333,3.02228 9.8125,4.71875 z"
         style="fill:#000000;fill-opacity:1;fill-rule:nonzero;stroke:none"
         inkscape:connector-curvature="0" />
      <path
         transform="translate(34.295135,-279.12318)"
         id="path3896"
         d="m 508.9375,114.6875 c -0.75647,-0.49736 -1.45524,-1.07508 -2.21875,-1.5625 -2.16874,-1.38453 -4.4634,-2.57208 -6.6875,-3.875 3.00733,1.76164 6.0008,3.52736 8.90625,5.4375 z"
         style="fill:#000000;fill-opacity:1;fill-rule:nonzero;stroke:none"
         inkscape:connector-curvature="0" />
      <path
         transform="translate(34.295135,-279.12318)"
         id="path3894"
         d="m 524.4375,125.96875 c -0.86553,-0.69461 -1.65412,-1.47569 -2.53125,-2.15625 -1.96283,-1.52293 -4.07421,-2.86133 -6.09375,-4.3125 2.91917,2.09767 5.82523,4.22208 8.625,6.46875 z"
         style="fill:#000000;fill-opacity:1;fill-rule:nonzero;stroke:none"
         inkscape:connector-curvature="0" />
      <path
         transform="translate(34.295135,-279.12318)"
         id="path3892"
         d="m 584.1875,204.625 c -0.0747,-0.17588 -0.14361,-0.35563 -0.21875,-0.53125 -1.737,-4.05961 -3.60366,-8.05122 -5.59375,-11.96875 -0.54571,-1.07424 -1.18576,-2.09319 -1.75,-3.15625 2.71081,5.10731 5.28915,10.3003 7.5625,15.65625 z"
         style="fill:#000000;fill-opacity:1;fill-rule:nonzero;stroke:none"
         inkscape:connector-curvature="0" />
      <path
         transform="translate(34.295135,-279.12318)"
         id="path3890"
         d="m 590.25,221.1875 c -0.50795,-1.56716 -0.92379,-3.16864 -1.46875,-4.71875 -1.27581,-3.62899 -2.68239,-7.188 -4.15625,-10.71875 2.10416,5.04132 3.92769,10.19883 5.625,15.4375 z"
         style="fill:#000000;fill-opacity:1;fill-rule:nonzero;stroke:none"
         inkscape:connector-curvature="0" />
      <path
         transform="translate(34.295135,-279.12318)"
         id="path3888"
         d="m 593.03125,230.21875 c -0.0899,-0.3298 -0.15845,-0.67087 -0.25,-1 -0.15263,-0.54871 -0.34286,-1.07818 -0.5,-1.625 0.25074,0.8728 0.51075,1.7474 0.75,2.625 z"
         style="fill:#000000;fill-opacity:1;fill-rule:nonzero;stroke:none"
         inkscape:connector-curvature="0" />
      <path
         transform="translate(34.295135,-279.12318)"
         id="path3886"
         d="m 598.5,257.75 c -0.0841,-0.66208 -0.12821,-1.33993 -0.21875,-2 -0.0492,-0.35882 -0.1364,-0.70428 -0.1875,-1.0625 0.14522,1.01812 0.27628,2.03954 0.40625,3.0625 z"
         style="fill:#000000;fill-opacity:1;fill-rule:nonzero;stroke:none"
         inkscape:connector-curvature="0" />
      <path
         transform="translate(34.295135,-279.12318)"
         id="path3884"
         d="m 599.71875,270.71875 c -0.0257,-0.41352 -0.003,-0.83716 -0.0312,-1.25 -0.046,-0.67325 -0.16613,-1.32858 -0.21875,-2 0.0848,1.08343 0.18236,2.16183 0.25,3.25 z"
         style="fill:#000000;fill-opacity:1;fill-rule:nonzero;stroke:none"
         inkscape:connector-curvature="0" />
      <path
         transform="translate(34.295135,-279.12318)"
         id="path3880"
         d="M 564.4375,105.28125 536,135.8125 c -1.69096,-1.5788 -3.53677,-2.9794 -5.28125,-4.5 17.48997,15.24415 32.37535,33.36171 43.78125,53.75 -0.83008,-1.48395 -1.60263,-3.00821 -2.46875,-4.46875 L 607.90625,159.25 C 596.02516,139.2359 581.35232,121.06946 564.4375,105.28125 z"
         style="fill:#fff400;fill-opacity:1;fill-rule:nonzero;stroke:#000000;stroke-opacity:1"
         inkscape:connector-curvature="0" />
      <path
         transform="translate(34.295135,-279.12318)"
         id="path3805-1"
         d="m 398.1875,39.71875 c -134.61356,0 -243.75,109.1052 -243.75,243.71875 0,52.54298 16.62664,101.19505 44.90625,141 l 34.1875,-24.0625 C 210.0562,367.37226 196.25,327.02184 196.25,283.4375 196.25,171.90156 286.65156,81.5 398.1875,81.5 c 6.37613,0 12.68101,0.328323 18.90625,0.90625 0.2776,0.02576 0.56648,0.0044 0.84375,0.03125 0.11692,0.01134 0.22689,0.05097 0.34375,0.0625 6.07313,0.599674 12.03447,1.499448 17.9375,2.625 0.29759,0.0567 0.60912,0.06699 0.90625,0.125 0.14983,0.02925 0.28779,0.09542 0.4375,0.125 5.92814,1.172101 11.77065,2.602692 17.5,4.28125 0.205,0.06004 0.42027,0.09557 0.625,0.15625 0.12706,0.03766 0.24805,0.0871 0.375,0.125 3.37775,1.008598 6.63648,2.290703 9.9375,3.46875 2.50351,0.893403 5.07445,1.636699 7.53125,2.625 0.53384,0.214748 1.03093,0.499585 1.5625,0.71875 2.63453,1.086021 5.17286,2.338405 7.75,3.53125 2.57495,1.19192 5.23512,2.23543 7.75,3.53125 0.70776,0.36468 1.35964,0.81473 2.0625,1.1875 2.51584,1.33411 4.92371,2.81408 7.375,4.25 2.2241,1.30292 4.51876,2.49047 6.6875,3.875 0.76351,0.48742 1.46228,1.06514 2.21875,1.5625 2.34208,1.53977 4.60218,3.17929 6.875,4.8125 2.01954,1.45117 4.13092,2.78957 6.09375,4.3125 0.87713,0.68056 1.66572,1.46164 2.53125,2.15625 2.14716,1.72299 4.20732,3.53613 6.28125,5.34375 1.74448,1.5206 3.59029,2.9212 5.28125,4.5 l 28.4375,-30.53125 c -0.38797,-0.36213 -0.76592,-0.73413 -1.15625,-1.09375 -1.3448,-1.23906 -2.7213,-2.44733 -4.09375,-3.65625 -1.52993,-1.34747 -3.06136,-2.690665 -4.625,-4 -1.26037,-1.055561 -2.53068,-2.094649 -3.8125,-3.125 -1.67208,-1.343811 -3.35463,-2.668575 -5.0625,-3.96875 -1.4446,-1.099967 -2.90538,-2.18182 -4.375,-3.25 -1.63203,-1.185921 -3.27526,-2.353935 -4.9375,-3.5 -1.6514,-1.138883 -3.31948,-2.244909 -5,-3.34375 -1.29467,-0.846331 -2.59465,-1.677789 -3.90625,-2.5 -1.87959,-1.178601 -3.77394,-2.340485 -5.6875,-3.46875 -1.50911,-0.889518 -3.03277,-1.767293 -4.5625,-2.625 -1.92746,-1.081026 -3.88437,-2.126561 -5.84375,-3.15625 -1.25431,-0.658918 -2.51417,-1.299917 -3.78125,-1.9375 -2.12835,-1.071429 -4.27401,-2.114694 -6.4375,-3.125 -1.45889,-0.680941 -2.93181,-1.347271 -4.40625,-2 -2.00039,-0.885936 -4.00299,-1.760516 -6.03125,-2.59375 -1.44786,-0.594594 -2.91332,-1.151379 -4.375,-1.71875 -2.17582,-0.844858 -4.3569,-1.685106 -6.5625,-2.46875 -1.97248,-0.700569 -3.97326,-1.349158 -5.96875,-2 -1.3431,-0.438191 -2.678,-0.897125 -4.03125,-1.3125 -2.97591,-0.913188 -5.9768,-1.761366 -9,-2.5625 -0.76312,-0.202272 -1.51521,-0.429966 -2.28125,-0.625 -2.30322,-0.586272 -4.63986,-1.073591 -6.96875,-1.59375 -1.92469,-0.429957 -3.83966,-0.897118 -5.78125,-1.28125 -1.57394,-0.311321 -3.16533,-0.562888 -4.75,-0.84375 -2.14937,-0.3811 -4.30028,-0.769385 -6.46875,-1.09375 -2.03453,-0.30412 -4.10562,-0.527735 -6.15625,-0.78125 -2.04299,-0.252606 -4.06664,-0.548279 -6.125,-0.75 -3.89298,-0.381744 -7.80547,-0.678581 -11.75,-0.875 -4.08283,-0.203306 -8.17921,-0.3125 -12.3125,-0.3125 z"
         style="fill:url(#linearGradient4370);fill-opacity:1;fill-rule:nonzero;stroke:#000000;stroke-opacity:1"
         inkscape:connector-curvature="0" />
      <path
         sodipodi:nodetypes="cccc"
         inkscape:connector-curvature="0"
         id="path3932"
         d="m 264.73926,115.77405 7.86913,-1.79164 -4.47651,6.7152 z"
         style="fill:#000000;fill-opacity:1;stroke:#000000;stroke-width:1px;stroke-linecap:butt;stroke-linejoin:miter;stroke-opacity:1" />
      <path
         inkscape:transform-center-y="3.0272494"
         inkscape:transform-center-x="-3.9516411"
         sodipodi:nodetypes="cccc"
         inkscape:connector-curvature="0"
         id="path3932-2"
         d="m 239.72193,64.615583 8.05551,0.491811 -6.18314,5.186702 z"
         style="fill:#000000;fill-opacity:1;stroke:#000000;stroke-width:1px;stroke-linecap:butt;stroke-linejoin:miter;stroke-opacity:1" />
      <path
         inkscape:transform-center-y="3.4865965"
         inkscape:transform-center-x="-2.58143"
         sodipodi:nodetypes="cccc"
         inkscape:connector-curvature="0"
         id="path3932-5"
         d="m 237.905,-49.631975 6.50557,4.776057 -8.00684,1.011644 z"
         style="fill:#000000;fill-opacity:1;stroke:#000000;stroke-width:1px;stroke-linecap:butt;stroke-linejoin:miter;stroke-opacity:1" />
      <path
         inkscape:transform-center-y="4.3471315"
         inkscape:transform-center-x="1.21975"
         sodipodi:nodetypes="cccc"
         inkscape:connector-curvature="0"
         id="path3932-5-7"
         d="m 300.33161,-148.1331 2.63233,7.62915 -7.16002,-3.72386 z"
         style="fill:#000000;fill-opacity:1;stroke:#000000;stroke-width:1px;stroke-linecap:butt;stroke-linejoin:miter;stroke-opacity:1" />
      <path
         inkscape:transform-center-y="4.2302265"
         inkscape:transform-center-x="3.47259"
         sodipodi:nodetypes="cccc"
         inkscape:connector-curvature="0"
         id="path3932-5-2"
         d="m 407.98443,-195.92574 -1.86336,7.85246 -4.05184,-6.97965 z"
         style="fill:#000000;fill-opacity:1;stroke:#000000;stroke-width:1px;stroke-linecap:butt;stroke-linejoin:miter;stroke-opacity:1" />
      <path
         inkscape:transform-center-y="1.6262315"
         inkscape:transform-center-x="3.46734"
         sodipodi:nodetypes="cccc"
         inkscape:connector-curvature="0"
         id="path3932-5-27"
         d="m 523.08015,-175.97671 -5.739,5.67424 0.25911,-8.06633 z"
         style="fill:#000000;fill-opacity:1;stroke:#000000;stroke-width:1px;stroke-linecap:butt;stroke-linejoin:miter;stroke-opacity:1" />
      <path
         inkscape:transform-center-y="-2.3496175"
         inkscape:transform-center-x="4.464695"
         sodipodi:nodetypes="cccc"
         inkscape:connector-curvature="0"
         id="path3932-5-0"
         d="m 607.57908,-95.924833 -7.98157,1.194943 4.96872,-6.35963 z"
         style="fill:#000000;fill-opacity:1;stroke:#000000;stroke-width:1px;stroke-linecap:butt;stroke-linejoin:miter;stroke-opacity:1" />
      <path
         transform="translate(34.295135,-279.12318)"
         id="path3882"
         d="m 607.90625,159.25 -35.875,21.34375 c 0.86612,1.46054 1.63867,2.9848 2.46875,4.46875 0.72409,1.29432 1.42879,2.59455 2.125,3.90625 0.56424,1.06306 1.20429,2.08201 1.75,3.15625 1.99009,3.91753 3.85675,7.90914 5.59375,11.96875 0.0751,0.17562 0.14409,0.35537 0.21875,0.53125 0.15693,0.36972 0.28272,0.75416 0.4375,1.125 1.47386,3.53075 2.88044,7.08976 4.15625,10.71875 0.54496,1.55011 0.9608,3.15159 1.46875,4.71875 0.68952,2.12819 1.41114,4.24776 2.03125,6.40625 0.15714,0.54682 0.34737,1.07629 0.5,1.625 0.0915,0.32913 0.16008,0.6702 0.25,1 1.0888,3.99393 2.09185,8.03653 2.9375,12.125 0.84206,4.07114 1.53211,8.18695 2.125,12.34375 0.0511,0.35822 0.13828,0.70368 0.1875,1.0625 0.0905,0.66007 0.13461,1.33792 0.21875,2 0.40901,3.21925 0.71319,6.45401 0.96875,9.71875 0.0526,0.67142 0.17272,1.32675 0.21875,2 0.0282,0.41284 0.006,0.83648 0.0312,1.25 0.26145,4.20624 0.4375,8.4466 0.4375,12.71875 0,43.97527 -14.07129,84.64727 -37.9375,117.8125 l 33.90625,24.4375 c 28.82385,-40.03466 45.8125,-89.15472 45.8125,-142.25 0,-5.04188 -0.19817,-10.0344 -0.5,-15 -0.0954,-1.56912 -0.21875,-3.12654 -0.34375,-4.6875 -0.303,-3.78573 -0.71341,-7.54645 -1.1875,-11.28125 -0.16242,-1.27956 -0.31781,-2.57046 -0.5,-3.84375 -0.71451,-4.99209 -1.51887,-9.95427 -2.53125,-14.84375 -0.97494,-4.70866 -2.13255,-9.33265 -3.375,-13.9375 -0.39836,-1.4771 -0.8247,-2.94041 -1.25,-4.40625 -1.0206,-3.51625 -2.10838,-7.02002 -3.28125,-10.46875 -0.393,-1.15581 -0.7777,-2.32082 -1.1875,-3.46875 -1.6189,-4.53383 -3.34332,-9.00085 -5.21875,-13.40625 -0.34984,-0.82208 -0.73516,-1.62008 -1.09375,-2.4375 -1.62826,-3.7106 -3.35113,-7.38869 -5.15625,-11 -0.52247,-1.04524 -1.05676,-2.08839 -1.59375,-3.125 -1.90936,-3.68575 -3.91094,-7.30193 -6,-10.875 -0.27347,-0.46775 -0.53601,-0.9405 -0.8125,-1.40625 z"
         style="fill:#ff0000;fill-opacity:1;fill-rule:nonzero;stroke:#000000;stroke-opacity:1"
         inkscape:connector-curvature="0" />
      <path
         inkscape:transform-center-y="-3.5492834"
         inkscape:transform-center-x="3.79043"
         sodipodi:nodetypes="cccc"
         inkscape:connector-curvature="0"
         id="path3932-5-1"
         d="m 634.1904,14.480601 -7.38426,-3.256661 7.59878,-2.7187269 z"
         style="fill:#000000;fill-opacity:1;stroke:#000000;stroke-width:1px;stroke-linecap:butt;stroke-linejoin:miter;stroke-opacity:1" />
      <path
         inkscape:transform-center-y="-3.9065285"
         inkscape:transform-center-x="0.5184"
         sodipodi:nodetypes="cccc"
         inkscape:connector-curvature="0"
         id="path3932-5-74"
         d="m 596.47548,121.84489 -4.58604,-6.64089 7.89744,1.66235 z"
         style="fill:#000000;fill-opacity:1;stroke:#000000;stroke-width:1px;stroke-linecap:butt;stroke-linejoin:miter;stroke-opacity:1" />
      <text
         sodipodi:linespacing="125%"
         id="text3899-9"
         y="63.15913"
         x="240.64229"
         style="font-size:44.49687958px;font-style:normal;font-variant:normal;font-weight:normal;font-stretch:normal;text-align:start;line-height:125%;letter-spacing:0px;word-spacing:0px;writing-mode:lr-tb;text-anchor:start;fill:#000000;fill-opacity:1;stroke:none;font-family:AlMohanad;-inkscape-font-specification:AlMohanad"
         xml:space="preserve"><tspan
           style="font-size:44.49687958px;font-style:normal;font-variant:normal;font-weight:normal;font-stretch:normal;text-align:start;line-height:125%;writing-mode:lr-tb;text-anchor:start;fill:#000000;font-family:AlMohanad;-inkscape-font-specification:AlMohanad"
           dx="0 0"
           y="63.15913"
           x="240.64229"
           id="tspan3901-0"
           sodipodi:role="line">10</tspan></text>
      <text
         sodipodi:linespacing="125%"
         id="text3899-9-7"
         y="-24.340874"
         x="249.83594"
         style="font-size:44.49687958px;font-style:normal;font-variant:normal;font-weight:normal;font-stretch:normal;text-align:start;line-height:125%;letter-spacing:0px;word-spacing:0px;writing-mode:lr-tb;text-anchor:start;fill:#000000;fill-opacity:1;stroke:none;font-family:AlMohanad;-inkscape-font-specification:AlMohanad"
         xml:space="preserve"><tspan
           style="font-size:44.49687958px;font-style:normal;font-variant:normal;font-weight:normal;font-stretch:normal;text-align:start;line-height:125%;writing-mode:lr-tb;text-anchor:start;fill:#000000;font-family:AlMohanad;-inkscape-font-specification:AlMohanad"
           dx="0 0"
           y="-24.340874"
           x="249.83594"
           id="tspan3901-0-4"
           sodipodi:role="line">20</tspan></text>
      <text
         sodipodi:linespacing="125%"
         id="text3899-9-9"
         y="-101.12659"
         x="293.76453"
         style="font-size:44.49687958px;font-style:normal;font-variant:normal;font-weight:normal;font-stretch:normal;text-align:start;line-height:125%;letter-spacing:0px;word-spacing:0px;writing-mode:lr-tb;text-anchor:start;fill:#000000;fill-opacity:1;stroke:none;font-family:AlMohanad;-inkscape-font-specification:AlMohanad"
         xml:space="preserve"><tspan
           style="font-size:44.49687958px;font-style:normal;font-variant:normal;font-weight:normal;font-stretch:normal;text-align:start;line-height:125%;writing-mode:lr-tb;text-anchor:start;fill:#000000;font-family:AlMohanad;-inkscape-font-specification:AlMohanad"
           dx="0 0"
           y="-101.12659"
           x="293.76453"
           id="tspan3901-0-3"
           sodipodi:role="line">30</tspan></text>
      <text
         sodipodi:linespacing="125%"
         id="text3899-9-9-6"
         y="-141.12659"
         x="381.75049"
         style="font-size:44.49687958px;font-style:normal;font-variant:normal;font-weight:normal;font-stretch:normal;text-align:start;line-height:125%;letter-spacing:0px;word-spacing:0px;writing-mode:lr-tb;text-anchor:start;fill:#000000;fill-opacity:1;stroke:none;font-family:AlMohanad;-inkscape-font-specification:AlMohanad"
         xml:space="preserve"><tspan
           style="font-size:44.49687958px;font-style:normal;font-variant:normal;font-weight:normal;font-stretch:normal;text-align:start;line-height:125%;writing-mode:lr-tb;text-anchor:start;fill:#000000;font-family:AlMohanad;-inkscape-font-specification:AlMohanad"
           dx="0 0"
           y="-141.12659"
           x="381.75049"
           id="tspan3901-0-3-9"
           sodipodi:role="line">40</tspan></text>
      <text
         sodipodi:linespacing="125%"
         id="text3899-9-9-3"
         y="-129.69801"
         x="489.60764"
         style="font-size:44.49687958px;font-style:normal;font-variant:normal;font-weight:normal;font-stretch:normal;text-align:start;line-height:125%;letter-spacing:0px;word-spacing:0px;writing-mode:lr-tb;text-anchor:start;fill:#000000;fill-opacity:1;stroke:none;font-family:AlMohanad;-inkscape-font-specification:AlMohanad"
         xml:space="preserve"><tspan
           style="font-size:44.49687958px;font-style:normal;font-variant:normal;font-weight:normal;font-stretch:normal;text-align:start;line-height:125%;writing-mode:lr-tb;text-anchor:start;fill:#000000;font-family:AlMohanad;-inkscape-font-specification:AlMohanad"
           dx="0 0"
           y="-129.69801"
           x="489.60764"
           id="tspan3901-0-3-2"
           sodipodi:role="line">50</tspan></text>
      <text
         sodipodi:linespacing="125%"
         id="text3899-9-9-0"
         y="-63.98373"
         x="546.39331"
         style="font-size:44.49687958px;font-style:normal;font-variant:normal;font-weight:normal;font-stretch:normal;text-align:start;line-height:125%;letter-spacing:0px;word-spacing:0px;writing-mode:lr-tb;text-anchor:start;fill:#000000;fill-opacity:1;stroke:none;font-family:AlMohanad;-inkscape-font-specification:AlMohanad"
         xml:space="preserve"><tspan
           style="font-size:44.49687958px;font-style:normal;font-variant:normal;font-weight:normal;font-stretch:normal;text-align:start;line-height:125%;writing-mode:lr-tb;text-anchor:start;fill:#000000;font-family:AlMohanad;-inkscape-font-specification:AlMohanad"
           dx="0 0"
           y="-63.98373"
           x="546.39331"
           id="tspan3901-0-3-8"
           sodipodi:role="line">60</tspan></text>
      <text
         sodipodi:linespacing="125%"
         id="text3899-9-9-7"
         y="36.730556"
         x="575.3219"
         style="font-size:44.49687958px;font-style:normal;font-variant:normal;font-weight:normal;font-stretch:normal;text-align:start;line-height:125%;letter-spacing:0px;word-spacing:0px;writing-mode:lr-tb;text-anchor:start;fill:#000000;fill-opacity:1;stroke:none;font-family:AlMohanad;-inkscape-font-specification:AlMohanad"
         xml:space="preserve"><tspan
           style="font-size:44.49687958px;font-style:normal;font-variant:normal;font-weight:normal;font-stretch:normal;text-align:start;line-height:125%;writing-mode:lr-tb;text-anchor:start;fill:#000000;font-family:AlMohanad;-inkscape-font-specification:AlMohanad"
           dx="0 0"
           y="36.730556"
           x="575.3219"
           id="tspan3901-0-3-7"
           sodipodi:role="line">70</tspan></text>
      <text
         sodipodi:linespacing="125%"
         id="text3899-9-9-36"
         y="125.30198"
         x="538.17902"
         style="font-size:44.49687958px;font-style:normal;font-variant:normal;font-weight:normal;font-stretch:normal;text-align:start;line-height:125%;letter-spacing:0px;word-spacing:0px;writing-mode:lr-tb;text-anchor:start;fill:#000000;fill-opacity:1;stroke:none;font-family:AlMohanad;-inkscape-font-specification:AlMohanad"
         xml:space="preserve"><tspan
           style="font-size:44.49687958px;font-style:normal;font-variant:normal;font-weight:normal;font-stretch:normal;text-align:start;line-height:125%;writing-mode:lr-tb;text-anchor:start;fill:#000000;font-family:AlMohanad;-inkscape-font-specification:AlMohanad"
           dx="0 0"
           y="125.30198"
           x="538.17902"
           id="tspan3901-0-3-95"
           sodipodi:role="line">80</tspan></text>
      <g
         transform="translate(-3.9318412,0)"
         id="text3899-9-9-71"
         style="font-size:23.02064896px;font-style:normal;font-variant:normal;font-weight:normal;font-stretch:normal;text-align:start;line-height:125%;letter-spacing:0px;word-spacing:0px;writing-mode:lr-tb;text-anchor:start;fill:#ff0000;fill-opacity:1;stroke:none;font-family:AlMohanad;-inkscape-font-specification:AlMohanad">
        <path
           inkscape:connector-curvature="0"
           id="path4153"
           style="line-height:125%;fill:#ff0000;font-family:AlMohanad;-inkscape-font-specification:AlMohanad"
           d="m 398.62575,-84.808166 c -1.64862,1.5e-5 -2.96002,0.614498 -3.93419,1.84345 -0.96669,1.228979 -1.45004,2.903819 -1.45003,5.024526 -1e-5,2.11323 0.48334,3.784324 1.45003,5.013286 0.97417,1.228969 2.28557,1.843452 3.93419,1.843451 1.6486,1e-6 2.95251,-0.614482 3.91171,-1.843451 0.96668,-1.228962 1.45002,-2.900056 1.45003,-5.013286 -10e-6,-2.120707 -0.48335,-3.795547 -1.45003,-5.024526 -0.9592,-1.228952 -2.26311,-1.843435 -3.91171,-1.84345 m 0,-1.843451 c 2.35301,1.7e-5 4.23393,0.790602 5.64276,2.371756 1.4088,1.573691 2.1132,3.686912 2.11322,6.339671 -2e-5,2.645282 -0.70442,4.758504 -2.11322,6.339671 -1.40883,1.573678 -3.28975,2.360516 -5.64276,2.360516 -2.36052,0 -4.24893,-0.786838 -5.66524,-2.360516 -1.40881,-1.573673 -2.11322,-3.686895 -2.11322,-6.339671 0,-2.652759 0.70441,-4.76598 2.11322,-6.339671 1.41631,-1.581154 3.30472,-2.371739 5.66524,-2.371756" />
        <path
           inkscape:connector-curvature="0"
           id="path4155"
           style="line-height:125%;fill:#ff0000;font-family:AlMohanad;-inkscape-font-specification:AlMohanad"
           d="m 419.44325,-74.500581 c -10e-6,-1.041618 -0.29601,-1.813469 -0.888,-2.315554 -0.58452,-0.509563 -1.48751,-0.764349 -2.70897,-0.764357 l -3.64194,0 0,6.148581 3.64194,0 c 1.22146,2e-6 2.12445,-0.251036 2.70897,-0.753116 0.59199,-0.509569 0.88799,-1.281419 0.888,-2.315554 m 1.21398,-11.847541 0,1.865931 -8.45289,0 0,5.035767 3.75434,0 c 1.88091,10e-6 3.33094,0.408417 4.35009,1.225221 1.01913,0.816821 1.52871,2.057027 1.52872,3.720622 -10e-6,1.656111 -0.4946,2.892571 -1.48375,3.709382 -0.98169,0.816814 -2.44671,1.22522 -4.39506,1.22522 l -6.02493,0 0,-16.782143 10.72348,0" />
        <path
           inkscape:connector-curvature="0"
           id="path4157"
           style="text-align:center;text-anchor:middle;fill:#ff0000"
           d="m 428.73809,-86.358263 1.25334,0 -5.46101,17.252697 -1.25334,0 5.46101,-17.252697" />
        <path
           inkscape:connector-curvature="0"
           id="path4159"
           style="text-align:center;text-anchor:middle;fill:#ff0000"
           d="m 432.10011,-86.348122 3.38341,0 4.28265,11.4204 4.30513,-11.4204 3.3834,0 0,16.782143 -2.21439,0 0,-14.736363 -4.32761,11.510325 -2.28183,0 -4.32761,-11.510325 0,14.736363 -2.20315,0 0,-16.782143" />
        <path
           inkscape:connector-curvature="0"
           id="path4161"
           style="text-align:center;text-anchor:middle;fill:#ff0000"
           d="m 464.67523,-86.348122 0,16.782143 -2.20315,0 0,-14.039449 -7.44124,14.039449 -3.05743,0 0,-16.782143 2.20315,0 0,14.039448 7.44124,-14.039448 3.05743,0" />
        <path
           inkscape:connector-curvature="0"
           id="path4163"
           style="text-align:center;text-anchor:middle;fill:#ff0000"
           d="m 469.19393,-86.348122 2.27059,0 0,6.879217 8.25056,0 0,-6.879217 2.2706,0 0,16.782143 -2.2706,0 0,-7.992032 -8.25056,0 0,7.992032 -2.27059,0 0,-16.782143" />
        <path
           inkscape:connector-curvature="0"
           id="path4165"
           style="text-align:center;text-anchor:middle;fill:#ff0000"
           d="m 423.86079,-60.831545 -4.55243,6.1261 4.78848,6.463317 -2.4392,0 -3.66442,-4.945842 -3.66442,4.945842 -2.4392,0 4.88964,-6.586963 -4.47374,-6.002454 2.4392,0 3.33844,4.48498 3.33845,-4.48498 2.4392,0" />
        <path
           inkscape:connector-curvature="0"
           id="path4167"
           style="text-align:center;text-anchor:middle;fill:#ff0000"
           d="m 430.80975,-59.880345 -3.60657,0 0,-1.432396 c 0.56272,-0.07672 1.01461,-0.144931 1.35566,-0.204628 0.34104,-0.05967 0.66504,-0.144931 0.97198,-0.255785 0.31547,-0.119352 0.55846,-0.242981 0.72899,-0.370888 0.17052,-0.127878 0.33678,-0.311191 0.49878,-0.549937 0.16199,-0.247245 0.29415,-0.507292 0.39647,-0.780145 0.11083,-0.281348 0.2302,-0.647972 0.3581,-1.099875 l 1.31729,0 0,16.331871 -2.0207,0 0,-11.638217" />
        <path
           inkscape:connector-curvature="0"
           id="path4169"
           style="text-align:center;text-anchor:middle;fill:#ff0000"
           d="m 438.60399,-56.133095 c 0,-1.372703 0.11511,-2.579154 0.34531,-3.619357 0.23021,-1.04018 0.5201,-1.858691 0.86967,-2.455536 0.34957,-0.596817 0.77162,-1.078545 1.26614,-1.445185 0.49451,-0.375136 0.96771,-0.622394 1.4196,-0.741777 0.45189,-0.11935 0.92935,-0.179033 1.4324,-0.179049 0.79293,1.6e-5 1.49634,0.149224 2.11023,0.447624 0.61387,0.289905 1.12118,0.690634 1.52192,1.202189 0.40072,0.511584 0.72897,1.133994 0.98477,1.86723 0.2643,0.733263 0.45188,1.513406 0.56273,2.340433 0.11083,0.827048 0.16625,1.730821 0.16626,2.711321 -1e-5,2.685747 -0.45616,4.740551 -1.36845,6.164418 -0.91231,1.415344 -2.23813,2.123015 -3.97746,2.123016 -1.74787,-10e-7 -3.07369,-0.711935 -3.97746,-2.135805 -0.90377,-1.432393 -1.35566,-3.525565 -1.35566,-6.279522 m 5.33312,-6.624831 c -2.16565,1.5e-5 -3.24847,2.212553 -3.24847,6.637621 0,4.484767 1.07429,6.727146 3.22289,6.727145 1.12545,1e-6 1.95675,-0.554199 2.49391,-1.662602 0.54566,-1.108398 0.8185,-2.822156 0.81851,-5.141279 -10e-6,-4.373911 -1.09562,-6.56087 -3.28684,-6.560885" />
        <path
           inkscape:connector-curvature="0"
           id="path4171"
           style="line-height:125%;fill:#ff0000;font-family:AlMohanad;-inkscape-font-specification:AlMohanad"
           d="m 451.37327,-56.133095 c -10e-6,-1.372703 0.1151,-2.579154 0.34531,-3.619357 0.2302,-1.04018 0.52009,-1.858691 0.86966,-2.455536 0.34957,-0.596817 0.77162,-1.078545 1.26614,-1.445185 0.49451,-0.375136 0.96772,-0.622394 1.41961,-0.741777 0.45188,-0.11935 0.92934,-0.179033 1.43239,-0.179049 0.79293,1.6e-5 1.49634,0.149224 2.11023,0.447624 0.61387,0.289905 1.12118,0.690634 1.52192,1.202189 0.40072,0.511584 0.72898,1.133994 0.98477,1.86723 0.2643,0.733263 0.45188,1.513406 0.56273,2.340433 0.11083,0.827048 0.16625,1.730821 0.16626,2.711321 -1e-5,2.685747 -0.45616,4.740551 -1.36845,6.164418 -0.91231,1.415344 -2.23813,2.123015 -3.97746,2.123016 -1.74787,-10e-7 -3.07368,-0.711935 -3.97745,-2.135805 -0.90378,-1.432393 -1.35567,-3.525565 -1.35566,-6.279522 m 5.33311,-6.624831 c -2.16565,1.5e-5 -3.24847,2.212553 -3.24847,6.637621 0,4.484767 1.0743,6.727146 3.22289,6.727145 1.12545,1e-6 1.95675,-0.554199 2.49391,-1.662602 0.54566,-1.108398 0.8185,-2.822156 0.81851,-5.141279 -1e-5,-4.373911 -1.09562,-6.56087 -3.28684,-6.560885" />
      </g>
      <path
         inkscape:connector-curvature="0"
         id="path4184"
         d="m 373.11397,216.29613 c -1.54549,-0.47424 -2.54152,-1.72263 -2.84297,-3.56328 -0.0722,-0.44062 -0.12608,-5.22308 -0.12651,-11.22225 l -0.001,-10.45438 18.66621,0 c 14.84545,0 18.66604,-0.0338 18.66539,-0.1649 0,-0.0907 -0.0947,-0.34299 -0.20938,-0.56065 -0.81462,-1.54572 -1.78223,-4.23536 -2.3036,-6.40318 -0.83039,-3.45273 -0.96497,-8.34658 -0.3209,-11.6694 0.0734,-0.37816 0.0428,-0.41006 -0.68794,-0.71808 -0.42057,-0.17727 -1.53637,-0.66056 -2.47957,-1.07398 -0.94321,-0.41342 -2.87249,-1.25748 -4.28729,-1.87569 -1.41481,-0.6182 -3.81899,-1.66991 -5.34262,-2.33711 -4.54932,-1.99218 -22.35746,-9.77582 -25.1631,-10.99838 -1.43294,-0.6244 -3.77777,-1.64567 -5.21071,-2.26948 -5.11542,-2.22689 -8.94357,-3.89629 -9.33311,-4.07004 -0.21765,-0.0971 -0.66287,-0.29557 -0.98935,-0.4411 -0.3265,-0.14551 -1.21694,-0.53026 -1.97875,-0.85497 -0.76182,-0.32474 -1.65226,-0.71328 -1.97877,-0.86346 -0.32648,-0.15019 -1.51373,-0.66957 -2.63833,-1.15416 -1.12459,-0.48462 -2.78109,-1.19848 -3.68109,-1.58639 -1.91719,-0.8263 -2.56494,-1.24219 -2.79326,-1.7934 -0.19191,-0.46333 -0.0749,-0.7411 0.41915,-0.9952 0.69813,-0.35907 1.29541,-0.24907 5.52754,1.01789 1.2697,0.3801 3.08026,0.9168 4.02346,1.19267 1.69725,0.49641 6.31951,1.86573 11.80654,3.49763 1.55991,0.46393 3.04397,0.90488 3.29791,0.97988 0.25393,0.0751 2.27227,0.67167 4.48516,1.32595 5.35913,1.58449 7.41339,2.19086 10.94909,3.23189 1.63247,0.48066 3.73984,1.10343 4.68303,1.38394 0.94321,0.2805 2.72409,0.80653 3.9575,1.16897 1.23343,0.36242 3.75633,1.10409 5.60647,1.64814 7.22638,2.12502 11.11154,3.25828 13.38952,3.90555 1.30598,0.37111 2.44614,0.69912 2.53367,0.72892 0.0876,0.0298 0.66321,-0.61077 1.2793,-1.42351 1.81273,-2.39142 3.04697,-3.63731 5.80177,-5.85644 0.8462,-0.68165 3.25111,-2.1366 4.73859,-2.86678 10.15746,-4.98618 22.24913,-3.59447 31.1715,3.58775 2.06422,1.66161 4.23223,4.03677 5.78236,6.33485 0.21013,0.31153 0.43053,0.59636 0.48978,0.63297 0.0593,0.0366 0.86559,-0.16982 1.7919,-0.45873 0.92632,-0.28892 2.18878,-0.67186 2.80549,-0.85101 0.61672,-0.17913 2.13046,-0.63269 3.36389,-1.00788 1.23341,-0.37521 3.81568,-1.15962 5.73836,-1.74318 4.96034,-1.50547 6.34245,-1.92728 10.28949,-3.14026 1.92269,-0.59086 4.95018,-1.5193 6.72776,-2.0632 1.77757,-0.54387 4.86442,-1.49392 6.85966,-2.11122 4.67644,-1.44684 6.41952,-1.98201 9.16819,-2.81491 1.23343,-0.37376 3.16271,-0.96758 4.2873,-1.31963 1.12459,-0.35206 2.72737,-0.84971 3.56175,-1.10589 0.83437,-0.2562 2.79333,-0.85952 4.35324,-1.34074 5.20679,-1.60626 7.18494,-2.18418 7.7401,-2.26132 1.07505,-0.14938 2.02173,0.25158 2.02173,0.85628 0,0.5382 -0.8992,1.31212 -2.31757,1.99464 -0.76289,0.36709 -1.40759,0.66744 -1.43268,0.66744 -0.025,0 -0.66078,0.28884 -1.41261,0.64188 -0.75186,0.35303 -1.6935,0.79099 -2.09255,0.97325 -0.39904,0.18226 -1.94247,0.89593 -3.42983,1.58594 -2.56612,1.19043 -3.22393,1.49321 -5.07879,2.33763 -0.43533,0.19818 -1.29608,0.59917 -1.91279,0.89107 -0.61672,0.2919 -1.77428,0.82933 -2.57238,1.19429 -0.7981,0.36497 -2.04471,0.9424 -2.77025,1.28318 -0.72554,0.3408 -3.60462,1.67605 -6.39795,2.96723 -2.79333,1.29119 -5.55369,2.56785 -6.13412,2.83701 -1.33966,0.62126 -2.57199,1.19081 -4.44855,2.056 -0.81824,0.37726 -2.93297,1.35949 -4.69943,2.18276 -1.76646,0.82325 -3.23424,1.49684 -3.26174,1.49684 -0.0274,0 -0.68955,0.30348 -1.47129,0.67439 -1.63489,0.77572 -2.80568,1.32033 -4.85115,2.25655 -0.79809,0.3653 -1.95566,0.9012 -2.57237,1.1909 -1.04481,0.4908 -5.15071,2.38487 -6.9071,3.18628 -0.71727,0.32728 -0.76727,0.37848 -0.6937,0.71064 0.1826,0.82434 0.24375,5.03617 0.0951,6.55803 -0.31695,3.24766 -1.23727,6.67229 -2.52902,9.41077 -0.35785,0.75864 -0.65064,1.42974 -0.65064,1.49135 0,0.0617 8.50369,0.12706 18.89706,0.14544 l 18.89706,0.0334 0,12.66399 0,12.66399 -61.60506,0.0238 c -54.95595,0.0214 -61.67603,0.002 -62.26253,-0.17787 z m 122.84592,-12.54294 -0.0337,-11.7076 -62.06676,-0.0306 c -34.13672,-0.0167 -62.20032,0.005 -62.36358,0.0483 l -0.29681,0.0789 0,10.18719 c 0,11.00741 -0.01,10.85794 0.70763,11.94062 0.20626,0.31168 0.59035,0.62839 1.02434,0.84465 l 0.69434,0.34602 61.18411,0 61.18413,0 -0.0337,-11.7076 z m -120.29084,9.28303 c -1.10647,-0.39542 -1.68133,-1.07479 -2.02461,-2.3927 -0.17134,-0.65784 -0.20281,-1.982 -0.20281,-8.53403 l 0,-7.75536 8.83051,0 8.83052,0 0.0409,7.50552 c 0.0476,8.74113 -0.0714,8.06207 1.41347,8.05862 0.4785,-0.001 0.94529,-0.0498 1.0373,-0.10825 0.37841,-0.24019 0.42631,-1.1655 0.42631,-8.23264 l 0,-7.2233 8.84222,0 8.84223,0 -0.0368,8.27778 -0.0368,8.27776 -0.36598,0.65958 c -0.38849,0.70011 -0.95736,1.16823 -1.77339,1.45937 -0.72087,0.25716 -33.10432,0.26444 -33.82307,0.007 z m 41.05931,0.001 c -0.72316,-0.26171 -1.47622,-0.99096 -1.84555,-1.78722 -0.3078,-0.66358 -0.34663,-0.92776 -0.39242,-2.6695 -0.0908,-3.45643 0.33137,-4.67494 1.8901,-5.4543 l 0.79149,-0.39576 8.95058,-0.0374 8.95057,-0.0374 -0.0462,-2.22443 c -0.0568,-2.73342 -0.0805,-2.77959 -1.43132,-2.77959 -1.18045,0 -1.30493,0.14411 -1.40995,1.63215 l -0.0804,1.1381 -8.83542,0 -8.83544,0 0.0594,-1.87981 c 0.0669,-2.11564 0.22885,-2.61859 1.08544,-3.3707 0.97253,-0.85389 0.17127,-0.81765 18.08222,-0.81765 18.08874,0 17.13038,-0.0472 18.03014,0.88644 1.00936,1.04728 0.96137,0.58021 1.00357,9.76584 l 0.0376,8.21179 -17.78051,-0.0108 c -13.61496,-0.007 -17.88443,-0.0476 -18.22413,-0.17058 z m 18.31833,-5.37644 0,-2.25912 -1.12727,0.0592 c -1.63675,0.0859 -1.70893,0.17883 -1.70893,2.1999 0,2.08056 0.12941,2.23552 1.8798,2.25083 l 0.9564,0.008 0,-2.25912 z m 19.94845,3.88525 0.0369,-1.67179 2.52709,-1.85698 c 1.38991,-1.02133 5.09983,-3.75658 8.24428,-6.07831 l 5.71717,-4.22133 -8.27724,-0.0339 -8.27726,-0.034 0,-1.64797 0,-1.64796 19.05373,0 19.05372,0 0.0412,1.44841 c 0.0227,0.79662 0.012,1.56273 -0.0248,1.70245 -0.0362,0.13971 -1.47004,1.28365 -3.18614,2.54206 -1.71611,1.25842 -5.41466,3.97986 -8.21901,6.04765 l -5.09883,3.75963 8.25937,0.066 8.25936,0.066 0.001,1.45108 c 0,0.79809 -0.004,1.52529 -0.007,1.61599 -0.006,0.13112 -3.91391,0.16489 -19.07423,0.16489 l -19.06589,0 0.0369,-1.6718 z m -41.97852,-20.64425 c 0,-0.0637 -0.23806,-0.49284 -0.52904,-0.95357 -2.49117,-3.94449 -3.80494,-9.39173 -3.43825,-14.25598 l 0.13713,-1.81896 -0.61305,-1.13739 c -0.73694,-1.36725 -0.689,-1.30519 -0.8309,-1.07557 -0.54471,0.88135 -0.83314,6.24877 -0.47954,8.92366 0.25609,1.93734 0.80304,4.14765 1.46518,5.92108 0.5304,1.42062 1.81386,4.03644 2.14101,4.36359 0.14871,0.1487 0.45227,0.1939 1.17402,0.1748 0.53539,-0.0142 0.97344,-0.0779 0.97344,-0.14166 z m 39.65085,0.054 c 0.48998,-0.33657 2.05757,-3.17507 2.83689,-5.1369 0.56345,-1.41841 1.1378,-3.72899 1.3731,-5.52393 0.19863,-1.51526 0.27586,-4.67295 0.11427,-4.67295 -0.10344,0 -0.84868,0.34132 -9.2151,4.2209 -3.62772,1.68219 -8.05021,3.7298 -9.8278,4.55025 l -3.23195,1.49173 -9.91232,0.95464 c -5.45175,0.52506 -10.07231,0.91449 -10.26787,0.8654 -0.63776,-0.16008 -0.99279,-0.64755 -0.98953,-1.35871 0.004,-0.86246 0.22832,-1.30845 2.59207,-5.15242 1.12992,-1.8375 2.01697,-3.37832 1.97122,-3.42406 -0.0458,-0.0458 -1.90808,-0.86585 -4.13853,-1.82242 -3.89318,-1.66967 -4.05992,-1.7281 -4.16922,-1.46101 -0.22245,0.5437 -0.15522,4.92782 0.0994,6.47831 0.31666,1.92867 0.98094,4.19818 1.72165,5.88203 0.82034,1.8649 2.14779,4.04954 2.50243,4.1184 0.50769,0.0986 38.39759,0.0895 38.54133,-0.01 z m 4.04301,-1.41658 c 2.0797,-3.98325 3.00482,-7.75211 3.00443,-12.23981 0,-2.00941 -0.22077,-4.02684 -0.49366,-4.51447 -0.0809,-0.14455 -0.29078,0.13885 -0.79148,1.06874 l -0.68136,1.26545 -0.0582,2.52701 c -0.105,4.5553 -1.10418,8.19377 -3.28412,11.95904 -0.49174,0.8493 -0.67783,1.28585 -0.57743,1.35449 0.0815,0.0557 0.59276,0.0854 1.13621,0.066 l 0.98805,-0.0354 0.75762,-1.45109 z m -32.57115,-7.30139 c 5.27572,-2.3833 9.63088,-4.37194 9.67815,-4.41921 0.0473,-0.0473 -3.21024,-0.086 -7.2389,-0.086 l -7.32484,0 -2.15627,3.59473 c -1.18594,1.97711 -2.26281,3.81447 -2.39302,4.08304 -0.20041,0.41336 -0.32727,1.16063 -0.19703,1.16063 0.0219,0 4.35621,-1.94997 9.63191,-4.33326 z m 18.04365,-7.61764 c 3.87461,-1.49421 11.02204,-4.24939 15.88317,-6.12264 4.86112,-1.87324 12.25175,-4.72327 16.42361,-6.33343 8.28797,-3.19878 14.57627,-5.62323 25.59181,-9.86693 3.95421,-1.52334 9.8311,-3.79002 13.05975,-5.0371 3.22867,-1.24708 7.41371,-2.85937 9.30013,-3.58287 1.88641,-0.72351 3.48208,-1.36682 3.54596,-1.42956 0.21567,-0.21188 -0.84565,-0.29794 -1.67261,-0.13561 -0.4499,0.0883 -1.41164,0.35951 -2.13718,0.60265 -1.2699,0.42556 -6.25421,1.95759 -30.67062,9.42715 -6.20337,1.89777 -14.247,4.36023 -17.8747,5.47215 -3.6277,1.11191 -8.3767,2.56464 -10.55333,3.2283 -2.17662,0.66364 -4.14638,1.26604 -4.37723,1.33866 -0.3493,0.10981 -1.43828,1.2527 -2.0418,2.14279 -0.0548,0.0808 -0.71538,0.0211 -1.78263,-0.16116 l -1.69559,-0.28951 -7.58345,2.32001 c -4.1709,1.276 -8.25129,2.52654 -9.06752,2.77897 l -1.48406,0.45896 0,3.95295 c 0,2.17413 0.0206,3.95297 0.0458,3.95297 0.0251,0 3.2159,-1.22255 7.09051,-2.71675 z m -7.83419,-5.14863 c -0.0368,-0.0368 -5.5159,-1.66292 -17.29159,-5.13193 l -3.01694,-0.88877 -1.69119,0.35631 -1.69118,0.35631 -0.50257,-0.56908 c -1.64718,-1.86516 -1.40795,-1.72373 -4.39412,-2.59795 -1.48736,-0.43545 -7.57201,-2.22757 -13.52145,-3.9825 -5.94945,-1.75493 -11.0843,-3.26542 -11.41078,-3.35664 -0.3265,-0.0913 -3.44303,-1.00842 -6.92563,-2.03819 -3.4826,-1.02976 -9.6563,-2.85247 -13.71932,-4.05046 -4.06304,-1.198 -9.70247,-2.86128 -12.53208,-3.69619 -7.11765,-2.10013 -7.78933,-2.28495 -8.30436,-2.28495 -0.76447,0 -0.63268,0.20337 0.36235,0.55914 0.52274,0.1869 5.99624,2.18018 12.16333,4.4295 6.1671,2.24933 15.60574,5.69171 20.97474,7.64975 5.36901,1.95804 14.18433,5.17298 19.58963,7.14435 5.40528,1.97135 12.49909,4.55808 15.76403,5.74829 3.26494,1.19021 10.47748,3.81995 16.02787,5.84386 l 10.09162,3.67984 0.0351,-3.56404 c 0.0192,-1.96021 0.016,-3.58321 -0.007,-3.60665 z m 4.70389,-1.9104 c 8.25273,-2.51712 13.33022,-4.08663 13.37926,-4.13569 0.18942,-0.18941 -1.82324,-2.47697 -3.39835,-3.86248 -4.8173,-4.23743 -11.3334,-6.41625 -17.52575,-5.86015 -6.55048,0.58827 -12.06326,3.42848 -16.35378,8.42553 l -0.69876,0.81382 0.43493,0.12365 c 0.64033,0.18203 12.9937,3.82348 16.59472,4.8917 1.70501,0.50577 3.12185,0.92345 3.1485,0.92816 0.0266,0.005 2.01532,-0.59132 4.41923,-1.32454 z m 18.24864,-5.10047 c 0.19347,-0.28259 0.17683,-0.34211 -0.29482,-1.05535 -0.89532,-1.35384 -2.37875,-3.10199 -3.84011,-4.52533 -5.33021,-5.19155 -12.35265,-8.03708 -19.83461,-8.03708 -8.9929,0 -17.48919,4.26516 -22.83812,11.46481 -0.57088,0.76839 -1.03815,1.43148 -1.03837,1.47353 0,0.11282 1.45778,1.70459 1.56067,1.7034 0.0484,-5.3e-4 0.23097,-0.25285 0.40589,-0.56064 0.47088,-0.82864 1.78158,-2.51731 2.77,-3.56879 3.44752,-3.66752 7.97465,-6.33478 12.80794,-7.54612 4.03215,-1.01056 8.81131,-1.0135 12.77891,-0.008 6.188,1.56841 11.5337,5.25238 15.1874,10.4663 l 1.12129,1.60012 0.50446,-0.55377 c 0.27743,-0.30456 0.5967,-0.68852 0.70947,-0.85323 z"
         style="fill:#006a00;fill-opacity:1" />
      <g
         style="fill:#ff0000"
         transform="translate(-2.4500779,0)"
         id="g4276">
        <text
           xml:space="preserve"
           style="font-size:23.51755142px;font-style:normal;font-variant:normal;font-weight:normal;font-stretch:normal;text-align:start;line-height:125%;letter-spacing:0px;word-spacing:0px;writing-mode:lr-tb;text-anchor:start;fill:#ff0000;fill-opacity:1;stroke:none;font-family:AlMohanad;-inkscape-font-specification:AlMohanad"
           x="407.98575"
           y="92.424034"
           id="text3899-9-7-0"
           sodipodi:linespacing="125%"><tspan
             sodipodi:role="line"
             id="tspan3901-0-4-0"
             x="407.98575"
             y="92.424034"
             style="font-size:23.51755142px;font-style:normal;font-variant:normal;font-weight:normal;font-stretch:normal;text-align:start;line-height:125%;writing-mode:lr-tb;text-anchor:start;fill:#ff0000;font-family:AlMohanad;-inkscape-font-specification:AlMohanad">min</tspan></text>
        <text
           xml:space="preserve"
           style="font-size:23.51755142px;font-style:normal;font-variant:normal;font-weight:normal;font-stretch:normal;text-align:start;line-height:125%;letter-spacing:0px;word-spacing:0px;writing-mode:lr-tb;text-anchor:start;fill:#ff0000;fill-opacity:1;stroke:none;font-family:AlMohanad;-inkscape-font-specification:AlMohanad"
           x="444.27615"
           y="83.244957"
           id="text3899-9-7-0-2"
           sodipodi:linespacing="125%"><tspan
             sodipodi:role="line"
             id="tspan3901-0-4-0-3"
             x="444.27615"
             y="83.244957"
             style="font-size:23.51755142px;font-style:normal;font-variant:normal;font-weight:normal;font-stretch:normal;text-align:start;line-height:125%;writing-mode:lr-tb;text-anchor:start;fill:#ff0000;font-family:AlMohanad;-inkscape-font-specification:AlMohanad">-1</tspan></text>
      </g>
    </g>
  </g>
</svg>
