<?xml version="1.0" encoding="UTF-8" standalone="no"?>
<!-- Created with Inkscape (http://www.inkscape.org/) -->

<svg
   xmlns:dc="http://purl.org/dc/elements/1.1/"
   xmlns:cc="http://creativecommons.org/ns#"
   xmlns:rdf="http://www.w3.org/1999/02/22-rdf-syntax-ns#"
   xmlns:svg="http://www.w3.org/2000/svg"
   xmlns="http://www.w3.org/2000/svg"
   xmlns:xlink="http://www.w3.org/1999/xlink"
   xmlns:sodipodi="http://sodipodi.sourceforge.net/DTD/sodipodi-0.dtd"
   xmlns:inkscape="http://www.inkscape.org/namespaces/inkscape"
   width="744.09448"
   height="1052.3622"
   id="svg2"
   version="1.1"
   inkscape:version="0.48.2 r9819"
   sodipodi:docname="water.svg">
  <defs
     id="defs4">
    <linearGradient
       id="linearGradient3891">
      <stop
         style="stop-color:#008002;stop-opacity:1;"
         offset="0"
         id="stop3893" />
      <stop
         style="stop-color:#feff00;stop-opacity:1;"
         offset="1"
         id="stop3895" />
    </linearGradient>
    <linearGradient
       inkscape:collect="always"
       xlink:href="#linearGradient3891"
       id="linearGradient3001"
       gradientUnits="userSpaceOnUse"
       gradientTransform="matrix(0.29865331,0,0,0.29865331,145.18568,542.05816)"
       x1="13.754464"
       y1="604.88617"
       x2="-202.78572"
       y2="600.60046" />
    <linearGradient
       inkscape:collect="always"
       xlink:href="#linearGradient3891"
       id="linearGradient3021"
       gradientUnits="userSpaceOnUse"
       gradientTransform="matrix(0.29865331,0,0,0.29865331,344.02289,-282.63106)"
       x1="13.754464"
       y1="604.88617"
       x2="-202.78572"
       y2="600.60046" />
  </defs>
  <sodipodi:namedview
     id="base"
     pagecolor="#ffffff"
     bordercolor="#666666"
     borderopacity="1.0"
     inkscape:pageopacity="0.0"
     inkscape:pageshadow="2"
     inkscape:zoom="2.8"
     inkscape:cx="414.02123"
     inkscape:cy="931.67035"
     inkscape:document-units="px"
     inkscape:current-layer="layer1"
     showgrid="false"
     showguides="true"
     inkscape:guide-bbox="true"
     inkscape:window-width="1920"
     inkscape:window-height="1008"
     inkscape:window-x="0"
     inkscape:window-y="24"
     inkscape:window-maximized="1"
     fit-margin-top="0"
     fit-margin-left="0"
     fit-margin-right="0"
     fit-margin-bottom="0" />
  <metadata
     id="metadata7">
    <rdf:RDF>
      <cc:Work
         rdf:about="">
        <dc:format>image/svg+xml</dc:format>
        <dc:type
           rdf:resource="http://purl.org/dc/dcmitype/StillImage" />
        <dc:title />
      </cc:Work>
    </rdf:RDF>
  </metadata>
  <g
     inkscape:label="Layer 1"
     inkscape:groupmode="layer"
     id="layer1"
     transform="translate(-34.295135,279.12318)">
    <path
       style="fill:#ffffff;fill-opacity:1;fill-rule:nonzero;stroke:#000000;stroke-width:0.2986533;stroke-opacity:1"
       d="m 495.20291,-228.46571 c -43.86633,-0.14875 -82.04106,32.34714 -87.86943,76.98724 -6.32228,48.42311 27.80812,92.80259 76.23126,99.1249 48.42315,6.32231 92.80261,-27.80812 99.12489,-76.23127 6.32231,-48.42314 -27.80809,-92.8026 -76.23123,-99.12488 -3.78307,-0.49395 -7.53801,-0.74338 -11.25549,-0.75599 z m -58.12141,66.45037 116.04814,0 c 8.409,0 7.91372,15.81697 7.58168,23.44539 -1.12602,25.86905 -16.3065,45.57357 -32.32725,55.0631 l -66.13036,0 c -12.59042,-8.68448 -31.53567,-24.40736 -32.4279,-57.17195 -0.29334,-10.77234 0.80487,-21.33654 7.25569,-21.33654 z"
       id="path3066"
       inkscape:connector-curvature="0"
       sodipodi:nodetypes="sssssssssccss" />
    <path
       style="fill:#ffffff;fill-opacity:1;fill-rule:nonzero;stroke:#000000;stroke-width:0.2986533;stroke-opacity:1"
       d="m 264.95759,-210.98876 0,4.91845 c -0.0366,0.029 -0.0755,0.0549 -0.11199,0.084 l 0,5.12377 -5.86107,0 -7.99831,0 0,8.83828 c -11.09609,14.17749 -17.70455,32.02526 -17.70455,51.42436 0,46.12478 37.38615,83.52027 83.51093,83.52027 46.12479,0 83.52027,-37.39549 83.52027,-83.52027 0,-23.68681 -9.86836,-45.06693 -25.71218,-60.26264 l -11.83414,0 0,-9.45424 0,-0.67197 -16.95791,0 0,10.12621 -19.47367,22.87891 -25.64698,0 -18.66983,-22.87891 0,-10.12621 z"
       id="path2996"
       inkscape:connector-curvature="0"
       sodipodi:nodetypes="cccccccsssccccccccccc" />
    <path
       style="fill:url(#linearGradient3021);fill-opacity:1;fill-rule:nonzero;stroke:#000000;stroke-width:0.59730661;stroke-miterlimit:4;stroke-opacity:1;stroke-dasharray:none"
       d="m 274.25935,-114.65724 -5.05844,10.36887 c 14.592,7.40404 31.10427,11.57282 48.58716,11.57282 15.91434,0 31.01308,-3.46383 44.602,-9.6689 l -4.88111,-10.4342 c -12.10537,5.50871 -25.55366,8.57695 -39.72089,8.57695 -15.66951,0 -30.46424,-3.75811 -43.52872,-10.41554 z"
       id="path3064"
       inkscape:connector-curvature="0" />
    <text
       xml:space="preserve"
       style="font-size:18.6460228px;font-style:normal;font-variant:normal;font-weight:normal;font-stretch:normal;text-align:start;line-height:125%;letter-spacing:0px;word-spacing:0px;writing-mode:lr-tb;text-anchor:start;fill:#000000;fill-opacity:1;stroke:none;font-family:AlMohanad;-inkscape-font-specification:AlMohanad"
       x="270.08365"
       y="-126.98743"
       id="text3899"
       sodipodi:linespacing="125%"><tspan
         sodipodi:role="line"
         id="tspan3901"
         x="270.08365"
         y="-126.98743"
         dx="0 0 0 0 0 0 0 0 0 0 0 -0.92490184"
         style="font-size:18.6460228px;font-style:normal;font-variant:normal;font-weight:normal;font-stretch:normal;text-align:start;line-height:125%;writing-mode:lr-tb;text-anchor:start;fill:#000000;font-family:AlMohanad;-inkscape-font-specification:AlMohanad">0    1/2   4/4</tspan></text>
    <text
       xml:space="preserve"
       style="font-size:16.72458458px;font-style:normal;font-weight:normal;text-align:center;line-height:125%;letter-spacing:0px;word-spacing:0px;text-anchor:middle;fill:#ff0000;fill-opacity:1;stroke:none;font-family:Bitstream Vera Sans"
       x="494.5051"
       y="-168.08022"
       id="text3765"
       sodipodi:linespacing="125%"><tspan
         sodipodi:role="line"
         id="tspan3767"
         x="494.5051"
         y="-168.08022">ВОДА</tspan></text>
    <path
       style="font-size:medium;font-style:normal;font-variant:normal;font-weight:normal;font-stretch:normal;text-indent:0;text-align:start;text-decoration:none;line-height:normal;letter-spacing:normal;word-spacing:normal;text-transform:none;direction:ltr;block-progression:tb;writing-mode:lr-tb;text-anchor:start;baseline-shift:baseline;color:#000000;fill:#ff0000;fill-opacity:1;stroke:none;stroke-width:0.47923848000000002;marker:none;visibility:visible;display:inline;overflow:visible;enable-background:accumulate;font-family:Sans;-inkscape-font-specification:Sans"
       d="m 507.68848,-204.75077 c -0.64496,0 -1.15823,0.19246 -1.52487,0.60994 -0.36395,0.4175 -0.5337,0.98957 -0.5337,1.72819 0,0.73594 0.16975,1.33344 0.5337,1.7536 0.36664,0.41748 0.87991,0.60995 1.52487,0.60995 0.64227,0 1.13283,-0.19247 1.49946,-0.60995 0.36662,-0.42016 0.55912,-1.01766 0.55912,-1.7536 0,-0.73862 -0.1925,-1.31069 -0.55912,-1.72819 -0.36663,-0.41748 -0.85719,-0.60994 -1.49946,-0.60994 z m 0,0.60994 c 0.3934,0 0.71019,0.16978 0.94034,0.48288 0.23015,0.31044 0.33039,0.71276 0.33039,1.24531 0,0.53524 -0.1002,0.96029 -0.33039,1.27072 -0.23015,0.31044 -0.54694,0.48288 -0.94034,0.48288 -0.39874,0 -0.71019,-0.14971 -0.94033,-0.45746 -0.22747,-0.31044 -0.35581,-0.75824 -0.3558,-1.29614 -1e-5,-0.5379 0.12565,-0.93755 0.3558,-1.24531 0.23014,-0.31043 0.54425,-0.48288 0.94033,-0.48288 z m -15.09621,0.0253 c -1.38081,0 -2.46521,1.13912 -2.46521,2.51603 l 0,0.55912 0,9.98791 c -0.71948,0.66345 -1.16907,1.59219 -1.16907,2.64311 0,2.00161 1.63267,3.63427 3.63428,3.63427 2.00161,0 3.63427,-1.63266 3.63427,-3.63427 0,-1.05309 -0.4499,-1.98121 -1.16906,-2.64311 l 0,-9.98791 0,-0.55912 c 0,-1.37691 -1.08441,-2.51603 -2.46521,-2.51603 z m 0,0.40663 c 1.16934,0 2.08399,0.93617 2.08399,2.1094 l 0,0.55912 0,10.06415 0,0.0762 0.0508,0.0762 c 0.67966,0.59415 1.09283,1.43782 1.09283,2.41438 0,1.79138 -1.43626,3.22763 -3.22765,3.22763 -1.79138,0 -3.22764,-1.43625 -3.22764,-3.22763 0,-0.9919 0.37509,-1.84697 1.06741,-2.4398 l 0.0762,-0.0508 0,-0.10166 0,-10.03874 0,-0.55912 c 0,-1.17324 0.91464,-2.1094 2.08399,-2.1094 z m 0,0.83868 c -0.78307,0 -1.39779,0.58431 -1.39779,1.29614 l 0,11.3857 c -0.57752,0.43159 -0.96576,1.10426 -0.96576,1.88068 0,1.30716 1.05638,2.36355 2.36355,2.36355 1.30717,0 2.38896,-1.05639 2.38896,-2.36355 0,-0.784 -0.40402,-1.47538 -0.99117,-1.9061 l 0,-1.32155 -1.65194,0 0,-0.50829 1.65194,0 0,-0.35581 -0.53369,0 0,-0.48286 0.53369,0 0,-0.38122 -1.65194,0 0,-0.48288 1.65194,0 0,-0.38122 -0.53369,0 0,-0.48288 0.53369,0 0,-0.3558 -1.65194,0 0,-0.50828 1.65194,0 0,-0.35581 -0.53369,0 0,-0.48288 0.55911,0 0,-0.38122 -1.67736,0 0,-0.48287 1.67736,0 0,-0.38121 -0.55911,0 0,-0.48288 0.55911,0 0,-0.38122 -1.67736,0 0,-0.48288 1.67736,0 0,-0.3558 -0.55911,0 0,-0.50828 0.55911,0 0,-0.35581 -1.67736,0 0,-0.48288 1.67736,0 0,-0.38122 -0.55911,0 0,-0.48287 0.55911,0 0,-0.10166 c 0,-0.0971 -0.002,-0.18833 -0.0253,-0.27956 l -1.65194,0 0,-0.48287 1.39779,0 c -0.25976,-0.31978 -0.67577,-0.53371 -1.14364,-0.53371 z m 9.27629,1.01658 c -1.5963,2e-5 -2.86676,0.49208 -3.78675,1.44863 -0.91392,0.95657 -1.37239,2.26985 -1.37239,3.93925 0,1.64504 0.46456,2.94508 1.37239,3.91383 0.90781,0.96876 2.11821,1.44863 3.65968,1.44863 0.56661,0 1.1015,-0.0428 1.60111,-0.15249 0.50569,-0.10965 1.0049,-0.28895 1.47405,-0.50829 l 0,-1.55028 c -0.47525,0.26199 -0.96731,0.45049 -1.44863,0.58452 -0.47524,0.12793 -0.96122,0.20332 -1.44863,0.20332 -1.0906,0 -1.91286,-0.35351 -2.51603,-1.04199 -0.60319,-0.69456 -0.91493,-1.64823 -0.91493,-2.89725 0,-1.24901 0.31174,-2.23418 0.91493,-2.92267 0.60317,-0.69457 1.42543,-1.04198 2.51603,-1.04199 0.48741,1e-5 0.97339,0.0692 1.44863,0.20331 0.48132,0.12796 0.97338,0.32255 1.44863,0.58454 l 0,-1.57571 c -0.46306,-0.21323 -0.95512,-0.35387 -1.44863,-0.45746 -0.49353,-0.10965 -0.98158,-0.17788 -1.49946,-0.1779 z m -12.50394,4.14257 c -1.03883,0.49838 -2.04206,1.12314 -2.74477,1.90609 -0.0614,0.056 -0.12717,0.13311 -0.17789,0.20331 -0.38591,0.53407 -0.28916,1.25233 0.22872,1.62653 0.51788,0.37421 1.26605,0.2545 1.65195,-0.27956 0.57392,-1.01309 0.47681,-2.48416 1.04199,-3.45637 z m 0.12708,4.0409 c -1.03884,0.49839 -2.04206,1.12314 -2.74477,1.90609 -0.0614,0.0559 -0.12718,0.13312 -0.17791,0.20332 -0.3859,0.53406 -0.26373,1.25232 0.25415,1.62652 0.51787,0.37421 1.24062,0.25451 1.62654,-0.27956 0.57392,-1.01308 0.47681,-2.48415 1.04199,-3.45637 z m 6.81108,3.48179 c 0.56519,0.97221 0.46808,2.44328 1.042,3.45637 0.38591,0.53407 1.10866,0.65377 1.62653,0.27957 0.51788,-0.37422 0.61463,-1.09248 0.22873,-1.62654 -0.0508,-0.0701 -0.0911,-0.14736 -0.15249,-0.20332 -0.7027,-0.78293 -1.70592,-1.4077 -2.74477,-1.90608 z"
       id="path3844"
       inkscape:connector-curvature="0" />
  </g>
</svg>
